%TF.GenerationSoftware,KiCad,Pcbnew,7.0.11+dfsg-1build4*%
%TF.CreationDate,2025-01-13T22:22:21-06:00*%
%TF.ProjectId,LEDpanel,4c454470-616e-4656-9c2e-6b696361645f,rev?*%
%TF.SameCoordinates,Original*%
%TF.FileFunction,Copper,L2,Bot*%
%TF.FilePolarity,Positive*%
%FSLAX46Y46*%
G04 Gerber Fmt 4.6, Leading zero omitted, Abs format (unit mm)*
G04 Created by KiCad (PCBNEW 7.0.11+dfsg-1build4) date 2025-01-13 22:22:21*
%MOMM*%
%LPD*%
G01*
G04 APERTURE LIST*
G04 Aperture macros list*
%AMRoundRect*
0 Rectangle with rounded corners*
0 $1 Rounding radius*
0 $2 $3 $4 $5 $6 $7 $8 $9 X,Y pos of 4 corners*
0 Add a 4 corners polygon primitive as box body*
4,1,4,$2,$3,$4,$5,$6,$7,$8,$9,$2,$3,0*
0 Add four circle primitives for the rounded corners*
1,1,$1+$1,$2,$3*
1,1,$1+$1,$4,$5*
1,1,$1+$1,$6,$7*
1,1,$1+$1,$8,$9*
0 Add four rect primitives between the rounded corners*
20,1,$1+$1,$2,$3,$4,$5,0*
20,1,$1+$1,$4,$5,$6,$7,0*
20,1,$1+$1,$6,$7,$8,$9,0*
20,1,$1+$1,$8,$9,$2,$3,0*%
G04 Aperture macros list end*
%TA.AperFunction,ComponentPad*%
%ADD10R,3.500000X3.500000*%
%TD*%
%TA.AperFunction,ComponentPad*%
%ADD11RoundRect,0.750000X1.000000X-0.750000X1.000000X0.750000X-1.000000X0.750000X-1.000000X-0.750000X0*%
%TD*%
%TA.AperFunction,ComponentPad*%
%ADD12RoundRect,0.875000X0.875000X-0.875000X0.875000X0.875000X-0.875000X0.875000X-0.875000X-0.875000X0*%
%TD*%
%TA.AperFunction,ComponentPad*%
%ADD13C,1.440000*%
%TD*%
%TA.AperFunction,ComponentPad*%
%ADD14R,2.600000X2.600000*%
%TD*%
%TA.AperFunction,ComponentPad*%
%ADD15C,2.600000*%
%TD*%
%TA.AperFunction,ComponentPad*%
%ADD16R,1.700000X1.700000*%
%TD*%
%TA.AperFunction,ComponentPad*%
%ADD17O,1.700000X1.700000*%
%TD*%
%TA.AperFunction,ViaPad*%
%ADD18C,0.800000*%
%TD*%
%TA.AperFunction,Conductor*%
%ADD19C,1.000000*%
%TD*%
G04 APERTURE END LIST*
D10*
%TO.P,J1,1*%
%TO.N,+VDC*%
X40350000Y-116900000D03*
D11*
%TO.P,J1,2*%
%TO.N,GND*%
X40350000Y-122900000D03*
D12*
%TO.P,J1,3*%
%TO.N,unconnected-(J1-Pad3)*%
X45050000Y-119900000D03*
%TD*%
D13*
%TO.P,RV1,1,1*%
%TO.N,Net-(D2-A)*%
X96250000Y-122100000D03*
%TO.P,RV1,2,2*%
%TO.N,Net-(J4-Pin_1)*%
X96250000Y-119560000D03*
%TO.P,RV1,3,3*%
%TO.N,GND*%
X96250000Y-117020000D03*
%TD*%
D14*
%TO.P,J3,1,Pin_1*%
%TO.N,SWPWR*%
X77340000Y-121140000D03*
D15*
%TO.P,J3,2,Pin_2*%
%TO.N,GND*%
X82420000Y-121140000D03*
%TD*%
D16*
%TO.P,JP1,1,A*%
%TO.N,Net-(J4-Pin_1)*%
X106200000Y-122800000D03*
D17*
%TO.P,JP1,2,B*%
%TO.N,SETPOINT*%
X106200000Y-120260000D03*
%TD*%
D16*
%TO.P,J4,1,Pin_1*%
%TO.N,Net-(J4-Pin_1)*%
X101650000Y-122850000D03*
D17*
%TO.P,J4,2,Pin_2*%
%TO.N,GND*%
X101650000Y-120310000D03*
%TD*%
D14*
%TO.P,SW1,1,A*%
%TO.N,+VDC*%
X62960000Y-121230000D03*
D15*
%TO.P,SW1,2,B*%
%TO.N,SWPWR*%
X68040000Y-121230000D03*
%TD*%
D10*
%TO.P,J2,1*%
%TO.N,+VDC*%
X54300000Y-116600000D03*
D11*
%TO.P,J2,2*%
%TO.N,GND*%
X54300000Y-122600000D03*
D12*
%TO.P,J2,3*%
%TO.N,unconnected-(J2-Pad3)*%
X49600000Y-119600000D03*
%TD*%
D18*
%TO.N,PLED1*%
X33000000Y-88000000D03*
X49000000Y-96000000D03*
X49000000Y-94000000D03*
X36000000Y-95000000D03*
X31000000Y-88000000D03*
X42000000Y-94000000D03*
X52000000Y-96000000D03*
X32000000Y-93000000D03*
X31000000Y-94000000D03*
X37000000Y-86000000D03*
X55000000Y-98000000D03*
X43000000Y-86000000D03*
X32000000Y-86000000D03*
X45000000Y-91000000D03*
X47000000Y-87000000D03*
X34000000Y-95000000D03*
X46000000Y-85000000D03*
X52000000Y-93000000D03*
X59000000Y-97000000D03*
X32000000Y-96000000D03*
X32000000Y-90000000D03*
X59000000Y-90000000D03*
X35000000Y-91000000D03*
X55000000Y-88000000D03*
X58000000Y-99000000D03*
X49000000Y-86000000D03*
X34000000Y-87000000D03*
X54000000Y-93000000D03*
X35000000Y-93000000D03*
X31000000Y-91000000D03*
X38000000Y-88000000D03*
X46000000Y-96000000D03*
X35000000Y-96000000D03*
X57000000Y-85000000D03*
X58000000Y-87000000D03*
X54000000Y-97000000D03*
X35000000Y-89000000D03*
X58000000Y-94000000D03*
%TO.N,PLED5*%
X51000000Y-75000000D03*
X41000000Y-70000000D03*
X34000000Y-75000000D03*
X35000000Y-82000000D03*
X39000000Y-57000000D03*
X48000000Y-59000000D03*
X55000000Y-68000000D03*
X44000000Y-74000000D03*
X35000000Y-64000000D03*
X31000000Y-74000000D03*
X55000000Y-82000000D03*
X32000000Y-63000000D03*
X57000000Y-59000000D03*
X52000000Y-72000000D03*
X31000000Y-71000000D03*
X31000000Y-77000000D03*
X37000000Y-79000000D03*
X58000000Y-81000000D03*
X52000000Y-69000000D03*
X33000000Y-60000000D03*
X58000000Y-63000000D03*
X55000000Y-72000000D03*
X45000000Y-65000000D03*
X42000000Y-60000000D03*
X35000000Y-68000000D03*
X53000000Y-76000000D03*
X31000000Y-67000000D03*
X36000000Y-59000000D03*
X43000000Y-72000000D03*
X44000000Y-82000000D03*
X49000000Y-71000000D03*
X48000000Y-81000000D03*
X32000000Y-80000000D03*
X39000000Y-82000000D03*
X43000000Y-70000000D03*
X56000000Y-79000000D03*
X32000000Y-58000000D03*
X36000000Y-62000000D03*
X35000000Y-56000000D03*
X46000000Y-59000000D03*
X46000000Y-81000000D03*
X47000000Y-75000000D03*
X58000000Y-67000000D03*
X39000000Y-59000000D03*
X46000000Y-71000000D03*
%TO.N,PLED6*%
X50000000Y-38000000D03*
X32000000Y-38000000D03*
X33000000Y-44000000D03*
X38000000Y-31000000D03*
X50000000Y-40000000D03*
X47000000Y-30000000D03*
X56000000Y-34000000D03*
X38000000Y-52000000D03*
X31000000Y-47000000D03*
X41000000Y-31000000D03*
X31000000Y-42000000D03*
X55000000Y-52000000D03*
X59000000Y-51000000D03*
X50000000Y-47000000D03*
X45000000Y-35000000D03*
X43000000Y-40000000D03*
X35000000Y-42000000D03*
X31000000Y-51000000D03*
X55000000Y-43000000D03*
X55000000Y-38000000D03*
X46000000Y-53000000D03*
X49000000Y-43000000D03*
X36000000Y-39000000D03*
X56000000Y-30000000D03*
X43000000Y-44000000D03*
X54000000Y-50000000D03*
X41000000Y-53000000D03*
X34000000Y-34000000D03*
X53000000Y-39000000D03*
X56000000Y-46000000D03*
X46000000Y-42000000D03*
X52000000Y-45000000D03*
X45000000Y-47000000D03*
%TO.N,PLED7*%
X83000000Y-44000000D03*
X73000000Y-31000000D03*
X87000000Y-34000000D03*
X88000000Y-30000000D03*
X72000000Y-52000000D03*
X62000000Y-33000000D03*
X62000000Y-41000000D03*
X88000000Y-46000000D03*
X70000000Y-30000000D03*
X68000000Y-51000000D03*
X65000000Y-40000000D03*
X87000000Y-43000000D03*
X80000000Y-43000000D03*
X71000000Y-33000000D03*
X71000000Y-54000000D03*
X62000000Y-51000000D03*
X76000000Y-46000000D03*
X85000000Y-31000000D03*
X73000000Y-45000000D03*
X84000000Y-40000000D03*
X66000000Y-48000000D03*
X75000000Y-52000000D03*
X81000000Y-39000000D03*
X66000000Y-31000000D03*
X84000000Y-52000000D03*
X78000000Y-53000000D03*
X80000000Y-46000000D03*
X85000000Y-47000000D03*
X72000000Y-44000000D03*
X65000000Y-53000000D03*
X65000000Y-35000000D03*
X62000000Y-44000000D03*
X68000000Y-54000000D03*
X87000000Y-54000000D03*
X87000000Y-49000000D03*
X62000000Y-48000000D03*
X68000000Y-33000000D03*
X83000000Y-48000000D03*
X72000000Y-40000000D03*
X87000000Y-38000000D03*
X65000000Y-44000000D03*
X77000000Y-41000000D03*
X62000000Y-37000000D03*
%TO.N,PLED8*%
X84000000Y-76000000D03*
X62000000Y-68000000D03*
X62000000Y-78000000D03*
X65000000Y-82000000D03*
X88000000Y-61000000D03*
X76000000Y-58000000D03*
X72000000Y-75000000D03*
X73000000Y-57000000D03*
X82000000Y-69000000D03*
X85000000Y-61000000D03*
X78000000Y-57000000D03*
X65000000Y-63000000D03*
X80000000Y-72000000D03*
X74000000Y-81000000D03*
X63000000Y-81000000D03*
X88000000Y-77000000D03*
X62000000Y-75000000D03*
X87000000Y-65000000D03*
X84000000Y-67000000D03*
X66000000Y-75000000D03*
X65000000Y-67000000D03*
X72000000Y-59000000D03*
X67000000Y-79000000D03*
X72000000Y-69000000D03*
X70000000Y-81000000D03*
X78000000Y-82000000D03*
X84000000Y-71000000D03*
X71000000Y-72000000D03*
X63000000Y-64000000D03*
X84000000Y-79000000D03*
X88000000Y-72000000D03*
X75000000Y-72000000D03*
X67000000Y-60000000D03*
X65000000Y-57000000D03*
X84000000Y-57000000D03*
X68000000Y-57000000D03*
X75000000Y-64000000D03*
X63000000Y-60000000D03*
X87000000Y-82000000D03*
X79000000Y-75000000D03*
X75000000Y-75000000D03*
X62000000Y-72000000D03*
X80000000Y-67000000D03*
X78000000Y-69000000D03*
X87000000Y-58000000D03*
X66000000Y-71000000D03*
X88000000Y-68000000D03*
%TO.N,PLED9*%
X64000000Y-96000000D03*
X86000000Y-89000000D03*
X67000000Y-86000000D03*
X62000000Y-98000000D03*
X62000000Y-88000000D03*
X72000000Y-95000000D03*
X76000000Y-96000000D03*
X83000000Y-93000000D03*
X85000000Y-86000000D03*
X88000000Y-89000000D03*
X62000000Y-91000000D03*
X70000000Y-88000000D03*
X84000000Y-97000000D03*
X67000000Y-89000000D03*
X89000000Y-93000000D03*
X73000000Y-86000000D03*
X65000000Y-93000000D03*
X81000000Y-96000000D03*
X75000000Y-91000000D03*
X79000000Y-96000000D03*
X62000000Y-94000000D03*
X80000000Y-94000000D03*
X87000000Y-87000000D03*
X86000000Y-92000000D03*
X65000000Y-90000000D03*
X78000000Y-86000000D03*
X87000000Y-97000000D03*
X76000000Y-86000000D03*
X70000000Y-86000000D03*
X88000000Y-95000000D03*
%TO.N,PLED10*%
X108000000Y-40000000D03*
X113000000Y-41000000D03*
X96000000Y-49000000D03*
X95000000Y-53000000D03*
X118000000Y-52000000D03*
X123000000Y-39000000D03*
X91000000Y-38000000D03*
X91000000Y-31000000D03*
X109000000Y-36000000D03*
X119000000Y-48000000D03*
X94000000Y-30000000D03*
X115000000Y-36000000D03*
X116000000Y-47000000D03*
X94000000Y-40000000D03*
X93000000Y-45000000D03*
X103000000Y-51000000D03*
X113000000Y-38000000D03*
X98000000Y-32000000D03*
X96000000Y-46000000D03*
X116000000Y-43000000D03*
X121000000Y-40000000D03*
X105000000Y-53000000D03*
X103000000Y-40000000D03*
X123000000Y-42000000D03*
X92000000Y-41000000D03*
X108000000Y-45000000D03*
X122000000Y-52000000D03*
X100000000Y-29000000D03*
X94000000Y-33000000D03*
X95000000Y-43000000D03*
X92000000Y-51000000D03*
X122000000Y-37000000D03*
X103000000Y-30000000D03*
X122000000Y-45000000D03*
X99000000Y-54000000D03*
X117000000Y-38000000D03*
X122000000Y-49000000D03*
X114000000Y-46000000D03*
X102000000Y-43000000D03*
X119000000Y-45000000D03*
X104000000Y-44000000D03*
X111000000Y-47000000D03*
X93000000Y-48000000D03*
X101000000Y-33000000D03*
X92000000Y-34000000D03*
X114000000Y-51000000D03*
X118000000Y-36000000D03*
X99000000Y-50000000D03*
%TO.N,PLED11*%
X122000000Y-70000000D03*
X110000000Y-71000000D03*
X104000000Y-82000000D03*
X112000000Y-69000000D03*
X107000000Y-57000000D03*
X97000000Y-82000000D03*
X101000000Y-68000000D03*
X102000000Y-79000000D03*
X109000000Y-67000000D03*
X123000000Y-76000000D03*
X101000000Y-82000000D03*
X91000000Y-68000000D03*
X119000000Y-80000000D03*
X95000000Y-74000000D03*
X93000000Y-80000000D03*
X94000000Y-68000000D03*
X117000000Y-77000000D03*
X123000000Y-79000000D03*
X115000000Y-81000000D03*
X91000000Y-64000000D03*
X92000000Y-59000000D03*
X91000000Y-77000000D03*
X123000000Y-73000000D03*
X99000000Y-58000000D03*
X115000000Y-70000000D03*
X113000000Y-81000000D03*
X117000000Y-66000000D03*
X95000000Y-71000000D03*
X113000000Y-66000000D03*
X119000000Y-71000000D03*
X103000000Y-57000000D03*
X118000000Y-56000000D03*
X111000000Y-75000000D03*
X102000000Y-59000000D03*
X106000000Y-79000000D03*
X105000000Y-69000000D03*
X91000000Y-70000000D03*
X119000000Y-74000000D03*
X101000000Y-72000000D03*
X100000000Y-61000000D03*
X117000000Y-61000000D03*
X110000000Y-66000000D03*
X112000000Y-77000000D03*
X114000000Y-58000000D03*
X93000000Y-63000000D03*
X96000000Y-58000000D03*
X101000000Y-70000000D03*
X113000000Y-73000000D03*
X107000000Y-82000000D03*
X121000000Y-57000000D03*
X123000000Y-60000000D03*
X105000000Y-59000000D03*
X99000000Y-78000000D03*
X122000000Y-64000000D03*
X109000000Y-73000000D03*
X117000000Y-81000000D03*
X115000000Y-75000000D03*
X117000000Y-58000000D03*
X92000000Y-73000000D03*
X120000000Y-66000000D03*
X104000000Y-73000000D03*
X91000000Y-61000000D03*
X96000000Y-61000000D03*
X96000000Y-77000000D03*
X118000000Y-64000000D03*
%TO.N,PLED12*%
X101000000Y-96000000D03*
X116000000Y-89000000D03*
X123000000Y-94000000D03*
X121000000Y-88000000D03*
X96000000Y-99000000D03*
X121000000Y-86000000D03*
X102000000Y-85000000D03*
X122000000Y-100000000D03*
X93000000Y-94000000D03*
X106000000Y-86000000D03*
X93000000Y-89000000D03*
X109000000Y-93000000D03*
X98000000Y-85000000D03*
X111000000Y-93000000D03*
X100000000Y-88000000D03*
X118000000Y-94000000D03*
X120000000Y-91000000D03*
X123000000Y-90000000D03*
X106000000Y-96000000D03*
X118000000Y-99000000D03*
X92000000Y-98000000D03*
X91000000Y-92000000D03*
X91000000Y-95000000D03*
X94000000Y-97000000D03*
X95000000Y-86000000D03*
X92000000Y-86000000D03*
X115000000Y-97000000D03*
X110000000Y-96000000D03*
X114000000Y-93000000D03*
X117000000Y-86000000D03*
X97000000Y-88000000D03*
%TD*%
D19*
%TO.N,PLED1*%
X31000000Y-91000000D02*
X31000000Y-88000000D01*
X55000000Y-98000000D02*
X56000000Y-99000000D01*
X59000000Y-95000000D02*
X58000000Y-94000000D01*
X38000000Y-88000000D02*
X36000000Y-88000000D01*
X52000000Y-96000000D02*
X53000000Y-96000000D01*
X37000000Y-86000000D02*
X35000000Y-86000000D01*
X32000000Y-96000000D02*
X32000000Y-95000000D01*
X46000000Y-96000000D02*
X49000000Y-96000000D01*
X59000000Y-97000000D02*
X59000000Y-95000000D01*
X43000000Y-86000000D02*
X45000000Y-86000000D01*
X46000000Y-96000000D02*
X46000000Y-92000000D01*
X59000000Y-90000000D02*
X59000000Y-88000000D01*
X36000000Y-95000000D02*
X35000000Y-96000000D01*
X32000000Y-93000000D02*
X34000000Y-95000000D01*
X53000000Y-96000000D02*
X54000000Y-97000000D01*
X35000000Y-86000000D02*
X34000000Y-87000000D01*
X32000000Y-95000000D02*
X31000000Y-94000000D01*
X56000000Y-99000000D02*
X58000000Y-99000000D01*
X57000000Y-85000000D02*
X55000000Y-85000000D01*
X46000000Y-92000000D02*
X45000000Y-91000000D01*
X54000000Y-93000000D02*
X52000000Y-93000000D01*
X59000000Y-88000000D02*
X58000000Y-87000000D01*
X36000000Y-88000000D02*
X35000000Y-89000000D01*
X33000000Y-88000000D02*
X33000000Y-89000000D01*
X33000000Y-89000000D02*
X32000000Y-90000000D01*
X55000000Y-85000000D02*
X55000000Y-88000000D01*
X45000000Y-86000000D02*
X46000000Y-85000000D01*
X35000000Y-91000000D02*
X35000000Y-93000000D01*
%TO.N,PLED5*%
X36000000Y-59000000D02*
X34000000Y-59000000D01*
X35000000Y-82000000D02*
X39000000Y-82000000D01*
X31000000Y-79000000D02*
X32000000Y-80000000D01*
X44000000Y-73000000D02*
X46000000Y-71000000D01*
X58000000Y-72000000D02*
X58000000Y-71000000D01*
X58000000Y-60000000D02*
X57000000Y-59000000D01*
X31000000Y-77000000D02*
X31000000Y-79000000D01*
X51000000Y-75000000D02*
X52000000Y-75000000D01*
X52000000Y-72000000D02*
X50000000Y-72000000D01*
X58000000Y-78000000D02*
X58000000Y-81000000D01*
X45000000Y-82000000D02*
X46000000Y-81000000D01*
X58000000Y-77000000D02*
X58000000Y-78000000D01*
X44000000Y-74000000D02*
X46000000Y-74000000D01*
X58000000Y-63000000D02*
X58000000Y-60000000D01*
X39000000Y-57000000D02*
X44000000Y-57000000D01*
X32000000Y-66000000D02*
X31000000Y-67000000D01*
X35000000Y-64000000D02*
X35000000Y-63000000D01*
X46000000Y-74000000D02*
X47000000Y-75000000D01*
X34000000Y-69000000D02*
X35000000Y-68000000D01*
X52000000Y-75000000D02*
X53000000Y-76000000D01*
X44000000Y-82000000D02*
X40000000Y-82000000D01*
X43000000Y-70000000D02*
X43000000Y-72000000D01*
X34000000Y-59000000D02*
X33000000Y-60000000D01*
X58000000Y-77000000D02*
X58000000Y-76000000D01*
X58000000Y-71000000D02*
X56000000Y-71000000D01*
X58000000Y-76000000D02*
X58000000Y-72000000D01*
X50000000Y-72000000D02*
X49000000Y-71000000D01*
X44000000Y-74000000D02*
X44000000Y-73000000D01*
X34000000Y-75000000D02*
X34000000Y-71000000D01*
X31000000Y-71000000D02*
X31000000Y-74000000D01*
X44000000Y-57000000D02*
X46000000Y-59000000D01*
X42000000Y-60000000D02*
X40000000Y-60000000D01*
X40000000Y-82000000D02*
X37000000Y-79000000D01*
X56000000Y-79000000D02*
X58000000Y-77000000D01*
X40000000Y-60000000D02*
X39000000Y-59000000D01*
X32000000Y-63000000D02*
X32000000Y-66000000D01*
X41000000Y-70000000D02*
X42000000Y-69000000D01*
X35000000Y-63000000D02*
X36000000Y-62000000D01*
X56000000Y-71000000D02*
X55000000Y-72000000D01*
X34000000Y-71000000D02*
X34000000Y-69000000D01*
X44000000Y-82000000D02*
X45000000Y-82000000D01*
X33000000Y-58000000D02*
X35000000Y-56000000D01*
X58000000Y-71000000D02*
X58000000Y-67000000D01*
X32000000Y-58000000D02*
X33000000Y-58000000D01*
%TO.N,PLED6*%
X34000000Y-36000000D02*
X32000000Y-38000000D01*
X55000000Y-35000000D02*
X56000000Y-34000000D01*
X31000000Y-42000000D02*
X31000000Y-47000000D01*
X45000000Y-47000000D02*
X50000000Y-47000000D01*
X55000000Y-38000000D02*
X55000000Y-35000000D01*
X51000000Y-45000000D02*
X49000000Y-43000000D01*
X31000000Y-51000000D02*
X34000000Y-51000000D01*
X54000000Y-50000000D02*
X54000000Y-51000000D01*
X43000000Y-40000000D02*
X43000000Y-44000000D01*
X33000000Y-44000000D02*
X35000000Y-42000000D01*
X41000000Y-31000000D02*
X38000000Y-31000000D01*
X50000000Y-40000000D02*
X52000000Y-40000000D01*
X34000000Y-34000000D02*
X34000000Y-36000000D01*
X34000000Y-51000000D02*
X35000000Y-52000000D01*
X52000000Y-40000000D02*
X53000000Y-39000000D01*
X52000000Y-45000000D02*
X51000000Y-45000000D01*
X59000000Y-51000000D02*
X59000000Y-49000000D01*
X54000000Y-51000000D02*
X55000000Y-52000000D01*
X35000000Y-52000000D02*
X38000000Y-52000000D01*
X59000000Y-49000000D02*
X56000000Y-46000000D01*
X41000000Y-53000000D02*
X46000000Y-53000000D01*
%TO.N,PLED7*%
X87000000Y-38000000D02*
X87000000Y-34000000D01*
X85000000Y-31000000D02*
X87000000Y-31000000D01*
X71000000Y-33000000D02*
X68000000Y-33000000D01*
X71000000Y-31000000D02*
X70000000Y-30000000D01*
X73000000Y-31000000D02*
X71000000Y-31000000D01*
X68000000Y-51000000D02*
X71000000Y-51000000D01*
X65000000Y-35000000D02*
X65000000Y-40000000D01*
X81000000Y-46000000D02*
X83000000Y-48000000D01*
X78000000Y-41000000D02*
X80000000Y-43000000D01*
X83000000Y-39000000D02*
X84000000Y-40000000D01*
X77000000Y-52000000D02*
X78000000Y-53000000D01*
X68000000Y-54000000D02*
X71000000Y-54000000D01*
X62000000Y-37000000D02*
X62000000Y-41000000D01*
X87000000Y-45000000D02*
X88000000Y-46000000D01*
X71000000Y-51000000D02*
X72000000Y-52000000D01*
X87000000Y-43000000D02*
X87000000Y-45000000D01*
X65000000Y-47000000D02*
X66000000Y-48000000D01*
X83000000Y-45000000D02*
X85000000Y-47000000D01*
X73000000Y-45000000D02*
X75000000Y-45000000D01*
X77000000Y-41000000D02*
X78000000Y-41000000D01*
X65000000Y-44000000D02*
X65000000Y-47000000D01*
X87000000Y-31000000D02*
X88000000Y-30000000D01*
X66000000Y-31000000D02*
X64000000Y-31000000D01*
X64000000Y-31000000D02*
X62000000Y-33000000D01*
X62000000Y-44000000D02*
X62000000Y-48000000D01*
X75000000Y-45000000D02*
X76000000Y-46000000D01*
X63000000Y-51000000D02*
X65000000Y-53000000D01*
X83000000Y-44000000D02*
X83000000Y-45000000D01*
X81000000Y-39000000D02*
X83000000Y-39000000D01*
X72000000Y-40000000D02*
X72000000Y-44000000D01*
X80000000Y-46000000D02*
X81000000Y-46000000D01*
X85000000Y-52000000D02*
X87000000Y-54000000D01*
X62000000Y-51000000D02*
X63000000Y-51000000D01*
X75000000Y-52000000D02*
X77000000Y-52000000D01*
X84000000Y-52000000D02*
X85000000Y-52000000D01*
%TO.N,PLED8*%
X85000000Y-68000000D02*
X84000000Y-67000000D01*
X67000000Y-60000000D02*
X67000000Y-61000000D01*
X87000000Y-76000000D02*
X88000000Y-77000000D01*
X72000000Y-75000000D02*
X75000000Y-75000000D01*
X88000000Y-72000000D02*
X85000000Y-72000000D01*
X66000000Y-75000000D02*
X66000000Y-78000000D01*
X75000000Y-62000000D02*
X72000000Y-59000000D01*
X78000000Y-69000000D02*
X78000000Y-70000000D01*
X65000000Y-82000000D02*
X64000000Y-82000000D01*
X84000000Y-79000000D02*
X87000000Y-82000000D01*
X72000000Y-69000000D02*
X72000000Y-71000000D01*
X67000000Y-61000000D02*
X65000000Y-63000000D01*
X73000000Y-57000000D02*
X75000000Y-57000000D01*
X85000000Y-72000000D02*
X84000000Y-71000000D01*
X62000000Y-72000000D02*
X62000000Y-68000000D01*
X65000000Y-70000000D02*
X66000000Y-71000000D01*
X75000000Y-64000000D02*
X75000000Y-62000000D01*
X70000000Y-81000000D02*
X74000000Y-81000000D01*
X66000000Y-78000000D02*
X67000000Y-79000000D01*
X65000000Y-57000000D02*
X68000000Y-57000000D01*
X63000000Y-64000000D02*
X63000000Y-60000000D01*
X72000000Y-71000000D02*
X71000000Y-72000000D01*
X82000000Y-69000000D02*
X80000000Y-67000000D01*
X65000000Y-67000000D02*
X65000000Y-70000000D01*
X87000000Y-58000000D02*
X85000000Y-58000000D01*
X76000000Y-72000000D02*
X79000000Y-75000000D01*
X87000000Y-65000000D02*
X87000000Y-62000000D01*
X85000000Y-58000000D02*
X84000000Y-57000000D01*
X75000000Y-57000000D02*
X76000000Y-58000000D01*
X64000000Y-82000000D02*
X63000000Y-81000000D01*
X75000000Y-72000000D02*
X76000000Y-72000000D01*
X78000000Y-70000000D02*
X80000000Y-72000000D01*
X62000000Y-78000000D02*
X62000000Y-75000000D01*
X88000000Y-68000000D02*
X85000000Y-68000000D01*
X84000000Y-76000000D02*
X87000000Y-76000000D01*
X87000000Y-62000000D02*
X88000000Y-61000000D01*
%TO.N,PLED9*%
X80000000Y-95000000D02*
X81000000Y-96000000D01*
X76000000Y-86000000D02*
X78000000Y-86000000D01*
X86000000Y-89000000D02*
X86000000Y-92000000D01*
X62000000Y-94000000D02*
X62000000Y-91000000D01*
X88000000Y-88000000D02*
X87000000Y-87000000D01*
X63000000Y-86000000D02*
X65000000Y-86000000D01*
X65000000Y-86000000D02*
X67000000Y-86000000D01*
X88000000Y-89000000D02*
X88000000Y-88000000D01*
X76000000Y-96000000D02*
X79000000Y-96000000D01*
X65000000Y-90000000D02*
X65000000Y-93000000D01*
X88000000Y-95000000D02*
X88000000Y-94000000D01*
X63000000Y-87000000D02*
X63000000Y-86000000D01*
X64000000Y-96000000D02*
X62000000Y-98000000D01*
X70000000Y-86000000D02*
X73000000Y-86000000D01*
X62000000Y-88000000D02*
X63000000Y-87000000D01*
X80000000Y-94000000D02*
X80000000Y-95000000D01*
X88000000Y-94000000D02*
X89000000Y-93000000D01*
X84000000Y-97000000D02*
X87000000Y-97000000D01*
X70000000Y-88000000D02*
X68000000Y-88000000D01*
X68000000Y-88000000D02*
X67000000Y-89000000D01*
%TO.N,PLED10*%
X103000000Y-30000000D02*
X101000000Y-30000000D01*
X94000000Y-30000000D02*
X92000000Y-30000000D01*
X111000000Y-47000000D02*
X111000000Y-48000000D01*
X111000000Y-48000000D02*
X114000000Y-51000000D01*
X122000000Y-45000000D02*
X122000000Y-43000000D01*
X105000000Y-53000000D02*
X103000000Y-51000000D01*
X92000000Y-44000000D02*
X93000000Y-45000000D01*
X95000000Y-43000000D02*
X95000000Y-45000000D01*
X103000000Y-40000000D02*
X103000000Y-42000000D01*
X92000000Y-34000000D02*
X92000000Y-37000000D01*
X122000000Y-37000000D02*
X122000000Y-38000000D01*
X93000000Y-50000000D02*
X92000000Y-51000000D01*
X98000000Y-53000000D02*
X99000000Y-54000000D01*
X95000000Y-53000000D02*
X98000000Y-53000000D01*
X107000000Y-44000000D02*
X108000000Y-45000000D01*
X101000000Y-30000000D02*
X100000000Y-29000000D01*
X97000000Y-50000000D02*
X96000000Y-49000000D01*
X111000000Y-38000000D02*
X109000000Y-36000000D01*
X115000000Y-36000000D02*
X118000000Y-36000000D01*
X93000000Y-48000000D02*
X93000000Y-50000000D01*
X92000000Y-41000000D02*
X92000000Y-44000000D01*
X108000000Y-40000000D02*
X112000000Y-40000000D01*
X92000000Y-37000000D02*
X91000000Y-38000000D01*
X94000000Y-33000000D02*
X94000000Y-37000000D01*
X95000000Y-45000000D02*
X96000000Y-46000000D01*
X122000000Y-38000000D02*
X123000000Y-39000000D01*
X121000000Y-40000000D02*
X119000000Y-40000000D01*
X99000000Y-50000000D02*
X97000000Y-50000000D01*
X101000000Y-33000000D02*
X99000000Y-33000000D01*
X120000000Y-49000000D02*
X119000000Y-48000000D01*
X117000000Y-43000000D02*
X119000000Y-45000000D01*
X99000000Y-33000000D02*
X98000000Y-32000000D01*
X116000000Y-47000000D02*
X115000000Y-47000000D01*
X122000000Y-43000000D02*
X123000000Y-42000000D01*
X112000000Y-40000000D02*
X113000000Y-41000000D01*
X118000000Y-52000000D02*
X122000000Y-52000000D01*
X92000000Y-30000000D02*
X91000000Y-31000000D01*
X116000000Y-43000000D02*
X117000000Y-43000000D01*
X119000000Y-40000000D02*
X117000000Y-38000000D01*
X94000000Y-37000000D02*
X94000000Y-40000000D01*
X103000000Y-42000000D02*
X102000000Y-43000000D01*
X113000000Y-38000000D02*
X111000000Y-38000000D01*
X122000000Y-49000000D02*
X120000000Y-49000000D01*
X115000000Y-47000000D02*
X114000000Y-46000000D01*
X104000000Y-44000000D02*
X107000000Y-44000000D01*
%TO.N,PLED11*%
X110000000Y-67000000D02*
X112000000Y-69000000D01*
X119000000Y-57000000D02*
X118000000Y-56000000D01*
X123000000Y-76000000D02*
X123000000Y-73000000D01*
X102000000Y-79000000D02*
X106000000Y-79000000D01*
X102000000Y-59000000D02*
X100000000Y-59000000D01*
X98000000Y-77000000D02*
X99000000Y-78000000D01*
X101000000Y-68000000D02*
X101000000Y-70000000D01*
X119000000Y-74000000D02*
X119000000Y-75000000D01*
X105000000Y-59000000D02*
X103000000Y-57000000D01*
X122000000Y-61000000D02*
X123000000Y-60000000D01*
X95000000Y-71000000D02*
X95000000Y-74000000D01*
X115000000Y-75000000D02*
X113000000Y-73000000D01*
X103000000Y-72000000D02*
X104000000Y-73000000D01*
X100000000Y-61000000D02*
X96000000Y-61000000D01*
X100000000Y-59000000D02*
X99000000Y-58000000D01*
X118000000Y-64000000D02*
X118000000Y-62000000D01*
X115000000Y-70000000D02*
X118000000Y-70000000D01*
X101000000Y-82000000D02*
X97000000Y-82000000D01*
X112000000Y-77000000D02*
X112000000Y-80000000D01*
X121000000Y-57000000D02*
X119000000Y-57000000D01*
X115000000Y-81000000D02*
X117000000Y-81000000D01*
X93000000Y-63000000D02*
X93000000Y-67000000D01*
X109000000Y-67000000D02*
X110000000Y-67000000D01*
X91000000Y-68000000D02*
X91000000Y-64000000D01*
X106000000Y-70000000D02*
X105000000Y-69000000D01*
X96000000Y-77000000D02*
X98000000Y-77000000D01*
X92000000Y-73000000D02*
X92000000Y-71000000D01*
X107000000Y-70000000D02*
X106000000Y-70000000D01*
X108000000Y-71000000D02*
X107000000Y-70000000D01*
X118000000Y-62000000D02*
X117000000Y-61000000D01*
X110000000Y-66000000D02*
X113000000Y-66000000D01*
X93000000Y-80000000D02*
X93000000Y-79000000D01*
X112000000Y-80000000D02*
X113000000Y-81000000D01*
X101000000Y-72000000D02*
X103000000Y-72000000D01*
X92000000Y-71000000D02*
X91000000Y-70000000D01*
X122000000Y-80000000D02*
X123000000Y-79000000D01*
X96000000Y-58000000D02*
X93000000Y-58000000D01*
X110000000Y-71000000D02*
X108000000Y-71000000D01*
X109000000Y-73000000D02*
X111000000Y-75000000D01*
X107000000Y-82000000D02*
X104000000Y-82000000D01*
X118000000Y-70000000D02*
X119000000Y-71000000D01*
X93000000Y-79000000D02*
X91000000Y-77000000D01*
X122000000Y-64000000D02*
X122000000Y-61000000D01*
X93000000Y-67000000D02*
X94000000Y-68000000D01*
X117000000Y-66000000D02*
X120000000Y-66000000D01*
X119000000Y-80000000D02*
X122000000Y-80000000D01*
X93000000Y-58000000D02*
X92000000Y-59000000D01*
X114000000Y-58000000D02*
X117000000Y-58000000D01*
X119000000Y-75000000D02*
X117000000Y-77000000D01*
%TO.N,PLED12*%
X103000000Y-86000000D02*
X102000000Y-85000000D01*
X91000000Y-95000000D02*
X91000000Y-97000000D01*
X101000000Y-96000000D02*
X106000000Y-96000000D01*
X94000000Y-97000000D02*
X96000000Y-99000000D01*
X114000000Y-93000000D02*
X117000000Y-93000000D01*
X110000000Y-96000000D02*
X114000000Y-96000000D01*
X121000000Y-99000000D02*
X122000000Y-100000000D01*
X93000000Y-89000000D02*
X93000000Y-94000000D01*
X116000000Y-89000000D02*
X114000000Y-87000000D01*
X114000000Y-96000000D02*
X115000000Y-97000000D01*
X92000000Y-86000000D02*
X92000000Y-91000000D01*
X100000000Y-88000000D02*
X97000000Y-88000000D01*
X106000000Y-86000000D02*
X103000000Y-86000000D01*
X91000000Y-97000000D02*
X92000000Y-98000000D01*
X120000000Y-89000000D02*
X121000000Y-88000000D01*
X120000000Y-91000000D02*
X120000000Y-89000000D01*
X98000000Y-85000000D02*
X96000000Y-85000000D01*
X123000000Y-94000000D02*
X123000000Y-90000000D01*
X92000000Y-91000000D02*
X91000000Y-92000000D01*
X109000000Y-93000000D02*
X111000000Y-93000000D01*
X121000000Y-86000000D02*
X117000000Y-86000000D01*
X114000000Y-87000000D02*
X114000000Y-86000000D01*
X118000000Y-99000000D02*
X121000000Y-99000000D01*
X117000000Y-93000000D02*
X118000000Y-94000000D01*
X96000000Y-85000000D02*
X95000000Y-86000000D01*
%TD*%
%TA.AperFunction,Conductor*%
%TO.N,PLED10*%
G36*
X124942539Y-25020185D02*
G01*
X124988294Y-25072989D01*
X124999500Y-25124500D01*
X124999500Y-54876000D01*
X124979815Y-54943039D01*
X124927011Y-54988794D01*
X124875500Y-55000000D01*
X118141947Y-55000000D01*
X118129794Y-54999403D01*
X118000000Y-54986620D01*
X117870205Y-54999403D01*
X117858053Y-55000000D01*
X90124000Y-55000000D01*
X90056961Y-54980315D01*
X90011206Y-54927511D01*
X90000000Y-54876000D01*
X90000000Y-30075373D01*
X118745723Y-30075373D01*
X118775881Y-30375160D01*
X118775882Y-30375162D01*
X118845728Y-30668252D01*
X118845733Y-30668266D01*
X118954020Y-30949427D01*
X118954024Y-30949436D01*
X119098825Y-31213665D01*
X119098829Y-31213671D01*
X119277551Y-31456234D01*
X119277554Y-31456238D01*
X119277561Y-31456245D01*
X119487019Y-31672823D01*
X119723478Y-31859553D01*
X119723480Y-31859554D01*
X119723485Y-31859558D01*
X119982730Y-32013109D01*
X120260128Y-32130736D01*
X120550729Y-32210340D01*
X120849347Y-32250500D01*
X120849351Y-32250500D01*
X121075252Y-32250500D01*
X121239164Y-32239526D01*
X121300634Y-32235412D01*
X121595903Y-32175396D01*
X121880537Y-32076560D01*
X122149459Y-31940668D01*
X122397869Y-31770144D01*
X122621333Y-31568032D01*
X122815865Y-31337939D01*
X122977993Y-31083970D01*
X123104823Y-30810658D01*
X123194093Y-30522879D01*
X123244209Y-30225770D01*
X123254277Y-29924631D01*
X123224118Y-29624838D01*
X123154269Y-29331739D01*
X123045977Y-29050566D01*
X122901175Y-28786335D01*
X122722446Y-28543762D01*
X122512980Y-28327176D01*
X122389742Y-28229856D01*
X122276521Y-28140446D01*
X122276517Y-28140443D01*
X122276515Y-28140442D01*
X122017270Y-27986891D01*
X121739872Y-27869264D01*
X121739863Y-27869261D01*
X121449272Y-27789660D01*
X121374616Y-27779620D01*
X121150653Y-27749500D01*
X120924756Y-27749500D01*
X120924748Y-27749500D01*
X120699368Y-27764587D01*
X120699359Y-27764589D01*
X120404094Y-27824604D01*
X120119464Y-27923439D01*
X120119459Y-27923441D01*
X119850546Y-28059328D01*
X119602125Y-28229860D01*
X119378665Y-28431969D01*
X119184132Y-28662064D01*
X119022006Y-28916030D01*
X119022005Y-28916032D01*
X118895181Y-29189333D01*
X118895177Y-29189342D01*
X118895176Y-29189346D01*
X118805907Y-29477118D01*
X118755791Y-29774230D01*
X118745723Y-30075373D01*
X90000000Y-30075373D01*
X90000000Y-25124500D01*
X90019685Y-25057461D01*
X90072489Y-25011706D01*
X90124000Y-25000500D01*
X124875500Y-25000500D01*
X124942539Y-25020185D01*
G37*
%TD.AperFunction*%
%TD*%
%TA.AperFunction,Conductor*%
%TO.N,PLED7*%
G36*
X89429539Y-25020185D02*
G01*
X89475294Y-25072989D01*
X89486500Y-25124500D01*
X89486500Y-54876000D01*
X89466815Y-54943039D01*
X89414011Y-54988794D01*
X89362500Y-55000000D01*
X60124000Y-55000000D01*
X60056961Y-54980315D01*
X60011206Y-54927511D01*
X60000000Y-54876000D01*
X60000000Y-51141940D01*
X60000597Y-51129786D01*
X60008500Y-51049543D01*
X60008500Y-49055641D01*
X60009097Y-49043487D01*
X60013380Y-49000000D01*
X60000597Y-48870205D01*
X60000000Y-48858052D01*
X60000000Y-25124500D01*
X60019685Y-25057461D01*
X60072489Y-25011706D01*
X60124000Y-25000500D01*
X89362500Y-25000500D01*
X89429539Y-25020185D01*
G37*
%TD.AperFunction*%
%TD*%
%TA.AperFunction,Conductor*%
%TO.N,PLED6*%
G36*
X59429539Y-25020185D02*
G01*
X59475294Y-25072989D01*
X59486500Y-25124500D01*
X59486500Y-48858038D01*
X59487118Y-48883252D01*
X59487715Y-48895406D01*
X59489569Y-48920540D01*
X59496445Y-48990358D01*
X59496706Y-49011626D01*
X59496216Y-49018264D01*
X59495618Y-49030439D01*
X59495000Y-49055655D01*
X59495000Y-51018219D01*
X59494403Y-51030372D01*
X59489568Y-51079458D01*
X59487715Y-51104580D01*
X59487118Y-51116740D01*
X59486500Y-51141954D01*
X59486500Y-54876000D01*
X59466815Y-54943039D01*
X59414011Y-54988794D01*
X59362500Y-55000000D01*
X35141941Y-55000000D01*
X35129787Y-54999403D01*
X35000000Y-54986620D01*
X34870213Y-54999403D01*
X34858059Y-55000000D01*
X25124500Y-55000000D01*
X25057461Y-54980315D01*
X25011706Y-54927511D01*
X25000500Y-54876000D01*
X25000500Y-30075373D01*
X27745723Y-30075373D01*
X27775881Y-30375160D01*
X27775882Y-30375162D01*
X27845728Y-30668252D01*
X27845733Y-30668266D01*
X27954020Y-30949427D01*
X27954024Y-30949436D01*
X28098825Y-31213665D01*
X28098829Y-31213671D01*
X28277551Y-31456234D01*
X28277554Y-31456238D01*
X28277561Y-31456245D01*
X28487019Y-31672823D01*
X28723478Y-31859553D01*
X28723480Y-31859554D01*
X28723485Y-31859558D01*
X28982730Y-32013109D01*
X29260128Y-32130736D01*
X29550729Y-32210340D01*
X29849347Y-32250500D01*
X29849351Y-32250500D01*
X30075252Y-32250500D01*
X30239164Y-32239526D01*
X30300634Y-32235412D01*
X30595903Y-32175396D01*
X30880537Y-32076560D01*
X31149459Y-31940668D01*
X31397869Y-31770144D01*
X31621333Y-31568032D01*
X31815865Y-31337939D01*
X31977993Y-31083970D01*
X32104823Y-30810658D01*
X32194093Y-30522879D01*
X32244209Y-30225770D01*
X32254277Y-29924631D01*
X32224118Y-29624838D01*
X32154269Y-29331739D01*
X32045977Y-29050566D01*
X31901175Y-28786335D01*
X31722446Y-28543762D01*
X31512980Y-28327176D01*
X31389742Y-28229856D01*
X31276521Y-28140446D01*
X31276517Y-28140443D01*
X31276515Y-28140442D01*
X31017270Y-27986891D01*
X30739872Y-27869264D01*
X30739863Y-27869261D01*
X30449272Y-27789660D01*
X30374616Y-27779620D01*
X30150653Y-27749500D01*
X29924756Y-27749500D01*
X29924748Y-27749500D01*
X29699368Y-27764587D01*
X29699359Y-27764589D01*
X29404094Y-27824604D01*
X29119464Y-27923439D01*
X29119459Y-27923441D01*
X28850546Y-28059328D01*
X28602125Y-28229860D01*
X28378665Y-28431969D01*
X28184132Y-28662064D01*
X28022006Y-28916030D01*
X28022005Y-28916032D01*
X27895181Y-29189333D01*
X27895177Y-29189342D01*
X27895176Y-29189346D01*
X27805907Y-29477118D01*
X27755791Y-29774230D01*
X27745723Y-30075373D01*
X25000500Y-30075373D01*
X25000500Y-25124500D01*
X25020185Y-25057461D01*
X25072989Y-25011706D01*
X25124500Y-25000500D01*
X59362500Y-25000500D01*
X59429539Y-25020185D01*
G37*
%TD.AperFunction*%
%TD*%
%TA.AperFunction,Conductor*%
%TO.N,PLED1*%
G36*
X55018293Y-84503785D02*
G01*
X55030447Y-84504382D01*
X55055640Y-84505000D01*
X57018221Y-84505000D01*
X57030374Y-84505597D01*
X57033442Y-84505899D01*
X57079457Y-84510431D01*
X57104592Y-84512285D01*
X57116745Y-84512882D01*
X57141940Y-84513500D01*
X57141953Y-84513500D01*
X59362500Y-84513500D01*
X59429539Y-84533185D01*
X59475294Y-84585989D01*
X59486500Y-84637500D01*
X59486500Y-87858038D01*
X59487118Y-87883252D01*
X59487715Y-87895406D01*
X59489569Y-87920540D01*
X59496445Y-87990358D01*
X59496706Y-88011626D01*
X59496216Y-88018264D01*
X59495618Y-88030439D01*
X59495000Y-88055655D01*
X59495000Y-90018219D01*
X59494403Y-90030372D01*
X59489568Y-90079458D01*
X59487715Y-90104580D01*
X59487118Y-90116740D01*
X59486500Y-90141954D01*
X59486500Y-94858038D01*
X59487118Y-94883252D01*
X59487715Y-94895406D01*
X59489569Y-94920540D01*
X59496445Y-94990358D01*
X59496706Y-95011626D01*
X59496216Y-95018264D01*
X59495618Y-95030439D01*
X59495000Y-95055655D01*
X59495000Y-97018219D01*
X59494403Y-97030372D01*
X59489568Y-97079458D01*
X59487715Y-97104580D01*
X59487118Y-97116740D01*
X59486500Y-97141954D01*
X59486500Y-110876000D01*
X59466815Y-110943039D01*
X59414011Y-110988794D01*
X59362500Y-111000000D01*
X25124500Y-111000000D01*
X25057461Y-110980315D01*
X25011706Y-110927511D01*
X25000500Y-110876000D01*
X25000500Y-84637500D01*
X25020185Y-84570461D01*
X25072989Y-84524706D01*
X25124500Y-84513500D01*
X45858038Y-84513500D01*
X45858053Y-84513500D01*
X45883246Y-84512882D01*
X45895400Y-84512285D01*
X45920537Y-84510431D01*
X45987848Y-84503801D01*
X46012153Y-84503801D01*
X46079465Y-84510431D01*
X46104599Y-84512285D01*
X46116752Y-84512882D01*
X46141947Y-84513500D01*
X46141960Y-84513500D01*
X54858044Y-84513500D01*
X54858059Y-84513500D01*
X54883252Y-84512882D01*
X54895406Y-84512285D01*
X54920545Y-84510430D01*
X54990363Y-84503552D01*
X55011643Y-84503294D01*
X55018293Y-84503785D01*
G37*
%TD.AperFunction*%
%TD*%
%TA.AperFunction,Conductor*%
%TO.N,PLED12*%
G36*
X96018294Y-84503785D02*
G01*
X96030447Y-84504382D01*
X96055642Y-84505000D01*
X98018221Y-84505000D01*
X98030374Y-84505597D01*
X98033442Y-84505899D01*
X98079457Y-84510431D01*
X98104592Y-84512285D01*
X98116745Y-84512882D01*
X98141940Y-84513500D01*
X98141953Y-84513500D01*
X101858036Y-84513500D01*
X101858053Y-84513500D01*
X101883250Y-84512881D01*
X101895402Y-84512284D01*
X101920534Y-84510431D01*
X101987846Y-84503801D01*
X102012152Y-84503801D01*
X102079465Y-84510431D01*
X102104599Y-84512285D01*
X102116752Y-84512882D01*
X102141947Y-84513500D01*
X102141960Y-84513500D01*
X124875500Y-84513500D01*
X124942539Y-84533185D01*
X124988294Y-84585989D01*
X124999500Y-84637500D01*
X124999500Y-110876000D01*
X124979815Y-110943039D01*
X124927011Y-110988794D01*
X124875500Y-111000000D01*
X90124000Y-111000000D01*
X90056961Y-110980315D01*
X90011206Y-110927511D01*
X90000000Y-110876000D01*
X90000000Y-93141946D01*
X90000597Y-93129792D01*
X90013380Y-93000000D01*
X90000597Y-92870204D01*
X90000000Y-92858051D01*
X90000000Y-84637500D01*
X90019685Y-84570461D01*
X90072489Y-84524706D01*
X90124000Y-84513500D01*
X95858038Y-84513500D01*
X95858053Y-84513500D01*
X95883246Y-84512882D01*
X95895400Y-84512285D01*
X95920537Y-84510431D01*
X95990363Y-84503553D01*
X96011638Y-84503294D01*
X96018294Y-84503785D01*
G37*
%TD.AperFunction*%
%TD*%
%TA.AperFunction,Conductor*%
%TO.N,PLED9*%
G36*
X89429539Y-84533185D02*
G01*
X89475294Y-84585989D01*
X89486500Y-84637500D01*
X89486500Y-92858037D01*
X89487118Y-92883251D01*
X89487715Y-92895405D01*
X89489569Y-92920535D01*
X89496198Y-92987844D01*
X89496198Y-93012150D01*
X89489568Y-93079464D01*
X89487715Y-93104586D01*
X89487118Y-93116746D01*
X89486500Y-93141960D01*
X89486500Y-110876000D01*
X89466815Y-110943039D01*
X89414011Y-110988794D01*
X89362500Y-111000000D01*
X60124000Y-111000000D01*
X60056961Y-110980315D01*
X60011206Y-110927511D01*
X60000000Y-110876000D01*
X60000000Y-97141940D01*
X60000597Y-97129786D01*
X60008500Y-97049543D01*
X60008500Y-95055641D01*
X60009097Y-95043487D01*
X60013380Y-95000000D01*
X60000597Y-94870205D01*
X60000000Y-94858052D01*
X60000000Y-90141940D01*
X60000597Y-90129786D01*
X60008500Y-90049543D01*
X60008500Y-88055641D01*
X60009097Y-88043487D01*
X60013380Y-88000000D01*
X60000597Y-87870205D01*
X60000000Y-87858052D01*
X60000000Y-84637500D01*
X60019685Y-84570461D01*
X60072489Y-84524706D01*
X60124000Y-84513500D01*
X89362500Y-84513500D01*
X89429539Y-84533185D01*
G37*
%TD.AperFunction*%
%TD*%
%TA.AperFunction,Conductor*%
%TO.N,PLED5*%
G36*
X35079455Y-55510430D02*
G01*
X35104594Y-55512285D01*
X35116748Y-55512882D01*
X35141941Y-55513500D01*
X35141956Y-55513500D01*
X59362500Y-55513500D01*
X59429539Y-55533185D01*
X59475294Y-55585989D01*
X59486500Y-55637500D01*
X59486500Y-83876000D01*
X59466815Y-83943039D01*
X59414011Y-83988794D01*
X59362500Y-84000000D01*
X57141940Y-84000000D01*
X57129787Y-83999403D01*
X57049547Y-83991500D01*
X57049544Y-83991500D01*
X55055640Y-83991500D01*
X55043486Y-83990903D01*
X55000000Y-83986620D01*
X54950453Y-83991500D01*
X54870213Y-83999403D01*
X54858059Y-84000000D01*
X46141947Y-84000000D01*
X46129794Y-83999403D01*
X46000000Y-83986620D01*
X45870207Y-83999403D01*
X45858053Y-84000000D01*
X25124500Y-84000000D01*
X25057461Y-83980315D01*
X25011706Y-83927511D01*
X25000500Y-83876000D01*
X25000500Y-55637500D01*
X25020185Y-55570461D01*
X25072989Y-55524706D01*
X25124500Y-55513500D01*
X34858044Y-55513500D01*
X34858059Y-55513500D01*
X34883252Y-55512882D01*
X34895406Y-55512285D01*
X34920545Y-55510430D01*
X34987847Y-55503801D01*
X35012153Y-55503801D01*
X35079455Y-55510430D01*
G37*
%TD.AperFunction*%
%TD*%
%TA.AperFunction,Conductor*%
%TO.N,PLED8*%
G36*
X89429539Y-55533185D02*
G01*
X89475294Y-55585989D01*
X89486500Y-55637500D01*
X89486500Y-83876000D01*
X89466815Y-83943039D01*
X89414011Y-83988794D01*
X89362500Y-84000000D01*
X60124000Y-84000000D01*
X60056961Y-83980315D01*
X60011206Y-83927511D01*
X60000000Y-83876000D01*
X60000000Y-55637500D01*
X60019685Y-55570461D01*
X60072489Y-55524706D01*
X60124000Y-55513500D01*
X89362500Y-55513500D01*
X89429539Y-55533185D01*
G37*
%TD.AperFunction*%
%TD*%
%TA.AperFunction,Conductor*%
%TO.N,PLED11*%
G36*
X118079465Y-55510431D02*
G01*
X118104599Y-55512285D01*
X118116752Y-55512882D01*
X118141947Y-55513500D01*
X118141960Y-55513500D01*
X124875500Y-55513500D01*
X124942539Y-55533185D01*
X124988294Y-55585989D01*
X124999500Y-55637500D01*
X124999500Y-83876000D01*
X124979815Y-83943039D01*
X124927011Y-83988794D01*
X124875500Y-84000000D01*
X102141947Y-84000000D01*
X102129794Y-83999403D01*
X102000000Y-83986620D01*
X101870205Y-83999403D01*
X101858053Y-84000000D01*
X98141940Y-84000000D01*
X98129787Y-83999403D01*
X98049547Y-83991500D01*
X98049544Y-83991500D01*
X96055642Y-83991500D01*
X96043489Y-83990903D01*
X96000000Y-83986620D01*
X95870207Y-83999403D01*
X95858053Y-84000000D01*
X90124000Y-84000000D01*
X90056961Y-83980315D01*
X90011206Y-83927511D01*
X90000000Y-83876000D01*
X90000000Y-55637500D01*
X90019685Y-55570461D01*
X90072489Y-55524706D01*
X90124000Y-55513500D01*
X117858036Y-55513500D01*
X117858053Y-55513500D01*
X117883250Y-55512881D01*
X117895402Y-55512284D01*
X117920534Y-55510431D01*
X117987846Y-55503801D01*
X118012152Y-55503801D01*
X118079465Y-55510431D01*
G37*
%TD.AperFunction*%
%TD*%
M02*
