M48
; DRILL file {KiCad 7.0.11+dfsg-1build4} date Mon 13 Jan 2025 10:22:24 PM CST
; FORMAT={-:-/ absolute / inch / decimal}
; #@! TF.CreationDate,2025-01-13T22:22:24-06:00
; #@! TF.GenerationSoftware,Kicad,Pcbnew,7.0.11+dfsg-1build4
; #@! TF.FileFunction,Plated,1,2,PTH
FMAT,2
INCH
; #@! TA.AperFunction,Plated,PTH,ViaDrill
T1C0.0157
; #@! TA.AperFunction,Plated,PTH,ComponentDrill
T2C0.0315
; #@! TA.AperFunction,Plated,PTH,ComponentDrill
T3C0.0394
; #@! TA.AperFunction,Plated,PTH,ComponentDrill
T4C0.0512
%
G90
G05
T1
X1.2205Y-1.6535
X1.2205Y-1.8504
X1.2205Y-2.0079
X1.2205Y-2.6378
X1.2205Y-2.7953
X1.2205Y-2.9134
X1.2205Y-3.0315
X1.2205Y-3.4646
X1.2205Y-3.5827
X1.2205Y-3.7008
X1.2598Y-1.4961
X1.2598Y-2.2835
X1.2598Y-2.4803
X1.2598Y-3.1496
X1.2598Y-3.3858
X1.2598Y-3.5433
X1.2598Y-3.6614
X1.2598Y-3.7795
X1.2992Y-1.7323
X1.2992Y-2.3622
X1.2992Y-3.4646
X1.3386Y-1.3386
X1.3386Y-2.9528
X1.3386Y-3.4252
X1.3386Y-3.7402
X1.378Y-1.6535
X1.378Y-2.2047
X1.378Y-2.5197
X1.378Y-2.6772
X1.378Y-3.2283
X1.378Y-3.5039
X1.378Y-3.5827
X1.378Y-3.6614
X1.378Y-3.7795
X1.4173Y-1.5354
X1.4173Y-2.3228
X1.4173Y-2.4409
X1.4173Y-3.7402
X1.4567Y-3.1102
X1.4567Y-3.3858
X1.4961Y-1.2205
X1.4961Y-2.0472
X1.4961Y-3.4646
X1.5354Y-2.2441
X1.5354Y-2.3228
X1.5354Y-3.2283
X1.6142Y-1.2205
X1.6142Y-2.0866
X1.6142Y-2.7559
X1.6535Y-2.3622
X1.6535Y-3.7008
X1.6929Y-1.5748
X1.6929Y-1.7323
X1.6929Y-2.7559
X1.6929Y-2.8346
X1.6929Y-3.3858
X1.7323Y-2.9134
X1.7323Y-3.2283
X1.7717Y-1.378
X1.7717Y-1.8504
X1.7717Y-2.5591
X1.7717Y-3.5827
X1.811Y-1.6535
X1.811Y-2.0866
X1.811Y-2.3228
X1.811Y-2.7953
X1.811Y-3.189
X1.811Y-3.3465
X1.811Y-3.7795
X1.8504Y-1.1811
X1.8504Y-2.9528
X1.8504Y-3.4252
X1.8898Y-2.3228
X1.8898Y-3.189
X1.9291Y-1.6929
X1.9291Y-2.7953
X1.9291Y-3.3858
X1.9291Y-3.7008
X1.9291Y-3.7795
X1.9685Y-1.4961
X1.9685Y-1.5748
X1.9685Y-1.8504
X2.0079Y-2.9528
X2.0472Y-1.7717
X2.0472Y-2.7165
X2.0472Y-2.8346
X2.0472Y-3.6614
X2.0472Y-3.7795
X2.0866Y-1.5354
X2.0866Y-2.9921
X2.126Y-1.9685
X2.126Y-3.6614
X2.126Y-3.8189
X2.1654Y-1.4961
X2.1654Y-1.6929
X2.1654Y-2.0472
X2.1654Y-2.6772
X2.1654Y-2.8346
X2.1654Y-3.2283
X2.1654Y-3.4646
X2.1654Y-3.8583
X2.2047Y-1.1811
X2.2047Y-1.3386
X2.2047Y-1.811
X2.2047Y-3.1102
X2.2441Y-2.3228
X2.2441Y-3.3465
X2.2835Y-2.4803
X2.2835Y-2.6378
X2.2835Y-3.189
X2.2835Y-3.4252
X2.2835Y-3.7008
X2.2835Y-3.8976
X2.3228Y-2.0079
X2.3228Y-3.5433
X2.3228Y-3.8189
X2.4409Y-1.2992
X2.4409Y-1.4567
X2.4409Y-1.6142
X2.4409Y-1.7323
X2.4409Y-1.8898
X2.4409Y-2.0079
X2.4409Y-2.6772
X2.4409Y-2.8346
X2.4409Y-2.9528
X2.4409Y-3.0709
X2.4409Y-3.4646
X2.4409Y-3.5827
X2.4409Y-3.7008
X2.4409Y-3.8583
X2.4803Y-2.3622
X2.4803Y-2.5197
X2.4803Y-3.189
X2.5197Y-3.7795
X2.5591Y-1.378
X2.5591Y-1.5748
X2.5591Y-1.7323
X2.5591Y-2.0866
X2.5591Y-2.2441
X2.5591Y-2.4803
X2.5591Y-2.6378
X2.5591Y-3.2283
X2.5591Y-3.5433
X2.5591Y-3.6614
X2.5984Y-1.2205
X2.5984Y-1.8898
X2.5984Y-2.7953
X2.5984Y-2.9528
X2.6378Y-2.3622
X2.6378Y-3.1102
X2.6378Y-3.3858
X2.6378Y-3.5039
X2.6772Y-1.2992
X2.6772Y-2.0079
X2.6772Y-2.126
X2.6772Y-2.2441
X2.7559Y-1.1811
X2.7559Y-3.189
X2.7559Y-3.3858
X2.7559Y-3.4646
X2.7953Y-1.2992
X2.7953Y-2.126
X2.7953Y-2.8346
X2.8346Y-1.5748
X2.8346Y-1.7323
X2.8346Y-2.0472
X2.8346Y-2.3228
X2.8346Y-2.7165
X2.8346Y-2.9528
X2.8346Y-3.7402
X2.874Y-1.2205
X2.874Y-1.7717
X2.874Y-2.2441
X2.874Y-3.3858
X2.9134Y-3.189
X2.9528Y-2.0472
X2.9528Y-2.5197
X2.9528Y-2.8346
X2.9528Y-2.9528
X2.9528Y-3.5827
X2.9921Y-1.811
X2.9921Y-2.2835
X2.9921Y-3.3858
X2.9921Y-3.7795
X3.0315Y-1.6142
X3.0709Y-2.0866
X3.0709Y-2.2441
X3.0709Y-2.7165
X3.0709Y-3.2283
X3.0709Y-3.3858
X3.1102Y-2.9528
X3.1102Y-3.7795
X3.1496Y-1.6929
X3.1496Y-1.811
X3.1496Y-2.6378
X3.1496Y-2.8346
X3.1496Y-3.7008
X3.189Y-1.5354
X3.189Y-3.7795
X3.2283Y-2.7165
X3.2677Y-1.7323
X3.2677Y-1.8898
X3.2677Y-3.6614
X3.3071Y-1.5748
X3.3071Y-2.0472
X3.3071Y-2.2441
X3.3071Y-2.6378
X3.3071Y-2.7953
X3.3071Y-2.9921
X3.3071Y-3.1102
X3.3071Y-3.8189
X3.3465Y-1.2205
X3.3465Y-1.8504
X3.3465Y-2.4016
X3.3465Y-3.3858
X3.3858Y-3.5039
X3.3858Y-3.622
X3.4252Y-1.3386
X3.4252Y-1.4961
X3.4252Y-1.6929
X3.4252Y-1.9291
X3.4252Y-2.126
X3.4252Y-2.2835
X3.4252Y-2.5591
X3.4252Y-3.2283
X3.4252Y-3.4252
X3.4252Y-3.8189
X3.4646Y-1.1811
X3.4646Y-1.811
X3.4646Y-2.4016
X3.4646Y-2.6772
X3.4646Y-2.8346
X3.4646Y-3.0315
X3.4646Y-3.5039
X3.4646Y-3.7402
X3.5039Y-3.6614
X3.5827Y-1.2205
X3.5827Y-1.4961
X3.5827Y-2.4016
X3.5827Y-2.5197
X3.5827Y-2.6772
X3.5827Y-2.7559
X3.5827Y-3.0315
X3.5827Y-3.622
X3.5827Y-3.7402
X3.622Y-1.3386
X3.622Y-1.6142
X3.622Y-2.0079
X3.622Y-2.3228
X3.622Y-2.874
X3.622Y-3.3858
X3.622Y-3.8583
X3.6614Y-1.7717
X3.6614Y-1.8898
X3.6614Y-2.4803
X3.6614Y-3.1496
X3.6614Y-3.5039
X3.6614Y-3.7008
X3.7008Y-1.1811
X3.7008Y-1.2992
X3.7008Y-1.5748
X3.7008Y-2.6772
X3.7008Y-3.8189
X3.7402Y-1.6929
X3.7402Y-2.0866
X3.7402Y-2.7953
X3.7402Y-2.9134
X3.7402Y-3.3858
X3.7795Y-1.811
X3.7795Y-1.9291
X3.7795Y-2.2835
X3.7795Y-2.4016
X3.7795Y-3.0315
X3.7795Y-3.8976
X3.8189Y-3.2283
X3.8189Y-3.4646
X3.8583Y-1.2598
X3.8583Y-3.3465
X3.8976Y-1.9685
X3.8976Y-2.126
X3.8976Y-2.2835
X3.8976Y-3.0709
X3.937Y-1.1417
X3.937Y-2.4016
X3.937Y-3.4646
X3.9764Y-1.2992
X3.9764Y-2.6772
X3.9764Y-2.7559
X3.9764Y-2.8346
X3.9764Y-3.2283
X3.9764Y-3.7795
X4.0157Y-1.6929
X4.0157Y-2.3228
X4.0157Y-3.1102
X4.0157Y-3.3465
X4.0551Y-1.1811
X4.0551Y-1.5748
X4.0551Y-2.0079
X4.0551Y-2.2441
X4.0945Y-1.7323
X4.0945Y-2.874
X4.0945Y-3.2283
X4.1339Y-2.0866
X4.1339Y-2.3228
X4.1339Y-2.7165
X4.1732Y-3.1102
X4.1732Y-3.3858
X4.1732Y-3.7795
X4.2126Y-2.2441
X4.2126Y-3.2283
X4.252Y-1.5748
X4.252Y-1.7717
X4.2913Y-1.4173
X4.2913Y-2.6378
X4.2913Y-2.874
X4.2913Y-3.6614
X4.3307Y-2.5984
X4.3307Y-2.7953
X4.3307Y-3.7795
X4.3701Y-1.8504
X4.3701Y-2.9528
X4.3701Y-3.6614
X4.4094Y-2.7165
X4.4094Y-3.0315
X4.4488Y-1.4961
X4.4488Y-1.6142
X4.4488Y-2.5984
X4.4488Y-2.874
X4.4488Y-3.189
X4.4882Y-1.811
X4.4882Y-2.0079
X4.4882Y-2.2835
X4.4882Y-3.6614
X4.5276Y-1.4173
X4.5276Y-2.7559
X4.5276Y-2.9528
X4.5276Y-3.189
X4.5276Y-3.8189
X4.5669Y-1.6929
X4.5669Y-1.8504
X4.5669Y-3.5039
X4.6063Y-1.4961
X4.6063Y-2.2835
X4.6063Y-2.4016
X4.6063Y-2.5984
X4.6063Y-3.0315
X4.6063Y-3.189
X4.6063Y-3.3858
X4.6457Y-1.4173
X4.6457Y-2.0472
X4.6457Y-2.2047
X4.6457Y-2.5197
X4.6457Y-3.7008
X4.6457Y-3.8976
X4.685Y-1.7717
X4.685Y-1.8898
X4.685Y-2.7953
X4.685Y-2.9134
X4.685Y-3.1496
X4.7244Y-2.5984
X4.7244Y-3.5827
X4.7638Y-1.5748
X4.7638Y-2.2441
X4.7638Y-3.3858
X4.7638Y-3.4646
X4.8031Y-1.4567
X4.8031Y-1.7717
X4.8031Y-1.9291
X4.8031Y-2.0472
X4.8031Y-2.5197
X4.8031Y-2.7559
X4.8031Y-3.937
X4.8425Y-1.5354
X4.8425Y-1.6535
X4.8425Y-2.3622
X4.8425Y-2.874
X4.8425Y-2.9921
X4.8425Y-3.1102
X4.8425Y-3.5433
X4.8425Y-3.7008
T2
X3.7894Y-4.6071
X3.7894Y-4.7071
X3.7894Y-4.8071
T3
X4.002Y-4.7366
X4.002Y-4.8366
X4.1811Y-4.7346
X4.1811Y-4.8346
T4
X2.4787Y-4.7728
X2.6787Y-4.7728
X3.0449Y-4.7693
X3.2449Y-4.7693
T3
G00X1.5492Y-4.6024
M15
G01X1.628Y-4.6024
M16
G05
G00X1.5492Y-4.8386
M15
G01X1.628Y-4.8386
M16
G05
G00X1.7736Y-4.7598
M15
G01X1.7736Y-4.6811
M16
G05
G00X1.9528Y-4.748
M15
G01X1.9528Y-4.6693
M16
G05
G00X2.0984Y-4.5906
M15
G01X2.1772Y-4.5906
M16
G05
G00X2.0984Y-4.8268
M15
G01X2.1772Y-4.8268
M16
G05
M30
