%TF.GenerationSoftware,KiCad,Pcbnew,7.0.11+dfsg-1build4*%
%TF.CreationDate,2025-01-13T22:22:21-06:00*%
%TF.ProjectId,LEDpanel,4c454470-616e-4656-9c2e-6b696361645f,rev?*%
%TF.SameCoordinates,Original*%
%TF.FileFunction,Paste,Top*%
%TF.FilePolarity,Positive*%
%FSLAX46Y46*%
G04 Gerber Fmt 4.6, Leading zero omitted, Abs format (unit mm)*
G04 Created by KiCad (PCBNEW 7.0.11+dfsg-1build4) date 2025-01-13 22:22:21*
%MOMM*%
%LPD*%
G01*
G04 APERTURE LIST*
G04 Aperture macros list*
%AMRoundRect*
0 Rectangle with rounded corners*
0 $1 Rounding radius*
0 $2 $3 $4 $5 $6 $7 $8 $9 X,Y pos of 4 corners*
0 Add a 4 corners polygon primitive as box body*
4,1,4,$2,$3,$4,$5,$6,$7,$8,$9,$2,$3,0*
0 Add four circle primitives for the rounded corners*
1,1,$1+$1,$2,$3*
1,1,$1+$1,$4,$5*
1,1,$1+$1,$6,$7*
1,1,$1+$1,$8,$9*
0 Add four rect primitives between the rounded corners*
20,1,$1+$1,$2,$3,$4,$5,0*
20,1,$1+$1,$4,$5,$6,$7,0*
20,1,$1+$1,$6,$7,$8,$9,0*
20,1,$1+$1,$8,$9,$2,$3,0*%
G04 Aperture macros list end*
%ADD10RoundRect,0.250000X-0.400000X-0.625000X0.400000X-0.625000X0.400000X0.625000X-0.400000X0.625000X0*%
%ADD11RoundRect,0.225000X-0.375000X0.225000X-0.375000X-0.225000X0.375000X-0.225000X0.375000X0.225000X0*%
%ADD12RoundRect,0.250000X-0.625000X0.400000X-0.625000X-0.400000X0.625000X-0.400000X0.625000X0.400000X0*%
%ADD13RoundRect,0.150000X-0.150000X0.825000X-0.150000X-0.825000X0.150000X-0.825000X0.150000X0.825000X0*%
%ADD14RoundRect,0.250000X0.625000X-0.400000X0.625000X0.400000X-0.625000X0.400000X-0.625000X-0.400000X0*%
%ADD15RoundRect,0.250000X0.337500X0.475000X-0.337500X0.475000X-0.337500X-0.475000X0.337500X-0.475000X0*%
%ADD16RoundRect,0.250000X-0.475000X0.337500X-0.475000X-0.337500X0.475000X-0.337500X0.475000X0.337500X0*%
%ADD17R,3.500000X2.700000*%
%ADD18C,5.700000*%
%ADD19RoundRect,0.250000X-0.350000X-0.450000X0.350000X-0.450000X0.350000X0.450000X-0.350000X0.450000X0*%
%ADD20RoundRect,0.250000X-0.850000X-0.350000X0.850000X-0.350000X0.850000X0.350000X-0.850000X0.350000X0*%
%ADD21RoundRect,0.250000X-1.275000X-1.125000X1.275000X-1.125000X1.275000X1.125000X-1.275000X1.125000X0*%
%ADD22RoundRect,0.225000X0.375000X-0.225000X0.375000X0.225000X-0.375000X0.225000X-0.375000X-0.225000X0*%
%ADD23RoundRect,0.249999X1.425001X-0.450001X1.425001X0.450001X-1.425001X0.450001X-1.425001X-0.450001X0*%
G04 APERTURE END LIST*
D10*
%TO.C,R9*%
X74570000Y-106840000D03*
X77670000Y-106840000D03*
%TD*%
%TO.C,R8*%
X74570000Y-104280000D03*
X77670000Y-104280000D03*
%TD*%
D11*
%TO.C,D2*%
X87080000Y-114330000D03*
X87080000Y-117630000D03*
%TD*%
D12*
%TO.C,R5*%
X87070000Y-119400000D03*
X87070000Y-122500000D03*
%TD*%
D10*
%TO.C,R3*%
X40470000Y-104890000D03*
X43570000Y-104890000D03*
%TD*%
%TO.C,R4*%
X40440000Y-102460000D03*
X43540000Y-102460000D03*
%TD*%
D13*
%TO.C,U2*%
X107070000Y-103210000D03*
X105800000Y-103210000D03*
X104530000Y-103210000D03*
X103260000Y-103210000D03*
X103260000Y-108160000D03*
X104530000Y-108160000D03*
X105800000Y-108160000D03*
X107070000Y-108160000D03*
%TD*%
D10*
%TO.C,R18*%
X66000000Y-114130000D03*
X69100000Y-114130000D03*
%TD*%
%TO.C,R12*%
X110340000Y-115350000D03*
X113440000Y-115350000D03*
%TD*%
D14*
%TO.C,R21*%
X96710000Y-111780000D03*
X96710000Y-108680000D03*
%TD*%
D10*
%TO.C,R22*%
X80950000Y-113380000D03*
X84050000Y-113380000D03*
%TD*%
D13*
%TO.C,U1*%
X38485000Y-100535000D03*
X37215000Y-100535000D03*
X35945000Y-100535000D03*
X34675000Y-100535000D03*
X34675000Y-105485000D03*
X35945000Y-105485000D03*
X37215000Y-105485000D03*
X38485000Y-105485000D03*
%TD*%
D15*
%TO.C,C4*%
X32490000Y-102020000D03*
X30415000Y-102020000D03*
%TD*%
D16*
%TO.C,C1*%
X72970000Y-116422500D03*
X72970000Y-118497500D03*
%TD*%
D17*
%TO.C,D5*%
X38650000Y-66350000D03*
X51350000Y-63650000D03*
D18*
X45000000Y-65000000D03*
%TD*%
D10*
%TO.C,R7*%
X74590000Y-101770000D03*
X77690000Y-101770000D03*
%TD*%
D19*
%TO.C,R6*%
X102850000Y-115670000D03*
X104850000Y-115670000D03*
%TD*%
D20*
%TO.C,Q1*%
X51700000Y-102420000D03*
X51700000Y-104700000D03*
D21*
X56325000Y-103175000D03*
X56325000Y-106225000D03*
X59675000Y-103175000D03*
X59675000Y-106225000D03*
D20*
X51700000Y-106980000D03*
%TD*%
D17*
%TO.C,D6*%
X38650000Y-36350000D03*
X51350000Y-33650000D03*
D18*
X45000000Y-35000000D03*
%TD*%
D14*
%TO.C,R17*%
X100820000Y-111830000D03*
X100820000Y-108730000D03*
%TD*%
%TO.C,R15*%
X34590000Y-111790000D03*
X34590000Y-108690000D03*
%TD*%
D17*
%TO.C,D1*%
X38650000Y-92350000D03*
X51350000Y-89650000D03*
D18*
X45000000Y-91000000D03*
%TD*%
D20*
%TO.C,Q2*%
X85450000Y-102550000D03*
X85450000Y-104830000D03*
D21*
X90075000Y-103305000D03*
X90075000Y-106355000D03*
X93425000Y-103305000D03*
X93425000Y-106355000D03*
D20*
X85450000Y-107110000D03*
%TD*%
D10*
%TO.C,R23*%
X60880000Y-114150000D03*
X63980000Y-114150000D03*
%TD*%
D17*
%TO.C,D12*%
X97500000Y-92350000D03*
X110200000Y-89650000D03*
D18*
X103850000Y-91000000D03*
%TD*%
D17*
%TO.C,D11*%
X97500000Y-65000000D03*
X110200000Y-62300000D03*
D18*
X103850000Y-63650000D03*
%TD*%
D14*
%TO.C,R20*%
X62870000Y-111780000D03*
X62870000Y-108680000D03*
%TD*%
D17*
%TO.C,D10*%
X98650000Y-36350000D03*
X111350000Y-33650000D03*
D18*
X105000000Y-35000000D03*
%TD*%
D13*
%TO.C,U3*%
X72325000Y-100805000D03*
X71055000Y-100805000D03*
X69785000Y-100805000D03*
X68515000Y-100805000D03*
X68515000Y-105755000D03*
X69785000Y-105755000D03*
X71055000Y-105755000D03*
X72325000Y-105755000D03*
%TD*%
D17*
%TO.C,D7*%
X68650000Y-37500000D03*
X81350000Y-34800000D03*
D18*
X75000000Y-36150000D03*
%TD*%
D22*
%TO.C,D3*%
X90760000Y-117630000D03*
X90760000Y-114330000D03*
%TD*%
%TO.C,D4*%
X90810000Y-122570000D03*
X90810000Y-119270000D03*
%TD*%
D17*
%TO.C,D8*%
X68650000Y-65200000D03*
X81350000Y-62500000D03*
D18*
X75000000Y-63850000D03*
%TD*%
D10*
%TO.C,R13*%
X110390000Y-118020000D03*
X113490000Y-118020000D03*
%TD*%
D14*
%TO.C,R16*%
X69530000Y-111610000D03*
X69530000Y-108510000D03*
%TD*%
D10*
%TO.C,R2*%
X40470000Y-107350000D03*
X43570000Y-107350000D03*
%TD*%
D23*
%TO.C,R10*%
X82030000Y-107650000D03*
X82030000Y-101550000D03*
%TD*%
D17*
%TO.C,D9*%
X68650000Y-92350000D03*
X81350000Y-89650000D03*
D18*
X75000000Y-91000000D03*
%TD*%
D10*
%TO.C,R19*%
X27130000Y-104490000D03*
X30230000Y-104490000D03*
%TD*%
D23*
%TO.C,R1*%
X47790000Y-106780000D03*
X47790000Y-100680000D03*
%TD*%
D15*
%TO.C,C3*%
X100935000Y-104130000D03*
X98860000Y-104130000D03*
%TD*%
D10*
%TO.C,R11*%
X110490000Y-112810000D03*
X113590000Y-112810000D03*
%TD*%
D15*
%TO.C,C2*%
X65907500Y-106420000D03*
X63832500Y-106420000D03*
%TD*%
D23*
%TO.C,R14*%
X110690000Y-108700000D03*
X110690000Y-102600000D03*
%TD*%
D20*
%TO.C,Q3*%
X114760000Y-103800000D03*
X114760000Y-106080000D03*
D21*
X119385000Y-104555000D03*
X119385000Y-107605000D03*
X122735000Y-104555000D03*
X122735000Y-107605000D03*
D20*
X114760000Y-108360000D03*
%TD*%
M02*
