%TF.GenerationSoftware,KiCad,Pcbnew,7.0.11+dfsg-1build4*%
%TF.CreationDate,2025-01-13T22:22:23-06:00*%
%TF.ProjectId,LEDpanel,4c454470-616e-4656-9c2e-6b696361645f,rev?*%
%TF.SameCoordinates,Original*%
%TF.FileFunction,Drillmap*%
%TF.FilePolarity,Positive*%
%FSLAX45Y45*%
G04 Gerber Fmt 4.5, Leading zero omitted, Abs format (unit mm)*
G04 Created by KiCad (PCBNEW 7.0.11+dfsg-1build4) date 2025-01-13 22:22:23*
%MOMM*%
%LPD*%
G01*
G04 APERTURE LIST*
%ADD10C,0.100000*%
%ADD11C,0.200000*%
%ADD12C,0.400000*%
G04 APERTURE END LIST*
D10*
X12500000Y-2500000D02*
X12500000Y-12500000D01*
X12500000Y-12500000D02*
X2500000Y-12500000D01*
X2500000Y-12500000D02*
X2500000Y-2500000D01*
X2500000Y-2500000D02*
X12500000Y-2500000D01*
D11*
D12*
X2800000Y-2800000D02*
X3200000Y-3200000D01*
X3200000Y-2800000D02*
X2800000Y-3200000D01*
X2800000Y-11800000D02*
X3200000Y-12200000D01*
X3200000Y-11800000D02*
X2800000Y-12200000D01*
X11800000Y-11800000D02*
X12200000Y-12200000D01*
X12200000Y-11800000D02*
X11800000Y-12200000D01*
X11900000Y-2800000D02*
X12300000Y-3200000D01*
X12300000Y-2800000D02*
X11900000Y-3200000D01*
D11*
X2755777Y-12816484D02*
X2755777Y-12616484D01*
X2755777Y-12616484D02*
X2803396Y-12616484D01*
X2803396Y-12616484D02*
X2831967Y-12626008D01*
X2831967Y-12626008D02*
X2851015Y-12645055D01*
X2851015Y-12645055D02*
X2860539Y-12664103D01*
X2860539Y-12664103D02*
X2870062Y-12702198D01*
X2870062Y-12702198D02*
X2870062Y-12730769D01*
X2870062Y-12730769D02*
X2860539Y-12768865D01*
X2860539Y-12768865D02*
X2851015Y-12787912D01*
X2851015Y-12787912D02*
X2831967Y-12806960D01*
X2831967Y-12806960D02*
X2803396Y-12816484D01*
X2803396Y-12816484D02*
X2755777Y-12816484D01*
X2955777Y-12816484D02*
X2955777Y-12683150D01*
X2955777Y-12721246D02*
X2965301Y-12702198D01*
X2965301Y-12702198D02*
X2974824Y-12692674D01*
X2974824Y-12692674D02*
X2993872Y-12683150D01*
X2993872Y-12683150D02*
X3012920Y-12683150D01*
X3079586Y-12816484D02*
X3079586Y-12683150D01*
X3079586Y-12616484D02*
X3070062Y-12626008D01*
X3070062Y-12626008D02*
X3079586Y-12635531D01*
X3079586Y-12635531D02*
X3089110Y-12626008D01*
X3089110Y-12626008D02*
X3079586Y-12616484D01*
X3079586Y-12616484D02*
X3079586Y-12635531D01*
X3203396Y-12816484D02*
X3184348Y-12806960D01*
X3184348Y-12806960D02*
X3174824Y-12787912D01*
X3174824Y-12787912D02*
X3174824Y-12616484D01*
X3308158Y-12816484D02*
X3289110Y-12806960D01*
X3289110Y-12806960D02*
X3279586Y-12787912D01*
X3279586Y-12787912D02*
X3279586Y-12616484D01*
X3536729Y-12816484D02*
X3536729Y-12616484D01*
X3536729Y-12616484D02*
X3603396Y-12759341D01*
X3603396Y-12759341D02*
X3670062Y-12616484D01*
X3670062Y-12616484D02*
X3670062Y-12816484D01*
X3851015Y-12816484D02*
X3851015Y-12711722D01*
X3851015Y-12711722D02*
X3841491Y-12692674D01*
X3841491Y-12692674D02*
X3822443Y-12683150D01*
X3822443Y-12683150D02*
X3784348Y-12683150D01*
X3784348Y-12683150D02*
X3765301Y-12692674D01*
X3851015Y-12806960D02*
X3831967Y-12816484D01*
X3831967Y-12816484D02*
X3784348Y-12816484D01*
X3784348Y-12816484D02*
X3765301Y-12806960D01*
X3765301Y-12806960D02*
X3755777Y-12787912D01*
X3755777Y-12787912D02*
X3755777Y-12768865D01*
X3755777Y-12768865D02*
X3765301Y-12749817D01*
X3765301Y-12749817D02*
X3784348Y-12740293D01*
X3784348Y-12740293D02*
X3831967Y-12740293D01*
X3831967Y-12740293D02*
X3851015Y-12730769D01*
X3946253Y-12683150D02*
X3946253Y-12883150D01*
X3946253Y-12692674D02*
X3965301Y-12683150D01*
X3965301Y-12683150D02*
X4003396Y-12683150D01*
X4003396Y-12683150D02*
X4022443Y-12692674D01*
X4022443Y-12692674D02*
X4031967Y-12702198D01*
X4031967Y-12702198D02*
X4041491Y-12721246D01*
X4041491Y-12721246D02*
X4041491Y-12778388D01*
X4041491Y-12778388D02*
X4031967Y-12797436D01*
X4031967Y-12797436D02*
X4022443Y-12806960D01*
X4022443Y-12806960D02*
X4003396Y-12816484D01*
X4003396Y-12816484D02*
X3965301Y-12816484D01*
X3965301Y-12816484D02*
X3946253Y-12806960D01*
X4127205Y-12797436D02*
X4136729Y-12806960D01*
X4136729Y-12806960D02*
X4127205Y-12816484D01*
X4127205Y-12816484D02*
X4117682Y-12806960D01*
X4117682Y-12806960D02*
X4127205Y-12797436D01*
X4127205Y-12797436D02*
X4127205Y-12816484D01*
X4127205Y-12692674D02*
X4136729Y-12702198D01*
X4136729Y-12702198D02*
X4127205Y-12711722D01*
X4127205Y-12711722D02*
X4117682Y-12702198D01*
X4117682Y-12702198D02*
X4127205Y-12692674D01*
X4127205Y-12692674D02*
X4127205Y-12711722D01*
X2295000Y-13045000D02*
X2495000Y-13245000D01*
X2495000Y-13045000D02*
X2295000Y-13245000D01*
X2841491Y-13103150D02*
X2841491Y-13236484D01*
X2793872Y-13026960D02*
X2746253Y-13169817D01*
X2746253Y-13169817D02*
X2870062Y-13169817D01*
X2946253Y-13217436D02*
X2955777Y-13226960D01*
X2955777Y-13226960D02*
X2946253Y-13236484D01*
X2946253Y-13236484D02*
X2936729Y-13226960D01*
X2936729Y-13226960D02*
X2946253Y-13217436D01*
X2946253Y-13217436D02*
X2946253Y-13236484D01*
X3079586Y-13036484D02*
X3098634Y-13036484D01*
X3098634Y-13036484D02*
X3117682Y-13046008D01*
X3117682Y-13046008D02*
X3127205Y-13055531D01*
X3127205Y-13055531D02*
X3136729Y-13074579D01*
X3136729Y-13074579D02*
X3146253Y-13112674D01*
X3146253Y-13112674D02*
X3146253Y-13160293D01*
X3146253Y-13160293D02*
X3136729Y-13198388D01*
X3136729Y-13198388D02*
X3127205Y-13217436D01*
X3127205Y-13217436D02*
X3117682Y-13226960D01*
X3117682Y-13226960D02*
X3098634Y-13236484D01*
X3098634Y-13236484D02*
X3079586Y-13236484D01*
X3079586Y-13236484D02*
X3060539Y-13226960D01*
X3060539Y-13226960D02*
X3051015Y-13217436D01*
X3051015Y-13217436D02*
X3041491Y-13198388D01*
X3041491Y-13198388D02*
X3031967Y-13160293D01*
X3031967Y-13160293D02*
X3031967Y-13112674D01*
X3031967Y-13112674D02*
X3041491Y-13074579D01*
X3041491Y-13074579D02*
X3051015Y-13055531D01*
X3051015Y-13055531D02*
X3060539Y-13046008D01*
X3060539Y-13046008D02*
X3079586Y-13036484D01*
X3270062Y-13036484D02*
X3289110Y-13036484D01*
X3289110Y-13036484D02*
X3308158Y-13046008D01*
X3308158Y-13046008D02*
X3317682Y-13055531D01*
X3317682Y-13055531D02*
X3327205Y-13074579D01*
X3327205Y-13074579D02*
X3336729Y-13112674D01*
X3336729Y-13112674D02*
X3336729Y-13160293D01*
X3336729Y-13160293D02*
X3327205Y-13198388D01*
X3327205Y-13198388D02*
X3317682Y-13217436D01*
X3317682Y-13217436D02*
X3308158Y-13226960D01*
X3308158Y-13226960D02*
X3289110Y-13236484D01*
X3289110Y-13236484D02*
X3270062Y-13236484D01*
X3270062Y-13236484D02*
X3251015Y-13226960D01*
X3251015Y-13226960D02*
X3241491Y-13217436D01*
X3241491Y-13217436D02*
X3231967Y-13198388D01*
X3231967Y-13198388D02*
X3222443Y-13160293D01*
X3222443Y-13160293D02*
X3222443Y-13112674D01*
X3222443Y-13112674D02*
X3231967Y-13074579D01*
X3231967Y-13074579D02*
X3241491Y-13055531D01*
X3241491Y-13055531D02*
X3251015Y-13046008D01*
X3251015Y-13046008D02*
X3270062Y-13036484D01*
X3460539Y-13036484D02*
X3479586Y-13036484D01*
X3479586Y-13036484D02*
X3498634Y-13046008D01*
X3498634Y-13046008D02*
X3508158Y-13055531D01*
X3508158Y-13055531D02*
X3517682Y-13074579D01*
X3517682Y-13074579D02*
X3527205Y-13112674D01*
X3527205Y-13112674D02*
X3527205Y-13160293D01*
X3527205Y-13160293D02*
X3517682Y-13198388D01*
X3517682Y-13198388D02*
X3508158Y-13217436D01*
X3508158Y-13217436D02*
X3498634Y-13226960D01*
X3498634Y-13226960D02*
X3479586Y-13236484D01*
X3479586Y-13236484D02*
X3460539Y-13236484D01*
X3460539Y-13236484D02*
X3441491Y-13226960D01*
X3441491Y-13226960D02*
X3431967Y-13217436D01*
X3431967Y-13217436D02*
X3422443Y-13198388D01*
X3422443Y-13198388D02*
X3412920Y-13160293D01*
X3412920Y-13160293D02*
X3412920Y-13112674D01*
X3412920Y-13112674D02*
X3422443Y-13074579D01*
X3422443Y-13074579D02*
X3431967Y-13055531D01*
X3431967Y-13055531D02*
X3441491Y-13046008D01*
X3441491Y-13046008D02*
X3460539Y-13036484D01*
X3612920Y-13236484D02*
X3612920Y-13103150D01*
X3612920Y-13122198D02*
X3622443Y-13112674D01*
X3622443Y-13112674D02*
X3641491Y-13103150D01*
X3641491Y-13103150D02*
X3670063Y-13103150D01*
X3670063Y-13103150D02*
X3689110Y-13112674D01*
X3689110Y-13112674D02*
X3698634Y-13131722D01*
X3698634Y-13131722D02*
X3698634Y-13236484D01*
X3698634Y-13131722D02*
X3708158Y-13112674D01*
X3708158Y-13112674D02*
X3727205Y-13103150D01*
X3727205Y-13103150D02*
X3755777Y-13103150D01*
X3755777Y-13103150D02*
X3774824Y-13112674D01*
X3774824Y-13112674D02*
X3784348Y-13131722D01*
X3784348Y-13131722D02*
X3784348Y-13236484D01*
X3879586Y-13236484D02*
X3879586Y-13103150D01*
X3879586Y-13122198D02*
X3889110Y-13112674D01*
X3889110Y-13112674D02*
X3908158Y-13103150D01*
X3908158Y-13103150D02*
X3936729Y-13103150D01*
X3936729Y-13103150D02*
X3955777Y-13112674D01*
X3955777Y-13112674D02*
X3965301Y-13131722D01*
X3965301Y-13131722D02*
X3965301Y-13236484D01*
X3965301Y-13131722D02*
X3974824Y-13112674D01*
X3974824Y-13112674D02*
X3993872Y-13103150D01*
X3993872Y-13103150D02*
X4022443Y-13103150D01*
X4022443Y-13103150D02*
X4041491Y-13112674D01*
X4041491Y-13112674D02*
X4051015Y-13131722D01*
X4051015Y-13131722D02*
X4051015Y-13236484D01*
X4441491Y-13026960D02*
X4270063Y-13284103D01*
X4698634Y-13036484D02*
X4717682Y-13036484D01*
X4717682Y-13036484D02*
X4736729Y-13046008D01*
X4736729Y-13046008D02*
X4746253Y-13055531D01*
X4746253Y-13055531D02*
X4755777Y-13074579D01*
X4755777Y-13074579D02*
X4765301Y-13112674D01*
X4765301Y-13112674D02*
X4765301Y-13160293D01*
X4765301Y-13160293D02*
X4755777Y-13198388D01*
X4755777Y-13198388D02*
X4746253Y-13217436D01*
X4746253Y-13217436D02*
X4736729Y-13226960D01*
X4736729Y-13226960D02*
X4717682Y-13236484D01*
X4717682Y-13236484D02*
X4698634Y-13236484D01*
X4698634Y-13236484D02*
X4679587Y-13226960D01*
X4679587Y-13226960D02*
X4670063Y-13217436D01*
X4670063Y-13217436D02*
X4660539Y-13198388D01*
X4660539Y-13198388D02*
X4651015Y-13160293D01*
X4651015Y-13160293D02*
X4651015Y-13112674D01*
X4651015Y-13112674D02*
X4660539Y-13074579D01*
X4660539Y-13074579D02*
X4670063Y-13055531D01*
X4670063Y-13055531D02*
X4679587Y-13046008D01*
X4679587Y-13046008D02*
X4698634Y-13036484D01*
X4851015Y-13217436D02*
X4860539Y-13226960D01*
X4860539Y-13226960D02*
X4851015Y-13236484D01*
X4851015Y-13236484D02*
X4841491Y-13226960D01*
X4841491Y-13226960D02*
X4851015Y-13217436D01*
X4851015Y-13217436D02*
X4851015Y-13236484D01*
X5051015Y-13236484D02*
X4936729Y-13236484D01*
X4993872Y-13236484D02*
X4993872Y-13036484D01*
X4993872Y-13036484D02*
X4974825Y-13065055D01*
X4974825Y-13065055D02*
X4955777Y-13084103D01*
X4955777Y-13084103D02*
X4936729Y-13093627D01*
X5231968Y-13036484D02*
X5136729Y-13036484D01*
X5136729Y-13036484D02*
X5127206Y-13131722D01*
X5127206Y-13131722D02*
X5136729Y-13122198D01*
X5136729Y-13122198D02*
X5155777Y-13112674D01*
X5155777Y-13112674D02*
X5203396Y-13112674D01*
X5203396Y-13112674D02*
X5222444Y-13122198D01*
X5222444Y-13122198D02*
X5231968Y-13131722D01*
X5231968Y-13131722D02*
X5241491Y-13150769D01*
X5241491Y-13150769D02*
X5241491Y-13198388D01*
X5241491Y-13198388D02*
X5231968Y-13217436D01*
X5231968Y-13217436D02*
X5222444Y-13226960D01*
X5222444Y-13226960D02*
X5203396Y-13236484D01*
X5203396Y-13236484D02*
X5155777Y-13236484D01*
X5155777Y-13236484D02*
X5136729Y-13226960D01*
X5136729Y-13226960D02*
X5127206Y-13217436D01*
X5308158Y-13036484D02*
X5441491Y-13036484D01*
X5441491Y-13036484D02*
X5355777Y-13236484D01*
X5612920Y-13036484D02*
X5517682Y-13036484D01*
X5517682Y-13036484D02*
X5508158Y-13131722D01*
X5508158Y-13131722D02*
X5517682Y-13122198D01*
X5517682Y-13122198D02*
X5536729Y-13112674D01*
X5536729Y-13112674D02*
X5584349Y-13112674D01*
X5584349Y-13112674D02*
X5603396Y-13122198D01*
X5603396Y-13122198D02*
X5612920Y-13131722D01*
X5612920Y-13131722D02*
X5622444Y-13150769D01*
X5622444Y-13150769D02*
X5622444Y-13198388D01*
X5622444Y-13198388D02*
X5612920Y-13217436D01*
X5612920Y-13217436D02*
X5603396Y-13226960D01*
X5603396Y-13226960D02*
X5584349Y-13236484D01*
X5584349Y-13236484D02*
X5536729Y-13236484D01*
X5536729Y-13236484D02*
X5517682Y-13226960D01*
X5517682Y-13226960D02*
X5508158Y-13217436D01*
X5698634Y-13036484D02*
X5698634Y-13074579D01*
X5774825Y-13036484D02*
X5774825Y-13074579D01*
X6070063Y-13312674D02*
X6060539Y-13303150D01*
X6060539Y-13303150D02*
X6041491Y-13274579D01*
X6041491Y-13274579D02*
X6031968Y-13255531D01*
X6031968Y-13255531D02*
X6022444Y-13226960D01*
X6022444Y-13226960D02*
X6012920Y-13179341D01*
X6012920Y-13179341D02*
X6012920Y-13141246D01*
X6012920Y-13141246D02*
X6022444Y-13093627D01*
X6022444Y-13093627D02*
X6031968Y-13065055D01*
X6031968Y-13065055D02*
X6041491Y-13046008D01*
X6041491Y-13046008D02*
X6060539Y-13017436D01*
X6060539Y-13017436D02*
X6070063Y-13007912D01*
X6231968Y-13103150D02*
X6231968Y-13236484D01*
X6184348Y-13026960D02*
X6136729Y-13169817D01*
X6136729Y-13169817D02*
X6260539Y-13169817D01*
X6489110Y-13236484D02*
X6489110Y-13036484D01*
X6574825Y-13236484D02*
X6574825Y-13131722D01*
X6574825Y-13131722D02*
X6565301Y-13112674D01*
X6565301Y-13112674D02*
X6546253Y-13103150D01*
X6546253Y-13103150D02*
X6517682Y-13103150D01*
X6517682Y-13103150D02*
X6498634Y-13112674D01*
X6498634Y-13112674D02*
X6489110Y-13122198D01*
X6698634Y-13236484D02*
X6679587Y-13226960D01*
X6679587Y-13226960D02*
X6670063Y-13217436D01*
X6670063Y-13217436D02*
X6660539Y-13198388D01*
X6660539Y-13198388D02*
X6660539Y-13141246D01*
X6660539Y-13141246D02*
X6670063Y-13122198D01*
X6670063Y-13122198D02*
X6679587Y-13112674D01*
X6679587Y-13112674D02*
X6698634Y-13103150D01*
X6698634Y-13103150D02*
X6727206Y-13103150D01*
X6727206Y-13103150D02*
X6746253Y-13112674D01*
X6746253Y-13112674D02*
X6755777Y-13122198D01*
X6755777Y-13122198D02*
X6765301Y-13141246D01*
X6765301Y-13141246D02*
X6765301Y-13198388D01*
X6765301Y-13198388D02*
X6755777Y-13217436D01*
X6755777Y-13217436D02*
X6746253Y-13226960D01*
X6746253Y-13226960D02*
X6727206Y-13236484D01*
X6727206Y-13236484D02*
X6698634Y-13236484D01*
X6879587Y-13236484D02*
X6860539Y-13226960D01*
X6860539Y-13226960D02*
X6851015Y-13207912D01*
X6851015Y-13207912D02*
X6851015Y-13036484D01*
X7031968Y-13226960D02*
X7012920Y-13236484D01*
X7012920Y-13236484D02*
X6974825Y-13236484D01*
X6974825Y-13236484D02*
X6955777Y-13226960D01*
X6955777Y-13226960D02*
X6946253Y-13207912D01*
X6946253Y-13207912D02*
X6946253Y-13131722D01*
X6946253Y-13131722D02*
X6955777Y-13112674D01*
X6955777Y-13112674D02*
X6974825Y-13103150D01*
X6974825Y-13103150D02*
X7012920Y-13103150D01*
X7012920Y-13103150D02*
X7031968Y-13112674D01*
X7031968Y-13112674D02*
X7041491Y-13131722D01*
X7041491Y-13131722D02*
X7041491Y-13150769D01*
X7041491Y-13150769D02*
X6946253Y-13169817D01*
X7117682Y-13226960D02*
X7136730Y-13236484D01*
X7136730Y-13236484D02*
X7174825Y-13236484D01*
X7174825Y-13236484D02*
X7193872Y-13226960D01*
X7193872Y-13226960D02*
X7203396Y-13207912D01*
X7203396Y-13207912D02*
X7203396Y-13198388D01*
X7203396Y-13198388D02*
X7193872Y-13179341D01*
X7193872Y-13179341D02*
X7174825Y-13169817D01*
X7174825Y-13169817D02*
X7146253Y-13169817D01*
X7146253Y-13169817D02*
X7127206Y-13160293D01*
X7127206Y-13160293D02*
X7117682Y-13141246D01*
X7117682Y-13141246D02*
X7117682Y-13131722D01*
X7117682Y-13131722D02*
X7127206Y-13112674D01*
X7127206Y-13112674D02*
X7146253Y-13103150D01*
X7146253Y-13103150D02*
X7174825Y-13103150D01*
X7174825Y-13103150D02*
X7193872Y-13112674D01*
X7270063Y-13312674D02*
X7279587Y-13303150D01*
X7279587Y-13303150D02*
X7298634Y-13274579D01*
X7298634Y-13274579D02*
X7308158Y-13255531D01*
X7308158Y-13255531D02*
X7317682Y-13226960D01*
X7317682Y-13226960D02*
X7327206Y-13179341D01*
X7327206Y-13179341D02*
X7327206Y-13141246D01*
X7327206Y-13141246D02*
X7317682Y-13093627D01*
X7317682Y-13093627D02*
X7308158Y-13065055D01*
X7308158Y-13065055D02*
X7298634Y-13046008D01*
X7298634Y-13046008D02*
X7279587Y-13017436D01*
X7279587Y-13017436D02*
X7270063Y-13007912D01*
X7631968Y-13312674D02*
X7622444Y-13303150D01*
X7622444Y-13303150D02*
X7603396Y-13274579D01*
X7603396Y-13274579D02*
X7593872Y-13255531D01*
X7593872Y-13255531D02*
X7584349Y-13226960D01*
X7584349Y-13226960D02*
X7574825Y-13179341D01*
X7574825Y-13179341D02*
X7574825Y-13141246D01*
X7574825Y-13141246D02*
X7584349Y-13093627D01*
X7584349Y-13093627D02*
X7593872Y-13065055D01*
X7593872Y-13065055D02*
X7603396Y-13046008D01*
X7603396Y-13046008D02*
X7622444Y-13017436D01*
X7622444Y-13017436D02*
X7631968Y-13007912D01*
X7708158Y-13103150D02*
X7708158Y-13236484D01*
X7708158Y-13122198D02*
X7717682Y-13112674D01*
X7717682Y-13112674D02*
X7736730Y-13103150D01*
X7736730Y-13103150D02*
X7765301Y-13103150D01*
X7765301Y-13103150D02*
X7784349Y-13112674D01*
X7784349Y-13112674D02*
X7793872Y-13131722D01*
X7793872Y-13131722D02*
X7793872Y-13236484D01*
X7917682Y-13236484D02*
X7898634Y-13226960D01*
X7898634Y-13226960D02*
X7889111Y-13217436D01*
X7889111Y-13217436D02*
X7879587Y-13198388D01*
X7879587Y-13198388D02*
X7879587Y-13141246D01*
X7879587Y-13141246D02*
X7889111Y-13122198D01*
X7889111Y-13122198D02*
X7898634Y-13112674D01*
X7898634Y-13112674D02*
X7917682Y-13103150D01*
X7917682Y-13103150D02*
X7946253Y-13103150D01*
X7946253Y-13103150D02*
X7965301Y-13112674D01*
X7965301Y-13112674D02*
X7974825Y-13122198D01*
X7974825Y-13122198D02*
X7984349Y-13141246D01*
X7984349Y-13141246D02*
X7984349Y-13198388D01*
X7984349Y-13198388D02*
X7974825Y-13217436D01*
X7974825Y-13217436D02*
X7965301Y-13226960D01*
X7965301Y-13226960D02*
X7946253Y-13236484D01*
X7946253Y-13236484D02*
X7917682Y-13236484D01*
X8041492Y-13103150D02*
X8117682Y-13103150D01*
X8070063Y-13036484D02*
X8070063Y-13207912D01*
X8070063Y-13207912D02*
X8079587Y-13226960D01*
X8079587Y-13226960D02*
X8098634Y-13236484D01*
X8098634Y-13236484D02*
X8117682Y-13236484D01*
X8336730Y-13103150D02*
X8336730Y-13303150D01*
X8336730Y-13112674D02*
X8355777Y-13103150D01*
X8355777Y-13103150D02*
X8393873Y-13103150D01*
X8393873Y-13103150D02*
X8412920Y-13112674D01*
X8412920Y-13112674D02*
X8422444Y-13122198D01*
X8422444Y-13122198D02*
X8431968Y-13141246D01*
X8431968Y-13141246D02*
X8431968Y-13198388D01*
X8431968Y-13198388D02*
X8422444Y-13217436D01*
X8422444Y-13217436D02*
X8412920Y-13226960D01*
X8412920Y-13226960D02*
X8393873Y-13236484D01*
X8393873Y-13236484D02*
X8355777Y-13236484D01*
X8355777Y-13236484D02*
X8336730Y-13226960D01*
X8546254Y-13236484D02*
X8527206Y-13226960D01*
X8527206Y-13226960D02*
X8517682Y-13207912D01*
X8517682Y-13207912D02*
X8517682Y-13036484D01*
X8708158Y-13236484D02*
X8708158Y-13131722D01*
X8708158Y-13131722D02*
X8698635Y-13112674D01*
X8698635Y-13112674D02*
X8679587Y-13103150D01*
X8679587Y-13103150D02*
X8641492Y-13103150D01*
X8641492Y-13103150D02*
X8622444Y-13112674D01*
X8708158Y-13226960D02*
X8689111Y-13236484D01*
X8689111Y-13236484D02*
X8641492Y-13236484D01*
X8641492Y-13236484D02*
X8622444Y-13226960D01*
X8622444Y-13226960D02*
X8612920Y-13207912D01*
X8612920Y-13207912D02*
X8612920Y-13188865D01*
X8612920Y-13188865D02*
X8622444Y-13169817D01*
X8622444Y-13169817D02*
X8641492Y-13160293D01*
X8641492Y-13160293D02*
X8689111Y-13160293D01*
X8689111Y-13160293D02*
X8708158Y-13150769D01*
X8774825Y-13103150D02*
X8851015Y-13103150D01*
X8803396Y-13036484D02*
X8803396Y-13207912D01*
X8803396Y-13207912D02*
X8812920Y-13226960D01*
X8812920Y-13226960D02*
X8831968Y-13236484D01*
X8831968Y-13236484D02*
X8851015Y-13236484D01*
X8993873Y-13226960D02*
X8974825Y-13236484D01*
X8974825Y-13236484D02*
X8936730Y-13236484D01*
X8936730Y-13236484D02*
X8917682Y-13226960D01*
X8917682Y-13226960D02*
X8908158Y-13207912D01*
X8908158Y-13207912D02*
X8908158Y-13131722D01*
X8908158Y-13131722D02*
X8917682Y-13112674D01*
X8917682Y-13112674D02*
X8936730Y-13103150D01*
X8936730Y-13103150D02*
X8974825Y-13103150D01*
X8974825Y-13103150D02*
X8993873Y-13112674D01*
X8993873Y-13112674D02*
X9003396Y-13131722D01*
X9003396Y-13131722D02*
X9003396Y-13150769D01*
X9003396Y-13150769D02*
X8908158Y-13169817D01*
X9174825Y-13236484D02*
X9174825Y-13036484D01*
X9174825Y-13226960D02*
X9155777Y-13236484D01*
X9155777Y-13236484D02*
X9117682Y-13236484D01*
X9117682Y-13236484D02*
X9098635Y-13226960D01*
X9098635Y-13226960D02*
X9089111Y-13217436D01*
X9089111Y-13217436D02*
X9079587Y-13198388D01*
X9079587Y-13198388D02*
X9079587Y-13141246D01*
X9079587Y-13141246D02*
X9089111Y-13122198D01*
X9089111Y-13122198D02*
X9098635Y-13112674D01*
X9098635Y-13112674D02*
X9117682Y-13103150D01*
X9117682Y-13103150D02*
X9155777Y-13103150D01*
X9155777Y-13103150D02*
X9174825Y-13112674D01*
X9251016Y-13312674D02*
X9260539Y-13303150D01*
X9260539Y-13303150D02*
X9279587Y-13274579D01*
X9279587Y-13274579D02*
X9289111Y-13255531D01*
X9289111Y-13255531D02*
X9298635Y-13226960D01*
X9298635Y-13226960D02*
X9308158Y-13179341D01*
X9308158Y-13179341D02*
X9308158Y-13141246D01*
X9308158Y-13141246D02*
X9298635Y-13093627D01*
X9298635Y-13093627D02*
X9289111Y-13065055D01*
X9289111Y-13065055D02*
X9279587Y-13046008D01*
X9279587Y-13046008D02*
X9260539Y-13017436D01*
X9260539Y-13017436D02*
X9251016Y-13007912D01*
M02*
