%TF.GenerationSoftware,KiCad,Pcbnew,7.0.11+dfsg-1build4*%
%TF.CreationDate,2025-01-13T22:22:21-06:00*%
%TF.ProjectId,LEDpanel,4c454470-616e-4656-9c2e-6b696361645f,rev?*%
%TF.SameCoordinates,Original*%
%TF.FileFunction,Legend,Top*%
%TF.FilePolarity,Positive*%
%FSLAX46Y46*%
G04 Gerber Fmt 4.6, Leading zero omitted, Abs format (unit mm)*
G04 Created by KiCad (PCBNEW 7.0.11+dfsg-1build4) date 2025-01-13 22:22:21*
%MOMM*%
%LPD*%
G01*
G04 APERTURE LIST*
%ADD10C,0.150000*%
%ADD11C,0.120000*%
G04 APERTURE END LIST*
D10*
X50812969Y-92869819D02*
X50336779Y-92869819D01*
X50336779Y-92869819D02*
X50336779Y-91869819D01*
X51146303Y-92346009D02*
X51479636Y-92346009D01*
X51622493Y-92869819D02*
X51146303Y-92869819D01*
X51146303Y-92869819D02*
X51146303Y-91869819D01*
X51146303Y-91869819D02*
X51622493Y-91869819D01*
X52051065Y-92869819D02*
X52051065Y-91869819D01*
X52051065Y-91869819D02*
X52289160Y-91869819D01*
X52289160Y-91869819D02*
X52432017Y-91917438D01*
X52432017Y-91917438D02*
X52527255Y-92012676D01*
X52527255Y-92012676D02*
X52574874Y-92107914D01*
X52574874Y-92107914D02*
X52622493Y-92298390D01*
X52622493Y-92298390D02*
X52622493Y-92441247D01*
X52622493Y-92441247D02*
X52574874Y-92631723D01*
X52574874Y-92631723D02*
X52527255Y-92726961D01*
X52527255Y-92726961D02*
X52432017Y-92822200D01*
X52432017Y-92822200D02*
X52289160Y-92869819D01*
X52289160Y-92869819D02*
X52051065Y-92869819D01*
X53051065Y-92488866D02*
X53812970Y-92488866D01*
X53432017Y-92869819D02*
X53432017Y-92107914D01*
X50812969Y-66869819D02*
X50336779Y-66869819D01*
X50336779Y-66869819D02*
X50336779Y-65869819D01*
X51146303Y-66346009D02*
X51479636Y-66346009D01*
X51622493Y-66869819D02*
X51146303Y-66869819D01*
X51146303Y-66869819D02*
X51146303Y-65869819D01*
X51146303Y-65869819D02*
X51622493Y-65869819D01*
X52051065Y-66869819D02*
X52051065Y-65869819D01*
X52051065Y-65869819D02*
X52289160Y-65869819D01*
X52289160Y-65869819D02*
X52432017Y-65917438D01*
X52432017Y-65917438D02*
X52527255Y-66012676D01*
X52527255Y-66012676D02*
X52574874Y-66107914D01*
X52574874Y-66107914D02*
X52622493Y-66298390D01*
X52622493Y-66298390D02*
X52622493Y-66441247D01*
X52622493Y-66441247D02*
X52574874Y-66631723D01*
X52574874Y-66631723D02*
X52527255Y-66726961D01*
X52527255Y-66726961D02*
X52432017Y-66822200D01*
X52432017Y-66822200D02*
X52289160Y-66869819D01*
X52289160Y-66869819D02*
X52051065Y-66869819D01*
X53051065Y-66488866D02*
X53812970Y-66488866D01*
X53432017Y-66869819D02*
X53432017Y-66107914D01*
X50812969Y-36869819D02*
X50336779Y-36869819D01*
X50336779Y-36869819D02*
X50336779Y-35869819D01*
X51146303Y-36346009D02*
X51479636Y-36346009D01*
X51622493Y-36869819D02*
X51146303Y-36869819D01*
X51146303Y-36869819D02*
X51146303Y-35869819D01*
X51146303Y-35869819D02*
X51622493Y-35869819D01*
X52051065Y-36869819D02*
X52051065Y-35869819D01*
X52051065Y-35869819D02*
X52289160Y-35869819D01*
X52289160Y-35869819D02*
X52432017Y-35917438D01*
X52432017Y-35917438D02*
X52527255Y-36012676D01*
X52527255Y-36012676D02*
X52574874Y-36107914D01*
X52574874Y-36107914D02*
X52622493Y-36298390D01*
X52622493Y-36298390D02*
X52622493Y-36441247D01*
X52622493Y-36441247D02*
X52574874Y-36631723D01*
X52574874Y-36631723D02*
X52527255Y-36726961D01*
X52527255Y-36726961D02*
X52432017Y-36822200D01*
X52432017Y-36822200D02*
X52289160Y-36869819D01*
X52289160Y-36869819D02*
X52051065Y-36869819D01*
X53051065Y-36488866D02*
X53812970Y-36488866D01*
X53432017Y-36869819D02*
X53432017Y-36107914D01*
X80812969Y-37869819D02*
X80336779Y-37869819D01*
X80336779Y-37869819D02*
X80336779Y-36869819D01*
X81146303Y-37346009D02*
X81479636Y-37346009D01*
X81622493Y-37869819D02*
X81146303Y-37869819D01*
X81146303Y-37869819D02*
X81146303Y-36869819D01*
X81146303Y-36869819D02*
X81622493Y-36869819D01*
X82051065Y-37869819D02*
X82051065Y-36869819D01*
X82051065Y-36869819D02*
X82289160Y-36869819D01*
X82289160Y-36869819D02*
X82432017Y-36917438D01*
X82432017Y-36917438D02*
X82527255Y-37012676D01*
X82527255Y-37012676D02*
X82574874Y-37107914D01*
X82574874Y-37107914D02*
X82622493Y-37298390D01*
X82622493Y-37298390D02*
X82622493Y-37441247D01*
X82622493Y-37441247D02*
X82574874Y-37631723D01*
X82574874Y-37631723D02*
X82527255Y-37726961D01*
X82527255Y-37726961D02*
X82432017Y-37822200D01*
X82432017Y-37822200D02*
X82289160Y-37869819D01*
X82289160Y-37869819D02*
X82051065Y-37869819D01*
X83051065Y-37488866D02*
X83812970Y-37488866D01*
X83432017Y-37869819D02*
X83432017Y-37107914D01*
X80812969Y-65869819D02*
X80336779Y-65869819D01*
X80336779Y-65869819D02*
X80336779Y-64869819D01*
X81146303Y-65346009D02*
X81479636Y-65346009D01*
X81622493Y-65869819D02*
X81146303Y-65869819D01*
X81146303Y-65869819D02*
X81146303Y-64869819D01*
X81146303Y-64869819D02*
X81622493Y-64869819D01*
X82051065Y-65869819D02*
X82051065Y-64869819D01*
X82051065Y-64869819D02*
X82289160Y-64869819D01*
X82289160Y-64869819D02*
X82432017Y-64917438D01*
X82432017Y-64917438D02*
X82527255Y-65012676D01*
X82527255Y-65012676D02*
X82574874Y-65107914D01*
X82574874Y-65107914D02*
X82622493Y-65298390D01*
X82622493Y-65298390D02*
X82622493Y-65441247D01*
X82622493Y-65441247D02*
X82574874Y-65631723D01*
X82574874Y-65631723D02*
X82527255Y-65726961D01*
X82527255Y-65726961D02*
X82432017Y-65822200D01*
X82432017Y-65822200D02*
X82289160Y-65869819D01*
X82289160Y-65869819D02*
X82051065Y-65869819D01*
X83051065Y-65488866D02*
X83812970Y-65488866D01*
X83432017Y-65869819D02*
X83432017Y-65107914D01*
X80812969Y-92869819D02*
X80336779Y-92869819D01*
X80336779Y-92869819D02*
X80336779Y-91869819D01*
X81146303Y-92346009D02*
X81479636Y-92346009D01*
X81622493Y-92869819D02*
X81146303Y-92869819D01*
X81146303Y-92869819D02*
X81146303Y-91869819D01*
X81146303Y-91869819D02*
X81622493Y-91869819D01*
X82051065Y-92869819D02*
X82051065Y-91869819D01*
X82051065Y-91869819D02*
X82289160Y-91869819D01*
X82289160Y-91869819D02*
X82432017Y-91917438D01*
X82432017Y-91917438D02*
X82527255Y-92012676D01*
X82527255Y-92012676D02*
X82574874Y-92107914D01*
X82574874Y-92107914D02*
X82622493Y-92298390D01*
X82622493Y-92298390D02*
X82622493Y-92441247D01*
X82622493Y-92441247D02*
X82574874Y-92631723D01*
X82574874Y-92631723D02*
X82527255Y-92726961D01*
X82527255Y-92726961D02*
X82432017Y-92822200D01*
X82432017Y-92822200D02*
X82289160Y-92869819D01*
X82289160Y-92869819D02*
X82051065Y-92869819D01*
X83051065Y-92488866D02*
X83812970Y-92488866D01*
X83432017Y-92869819D02*
X83432017Y-92107914D01*
X109812969Y-92869819D02*
X109336779Y-92869819D01*
X109336779Y-92869819D02*
X109336779Y-91869819D01*
X110146303Y-92346009D02*
X110479636Y-92346009D01*
X110622493Y-92869819D02*
X110146303Y-92869819D01*
X110146303Y-92869819D02*
X110146303Y-91869819D01*
X110146303Y-91869819D02*
X110622493Y-91869819D01*
X111051065Y-92869819D02*
X111051065Y-91869819D01*
X111051065Y-91869819D02*
X111289160Y-91869819D01*
X111289160Y-91869819D02*
X111432017Y-91917438D01*
X111432017Y-91917438D02*
X111527255Y-92012676D01*
X111527255Y-92012676D02*
X111574874Y-92107914D01*
X111574874Y-92107914D02*
X111622493Y-92298390D01*
X111622493Y-92298390D02*
X111622493Y-92441247D01*
X111622493Y-92441247D02*
X111574874Y-92631723D01*
X111574874Y-92631723D02*
X111527255Y-92726961D01*
X111527255Y-92726961D02*
X111432017Y-92822200D01*
X111432017Y-92822200D02*
X111289160Y-92869819D01*
X111289160Y-92869819D02*
X111051065Y-92869819D01*
X112051065Y-92488866D02*
X112812970Y-92488866D01*
X112432017Y-92869819D02*
X112432017Y-92107914D01*
X109812969Y-65869819D02*
X109336779Y-65869819D01*
X109336779Y-65869819D02*
X109336779Y-64869819D01*
X110146303Y-65346009D02*
X110479636Y-65346009D01*
X110622493Y-65869819D02*
X110146303Y-65869819D01*
X110146303Y-65869819D02*
X110146303Y-64869819D01*
X110146303Y-64869819D02*
X110622493Y-64869819D01*
X111051065Y-65869819D02*
X111051065Y-64869819D01*
X111051065Y-64869819D02*
X111289160Y-64869819D01*
X111289160Y-64869819D02*
X111432017Y-64917438D01*
X111432017Y-64917438D02*
X111527255Y-65012676D01*
X111527255Y-65012676D02*
X111574874Y-65107914D01*
X111574874Y-65107914D02*
X111622493Y-65298390D01*
X111622493Y-65298390D02*
X111622493Y-65441247D01*
X111622493Y-65441247D02*
X111574874Y-65631723D01*
X111574874Y-65631723D02*
X111527255Y-65726961D01*
X111527255Y-65726961D02*
X111432017Y-65822200D01*
X111432017Y-65822200D02*
X111289160Y-65869819D01*
X111289160Y-65869819D02*
X111051065Y-65869819D01*
X112051065Y-65488866D02*
X112812970Y-65488866D01*
X112432017Y-65869819D02*
X112432017Y-65107914D01*
X110812969Y-36869819D02*
X110336779Y-36869819D01*
X110336779Y-36869819D02*
X110336779Y-35869819D01*
X111146303Y-36346009D02*
X111479636Y-36346009D01*
X111622493Y-36869819D02*
X111146303Y-36869819D01*
X111146303Y-36869819D02*
X111146303Y-35869819D01*
X111146303Y-35869819D02*
X111622493Y-35869819D01*
X112051065Y-36869819D02*
X112051065Y-35869819D01*
X112051065Y-35869819D02*
X112289160Y-35869819D01*
X112289160Y-35869819D02*
X112432017Y-35917438D01*
X112432017Y-35917438D02*
X112527255Y-36012676D01*
X112527255Y-36012676D02*
X112574874Y-36107914D01*
X112574874Y-36107914D02*
X112622493Y-36298390D01*
X112622493Y-36298390D02*
X112622493Y-36441247D01*
X112622493Y-36441247D02*
X112574874Y-36631723D01*
X112574874Y-36631723D02*
X112527255Y-36726961D01*
X112527255Y-36726961D02*
X112432017Y-36822200D01*
X112432017Y-36822200D02*
X112289160Y-36869819D01*
X112289160Y-36869819D02*
X112051065Y-36869819D01*
X113051065Y-36488866D02*
X113812970Y-36488866D01*
X113432017Y-36869819D02*
X113432017Y-36107914D01*
X97812969Y-39869819D02*
X97336779Y-39869819D01*
X97336779Y-39869819D02*
X97336779Y-38869819D01*
X98146303Y-39346009D02*
X98479636Y-39346009D01*
X98622493Y-39869819D02*
X98146303Y-39869819D01*
X98146303Y-39869819D02*
X98146303Y-38869819D01*
X98146303Y-38869819D02*
X98622493Y-38869819D01*
X99051065Y-39869819D02*
X99051065Y-38869819D01*
X99051065Y-38869819D02*
X99289160Y-38869819D01*
X99289160Y-38869819D02*
X99432017Y-38917438D01*
X99432017Y-38917438D02*
X99527255Y-39012676D01*
X99527255Y-39012676D02*
X99574874Y-39107914D01*
X99574874Y-39107914D02*
X99622493Y-39298390D01*
X99622493Y-39298390D02*
X99622493Y-39441247D01*
X99622493Y-39441247D02*
X99574874Y-39631723D01*
X99574874Y-39631723D02*
X99527255Y-39726961D01*
X99527255Y-39726961D02*
X99432017Y-39822200D01*
X99432017Y-39822200D02*
X99289160Y-39869819D01*
X99289160Y-39869819D02*
X99051065Y-39869819D01*
X100051065Y-39488866D02*
X100812970Y-39488866D01*
X96812969Y-95869819D02*
X96336779Y-95869819D01*
X96336779Y-95869819D02*
X96336779Y-94869819D01*
X97146303Y-95346009D02*
X97479636Y-95346009D01*
X97622493Y-95869819D02*
X97146303Y-95869819D01*
X97146303Y-95869819D02*
X97146303Y-94869819D01*
X97146303Y-94869819D02*
X97622493Y-94869819D01*
X98051065Y-95869819D02*
X98051065Y-94869819D01*
X98051065Y-94869819D02*
X98289160Y-94869819D01*
X98289160Y-94869819D02*
X98432017Y-94917438D01*
X98432017Y-94917438D02*
X98527255Y-95012676D01*
X98527255Y-95012676D02*
X98574874Y-95107914D01*
X98574874Y-95107914D02*
X98622493Y-95298390D01*
X98622493Y-95298390D02*
X98622493Y-95441247D01*
X98622493Y-95441247D02*
X98574874Y-95631723D01*
X98574874Y-95631723D02*
X98527255Y-95726961D01*
X98527255Y-95726961D02*
X98432017Y-95822200D01*
X98432017Y-95822200D02*
X98289160Y-95869819D01*
X98289160Y-95869819D02*
X98051065Y-95869819D01*
X99051065Y-95488866D02*
X99812970Y-95488866D01*
X96812969Y-68869819D02*
X96336779Y-68869819D01*
X96336779Y-68869819D02*
X96336779Y-67869819D01*
X97146303Y-68346009D02*
X97479636Y-68346009D01*
X97622493Y-68869819D02*
X97146303Y-68869819D01*
X97146303Y-68869819D02*
X97146303Y-67869819D01*
X97146303Y-67869819D02*
X97622493Y-67869819D01*
X98051065Y-68869819D02*
X98051065Y-67869819D01*
X98051065Y-67869819D02*
X98289160Y-67869819D01*
X98289160Y-67869819D02*
X98432017Y-67917438D01*
X98432017Y-67917438D02*
X98527255Y-68012676D01*
X98527255Y-68012676D02*
X98574874Y-68107914D01*
X98574874Y-68107914D02*
X98622493Y-68298390D01*
X98622493Y-68298390D02*
X98622493Y-68441247D01*
X98622493Y-68441247D02*
X98574874Y-68631723D01*
X98574874Y-68631723D02*
X98527255Y-68726961D01*
X98527255Y-68726961D02*
X98432017Y-68822200D01*
X98432017Y-68822200D02*
X98289160Y-68869819D01*
X98289160Y-68869819D02*
X98051065Y-68869819D01*
X99051065Y-68488866D02*
X99812970Y-68488866D01*
X67812969Y-68869819D02*
X67336779Y-68869819D01*
X67336779Y-68869819D02*
X67336779Y-67869819D01*
X68146303Y-68346009D02*
X68479636Y-68346009D01*
X68622493Y-68869819D02*
X68146303Y-68869819D01*
X68146303Y-68869819D02*
X68146303Y-67869819D01*
X68146303Y-67869819D02*
X68622493Y-67869819D01*
X69051065Y-68869819D02*
X69051065Y-67869819D01*
X69051065Y-67869819D02*
X69289160Y-67869819D01*
X69289160Y-67869819D02*
X69432017Y-67917438D01*
X69432017Y-67917438D02*
X69527255Y-68012676D01*
X69527255Y-68012676D02*
X69574874Y-68107914D01*
X69574874Y-68107914D02*
X69622493Y-68298390D01*
X69622493Y-68298390D02*
X69622493Y-68441247D01*
X69622493Y-68441247D02*
X69574874Y-68631723D01*
X69574874Y-68631723D02*
X69527255Y-68726961D01*
X69527255Y-68726961D02*
X69432017Y-68822200D01*
X69432017Y-68822200D02*
X69289160Y-68869819D01*
X69289160Y-68869819D02*
X69051065Y-68869819D01*
X70051065Y-68488866D02*
X70812970Y-68488866D01*
X67812969Y-95869819D02*
X67336779Y-95869819D01*
X67336779Y-95869819D02*
X67336779Y-94869819D01*
X68146303Y-95346009D02*
X68479636Y-95346009D01*
X68622493Y-95869819D02*
X68146303Y-95869819D01*
X68146303Y-95869819D02*
X68146303Y-94869819D01*
X68146303Y-94869819D02*
X68622493Y-94869819D01*
X69051065Y-95869819D02*
X69051065Y-94869819D01*
X69051065Y-94869819D02*
X69289160Y-94869819D01*
X69289160Y-94869819D02*
X69432017Y-94917438D01*
X69432017Y-94917438D02*
X69527255Y-95012676D01*
X69527255Y-95012676D02*
X69574874Y-95107914D01*
X69574874Y-95107914D02*
X69622493Y-95298390D01*
X69622493Y-95298390D02*
X69622493Y-95441247D01*
X69622493Y-95441247D02*
X69574874Y-95631723D01*
X69574874Y-95631723D02*
X69527255Y-95726961D01*
X69527255Y-95726961D02*
X69432017Y-95822200D01*
X69432017Y-95822200D02*
X69289160Y-95869819D01*
X69289160Y-95869819D02*
X69051065Y-95869819D01*
X70051065Y-95488866D02*
X70812970Y-95488866D01*
X37812969Y-95869819D02*
X37336779Y-95869819D01*
X37336779Y-95869819D02*
X37336779Y-94869819D01*
X38146303Y-95346009D02*
X38479636Y-95346009D01*
X38622493Y-95869819D02*
X38146303Y-95869819D01*
X38146303Y-95869819D02*
X38146303Y-94869819D01*
X38146303Y-94869819D02*
X38622493Y-94869819D01*
X39051065Y-95869819D02*
X39051065Y-94869819D01*
X39051065Y-94869819D02*
X39289160Y-94869819D01*
X39289160Y-94869819D02*
X39432017Y-94917438D01*
X39432017Y-94917438D02*
X39527255Y-95012676D01*
X39527255Y-95012676D02*
X39574874Y-95107914D01*
X39574874Y-95107914D02*
X39622493Y-95298390D01*
X39622493Y-95298390D02*
X39622493Y-95441247D01*
X39622493Y-95441247D02*
X39574874Y-95631723D01*
X39574874Y-95631723D02*
X39527255Y-95726961D01*
X39527255Y-95726961D02*
X39432017Y-95822200D01*
X39432017Y-95822200D02*
X39289160Y-95869819D01*
X39289160Y-95869819D02*
X39051065Y-95869819D01*
X40051065Y-95488866D02*
X40812970Y-95488866D01*
X37812969Y-69869819D02*
X37336779Y-69869819D01*
X37336779Y-69869819D02*
X37336779Y-68869819D01*
X38146303Y-69346009D02*
X38479636Y-69346009D01*
X38622493Y-69869819D02*
X38146303Y-69869819D01*
X38146303Y-69869819D02*
X38146303Y-68869819D01*
X38146303Y-68869819D02*
X38622493Y-68869819D01*
X39051065Y-69869819D02*
X39051065Y-68869819D01*
X39051065Y-68869819D02*
X39289160Y-68869819D01*
X39289160Y-68869819D02*
X39432017Y-68917438D01*
X39432017Y-68917438D02*
X39527255Y-69012676D01*
X39527255Y-69012676D02*
X39574874Y-69107914D01*
X39574874Y-69107914D02*
X39622493Y-69298390D01*
X39622493Y-69298390D02*
X39622493Y-69441247D01*
X39622493Y-69441247D02*
X39574874Y-69631723D01*
X39574874Y-69631723D02*
X39527255Y-69726961D01*
X39527255Y-69726961D02*
X39432017Y-69822200D01*
X39432017Y-69822200D02*
X39289160Y-69869819D01*
X39289160Y-69869819D02*
X39051065Y-69869819D01*
X40051065Y-69488866D02*
X40812970Y-69488866D01*
X37812969Y-39869819D02*
X37336779Y-39869819D01*
X37336779Y-39869819D02*
X37336779Y-38869819D01*
X38146303Y-39346009D02*
X38479636Y-39346009D01*
X38622493Y-39869819D02*
X38146303Y-39869819D01*
X38146303Y-39869819D02*
X38146303Y-38869819D01*
X38146303Y-38869819D02*
X38622493Y-38869819D01*
X39051065Y-39869819D02*
X39051065Y-38869819D01*
X39051065Y-38869819D02*
X39289160Y-38869819D01*
X39289160Y-38869819D02*
X39432017Y-38917438D01*
X39432017Y-38917438D02*
X39527255Y-39012676D01*
X39527255Y-39012676D02*
X39574874Y-39107914D01*
X39574874Y-39107914D02*
X39622493Y-39298390D01*
X39622493Y-39298390D02*
X39622493Y-39441247D01*
X39622493Y-39441247D02*
X39574874Y-39631723D01*
X39574874Y-39631723D02*
X39527255Y-39726961D01*
X39527255Y-39726961D02*
X39432017Y-39822200D01*
X39432017Y-39822200D02*
X39289160Y-39869819D01*
X39289160Y-39869819D02*
X39051065Y-39869819D01*
X40051065Y-39488866D02*
X40812970Y-39488866D01*
X67812969Y-40869819D02*
X67336779Y-40869819D01*
X67336779Y-40869819D02*
X67336779Y-39869819D01*
X68146303Y-40346009D02*
X68479636Y-40346009D01*
X68622493Y-40869819D02*
X68146303Y-40869819D01*
X68146303Y-40869819D02*
X68146303Y-39869819D01*
X68146303Y-39869819D02*
X68622493Y-39869819D01*
X69051065Y-40869819D02*
X69051065Y-39869819D01*
X69051065Y-39869819D02*
X69289160Y-39869819D01*
X69289160Y-39869819D02*
X69432017Y-39917438D01*
X69432017Y-39917438D02*
X69527255Y-40012676D01*
X69527255Y-40012676D02*
X69574874Y-40107914D01*
X69574874Y-40107914D02*
X69622493Y-40298390D01*
X69622493Y-40298390D02*
X69622493Y-40441247D01*
X69622493Y-40441247D02*
X69574874Y-40631723D01*
X69574874Y-40631723D02*
X69527255Y-40726961D01*
X69527255Y-40726961D02*
X69432017Y-40822200D01*
X69432017Y-40822200D02*
X69289160Y-40869819D01*
X69289160Y-40869819D02*
X69051065Y-40869819D01*
X70051065Y-40488866D02*
X70812970Y-40488866D01*
X65908207Y-26554580D02*
X65860588Y-26602200D01*
X65860588Y-26602200D02*
X65717731Y-26649819D01*
X65717731Y-26649819D02*
X65622493Y-26649819D01*
X65622493Y-26649819D02*
X65479636Y-26602200D01*
X65479636Y-26602200D02*
X65384398Y-26506961D01*
X65384398Y-26506961D02*
X65336779Y-26411723D01*
X65336779Y-26411723D02*
X65289160Y-26221247D01*
X65289160Y-26221247D02*
X65289160Y-26078390D01*
X65289160Y-26078390D02*
X65336779Y-25887914D01*
X65336779Y-25887914D02*
X65384398Y-25792676D01*
X65384398Y-25792676D02*
X65479636Y-25697438D01*
X65479636Y-25697438D02*
X65622493Y-25649819D01*
X65622493Y-25649819D02*
X65717731Y-25649819D01*
X65717731Y-25649819D02*
X65860588Y-25697438D01*
X65860588Y-25697438D02*
X65908207Y-25745057D01*
X66527255Y-25649819D02*
X66717731Y-25649819D01*
X66717731Y-25649819D02*
X66812969Y-25697438D01*
X66812969Y-25697438D02*
X66908207Y-25792676D01*
X66908207Y-25792676D02*
X66955826Y-25983152D01*
X66955826Y-25983152D02*
X66955826Y-26316485D01*
X66955826Y-26316485D02*
X66908207Y-26506961D01*
X66908207Y-26506961D02*
X66812969Y-26602200D01*
X66812969Y-26602200D02*
X66717731Y-26649819D01*
X66717731Y-26649819D02*
X66527255Y-26649819D01*
X66527255Y-26649819D02*
X66432017Y-26602200D01*
X66432017Y-26602200D02*
X66336779Y-26506961D01*
X66336779Y-26506961D02*
X66289160Y-26316485D01*
X66289160Y-26316485D02*
X66289160Y-25983152D01*
X66289160Y-25983152D02*
X66336779Y-25792676D01*
X66336779Y-25792676D02*
X66432017Y-25697438D01*
X66432017Y-25697438D02*
X66527255Y-25649819D01*
X67717731Y-26126009D02*
X67860588Y-26173628D01*
X67860588Y-26173628D02*
X67908207Y-26221247D01*
X67908207Y-26221247D02*
X67955826Y-26316485D01*
X67955826Y-26316485D02*
X67955826Y-26459342D01*
X67955826Y-26459342D02*
X67908207Y-26554580D01*
X67908207Y-26554580D02*
X67860588Y-26602200D01*
X67860588Y-26602200D02*
X67765350Y-26649819D01*
X67765350Y-26649819D02*
X67384398Y-26649819D01*
X67384398Y-26649819D02*
X67384398Y-25649819D01*
X67384398Y-25649819D02*
X67717731Y-25649819D01*
X67717731Y-25649819D02*
X67812969Y-25697438D01*
X67812969Y-25697438D02*
X67860588Y-25745057D01*
X67860588Y-25745057D02*
X67908207Y-25840295D01*
X67908207Y-25840295D02*
X67908207Y-25935533D01*
X67908207Y-25935533D02*
X67860588Y-26030771D01*
X67860588Y-26030771D02*
X67812969Y-26078390D01*
X67812969Y-26078390D02*
X67717731Y-26126009D01*
X67717731Y-26126009D02*
X67384398Y-26126009D01*
X69670112Y-26649819D02*
X69098684Y-26649819D01*
X69384398Y-26649819D02*
X69384398Y-25649819D01*
X69384398Y-25649819D02*
X69289160Y-25792676D01*
X69289160Y-25792676D02*
X69193922Y-25887914D01*
X69193922Y-25887914D02*
X69098684Y-25935533D01*
X70003446Y-25649819D02*
X70241541Y-26649819D01*
X70241541Y-26649819D02*
X70432017Y-25935533D01*
X70432017Y-25935533D02*
X70622493Y-26649819D01*
X70622493Y-26649819D02*
X70860589Y-25649819D01*
X71955826Y-25602200D02*
X71098684Y-26887914D01*
X72193922Y-25649819D02*
X72812969Y-25649819D01*
X72812969Y-25649819D02*
X72479636Y-26030771D01*
X72479636Y-26030771D02*
X72622493Y-26030771D01*
X72622493Y-26030771D02*
X72717731Y-26078390D01*
X72717731Y-26078390D02*
X72765350Y-26126009D01*
X72765350Y-26126009D02*
X72812969Y-26221247D01*
X72812969Y-26221247D02*
X72812969Y-26459342D01*
X72812969Y-26459342D02*
X72765350Y-26554580D01*
X72765350Y-26554580D02*
X72717731Y-26602200D01*
X72717731Y-26602200D02*
X72622493Y-26649819D01*
X72622493Y-26649819D02*
X72336779Y-26649819D01*
X72336779Y-26649819D02*
X72241541Y-26602200D01*
X72241541Y-26602200D02*
X72193922Y-26554580D01*
X73146303Y-25649819D02*
X73384398Y-26649819D01*
X73384398Y-26649819D02*
X73574874Y-25935533D01*
X73574874Y-25935533D02*
X73765350Y-26649819D01*
X73765350Y-26649819D02*
X74003446Y-25649819D01*
X75622493Y-26649819D02*
X75146303Y-26649819D01*
X75146303Y-26649819D02*
X75146303Y-25649819D01*
X75955827Y-26126009D02*
X76289160Y-26126009D01*
X76432017Y-26649819D02*
X75955827Y-26649819D01*
X75955827Y-26649819D02*
X75955827Y-25649819D01*
X75955827Y-25649819D02*
X76432017Y-25649819D01*
X76860589Y-26649819D02*
X76860589Y-25649819D01*
X76860589Y-25649819D02*
X77098684Y-25649819D01*
X77098684Y-25649819D02*
X77241541Y-25697438D01*
X77241541Y-25697438D02*
X77336779Y-25792676D01*
X77336779Y-25792676D02*
X77384398Y-25887914D01*
X77384398Y-25887914D02*
X77432017Y-26078390D01*
X77432017Y-26078390D02*
X77432017Y-26221247D01*
X77432017Y-26221247D02*
X77384398Y-26411723D01*
X77384398Y-26411723D02*
X77336779Y-26506961D01*
X77336779Y-26506961D02*
X77241541Y-26602200D01*
X77241541Y-26602200D02*
X77098684Y-26649819D01*
X77098684Y-26649819D02*
X76860589Y-26649819D01*
X78479637Y-25649819D02*
X79051065Y-25649819D01*
X78765351Y-26649819D02*
X78765351Y-25649819D01*
X79384399Y-26126009D02*
X79717732Y-26126009D01*
X79860589Y-26649819D02*
X79384399Y-26649819D01*
X79384399Y-26649819D02*
X79384399Y-25649819D01*
X79384399Y-25649819D02*
X79860589Y-25649819D01*
X80241542Y-26602200D02*
X80384399Y-26649819D01*
X80384399Y-26649819D02*
X80622494Y-26649819D01*
X80622494Y-26649819D02*
X80717732Y-26602200D01*
X80717732Y-26602200D02*
X80765351Y-26554580D01*
X80765351Y-26554580D02*
X80812970Y-26459342D01*
X80812970Y-26459342D02*
X80812970Y-26364104D01*
X80812970Y-26364104D02*
X80765351Y-26268866D01*
X80765351Y-26268866D02*
X80717732Y-26221247D01*
X80717732Y-26221247D02*
X80622494Y-26173628D01*
X80622494Y-26173628D02*
X80432018Y-26126009D01*
X80432018Y-26126009D02*
X80336780Y-26078390D01*
X80336780Y-26078390D02*
X80289161Y-26030771D01*
X80289161Y-26030771D02*
X80241542Y-25935533D01*
X80241542Y-25935533D02*
X80241542Y-25840295D01*
X80241542Y-25840295D02*
X80289161Y-25745057D01*
X80289161Y-25745057D02*
X80336780Y-25697438D01*
X80336780Y-25697438D02*
X80432018Y-25649819D01*
X80432018Y-25649819D02*
X80670113Y-25649819D01*
X80670113Y-25649819D02*
X80812970Y-25697438D01*
X81098685Y-25649819D02*
X81670113Y-25649819D01*
X81384399Y-26649819D02*
X81384399Y-25649819D01*
X82765352Y-26649819D02*
X82765352Y-25649819D01*
X82765352Y-25649819D02*
X83146304Y-25649819D01*
X83146304Y-25649819D02*
X83241542Y-25697438D01*
X83241542Y-25697438D02*
X83289161Y-25745057D01*
X83289161Y-25745057D02*
X83336780Y-25840295D01*
X83336780Y-25840295D02*
X83336780Y-25983152D01*
X83336780Y-25983152D02*
X83289161Y-26078390D01*
X83289161Y-26078390D02*
X83241542Y-26126009D01*
X83241542Y-26126009D02*
X83146304Y-26173628D01*
X83146304Y-26173628D02*
X82765352Y-26173628D01*
X83717733Y-26364104D02*
X84193923Y-26364104D01*
X83622495Y-26649819D02*
X83955828Y-25649819D01*
X83955828Y-25649819D02*
X84289161Y-26649819D01*
X84622495Y-26649819D02*
X84622495Y-25649819D01*
X84622495Y-25649819D02*
X85193923Y-26649819D01*
X85193923Y-26649819D02*
X85193923Y-25649819D01*
X85670114Y-26126009D02*
X86003447Y-26126009D01*
X86146304Y-26649819D02*
X85670114Y-26649819D01*
X85670114Y-26649819D02*
X85670114Y-25649819D01*
X85670114Y-25649819D02*
X86146304Y-25649819D01*
X87051066Y-26649819D02*
X86574876Y-26649819D01*
X86574876Y-26649819D02*
X86574876Y-25649819D01*
X65670112Y-27736009D02*
X65812969Y-27783628D01*
X65812969Y-27783628D02*
X65860588Y-27831247D01*
X65860588Y-27831247D02*
X65908207Y-27926485D01*
X65908207Y-27926485D02*
X65908207Y-28069342D01*
X65908207Y-28069342D02*
X65860588Y-28164580D01*
X65860588Y-28164580D02*
X65812969Y-28212200D01*
X65812969Y-28212200D02*
X65717731Y-28259819D01*
X65717731Y-28259819D02*
X65336779Y-28259819D01*
X65336779Y-28259819D02*
X65336779Y-27259819D01*
X65336779Y-27259819D02*
X65670112Y-27259819D01*
X65670112Y-27259819D02*
X65765350Y-27307438D01*
X65765350Y-27307438D02*
X65812969Y-27355057D01*
X65812969Y-27355057D02*
X65860588Y-27450295D01*
X65860588Y-27450295D02*
X65860588Y-27545533D01*
X65860588Y-27545533D02*
X65812969Y-27640771D01*
X65812969Y-27640771D02*
X65765350Y-27688390D01*
X65765350Y-27688390D02*
X65670112Y-27736009D01*
X65670112Y-27736009D02*
X65336779Y-27736009D01*
X66527255Y-27783628D02*
X66527255Y-28259819D01*
X66193922Y-27259819D02*
X66527255Y-27783628D01*
X66527255Y-27783628D02*
X66860588Y-27259819D01*
X67955827Y-28259819D02*
X67955827Y-27259819D01*
X67955827Y-27259819D02*
X68193922Y-27259819D01*
X68193922Y-27259819D02*
X68336779Y-27307438D01*
X68336779Y-27307438D02*
X68432017Y-27402676D01*
X68432017Y-27402676D02*
X68479636Y-27497914D01*
X68479636Y-27497914D02*
X68527255Y-27688390D01*
X68527255Y-27688390D02*
X68527255Y-27831247D01*
X68527255Y-27831247D02*
X68479636Y-28021723D01*
X68479636Y-28021723D02*
X68432017Y-28116961D01*
X68432017Y-28116961D02*
X68336779Y-28212200D01*
X68336779Y-28212200D02*
X68193922Y-28259819D01*
X68193922Y-28259819D02*
X67955827Y-28259819D01*
X68908208Y-27974104D02*
X69384398Y-27974104D01*
X68812970Y-28259819D02*
X69146303Y-27259819D01*
X69146303Y-27259819D02*
X69479636Y-28259819D01*
X69812970Y-28259819D02*
X69812970Y-27259819D01*
X69812970Y-27259819D02*
X70384398Y-28259819D01*
X70384398Y-28259819D02*
X70384398Y-27259819D01*
X70860589Y-28259819D02*
X70860589Y-27259819D01*
X71336779Y-27736009D02*
X71670112Y-27736009D01*
X71812969Y-28259819D02*
X71336779Y-28259819D01*
X71336779Y-28259819D02*
X71336779Y-27259819D01*
X71336779Y-27259819D02*
X71812969Y-27259819D01*
X72717731Y-28259819D02*
X72241541Y-28259819D01*
X72241541Y-28259819D02*
X72241541Y-27259819D01*
X73812970Y-28259819D02*
X73812970Y-27259819D01*
X73812970Y-27259819D02*
X74146303Y-27974104D01*
X74146303Y-27974104D02*
X74479636Y-27259819D01*
X74479636Y-27259819D02*
X74479636Y-28259819D01*
X74908208Y-27974104D02*
X75384398Y-27974104D01*
X74812970Y-28259819D02*
X75146303Y-27259819D01*
X75146303Y-27259819D02*
X75479636Y-28259819D01*
X76384398Y-28259819D02*
X76051065Y-27783628D01*
X75812970Y-28259819D02*
X75812970Y-27259819D01*
X75812970Y-27259819D02*
X76193922Y-27259819D01*
X76193922Y-27259819D02*
X76289160Y-27307438D01*
X76289160Y-27307438D02*
X76336779Y-27355057D01*
X76336779Y-27355057D02*
X76384398Y-27450295D01*
X76384398Y-27450295D02*
X76384398Y-27593152D01*
X76384398Y-27593152D02*
X76336779Y-27688390D01*
X76336779Y-27688390D02*
X76289160Y-27736009D01*
X76289160Y-27736009D02*
X76193922Y-27783628D01*
X76193922Y-27783628D02*
X75812970Y-27783628D01*
X76812970Y-28259819D02*
X76812970Y-27259819D01*
X77384398Y-28259819D02*
X76955827Y-27688390D01*
X77384398Y-27259819D02*
X76812970Y-27831247D01*
X77765351Y-28212200D02*
X77908208Y-28259819D01*
X77908208Y-28259819D02*
X78146303Y-28259819D01*
X78146303Y-28259819D02*
X78241541Y-28212200D01*
X78241541Y-28212200D02*
X78289160Y-28164580D01*
X78289160Y-28164580D02*
X78336779Y-28069342D01*
X78336779Y-28069342D02*
X78336779Y-27974104D01*
X78336779Y-27974104D02*
X78289160Y-27878866D01*
X78289160Y-27878866D02*
X78241541Y-27831247D01*
X78241541Y-27831247D02*
X78146303Y-27783628D01*
X78146303Y-27783628D02*
X77955827Y-27736009D01*
X77955827Y-27736009D02*
X77860589Y-27688390D01*
X77860589Y-27688390D02*
X77812970Y-27640771D01*
X77812970Y-27640771D02*
X77765351Y-27545533D01*
X77765351Y-27545533D02*
X77765351Y-27450295D01*
X77765351Y-27450295D02*
X77812970Y-27355057D01*
X77812970Y-27355057D02*
X77860589Y-27307438D01*
X77860589Y-27307438D02*
X77955827Y-27259819D01*
X77955827Y-27259819D02*
X78193922Y-27259819D01*
X78193922Y-27259819D02*
X78336779Y-27307438D01*
X65908207Y-29774580D02*
X65860588Y-29822200D01*
X65860588Y-29822200D02*
X65717731Y-29869819D01*
X65717731Y-29869819D02*
X65622493Y-29869819D01*
X65622493Y-29869819D02*
X65479636Y-29822200D01*
X65479636Y-29822200D02*
X65384398Y-29726961D01*
X65384398Y-29726961D02*
X65336779Y-29631723D01*
X65336779Y-29631723D02*
X65289160Y-29441247D01*
X65289160Y-29441247D02*
X65289160Y-29298390D01*
X65289160Y-29298390D02*
X65336779Y-29107914D01*
X65336779Y-29107914D02*
X65384398Y-29012676D01*
X65384398Y-29012676D02*
X65479636Y-28917438D01*
X65479636Y-28917438D02*
X65622493Y-28869819D01*
X65622493Y-28869819D02*
X65717731Y-28869819D01*
X65717731Y-28869819D02*
X65860588Y-28917438D01*
X65860588Y-28917438D02*
X65908207Y-28965057D01*
X66908207Y-29774580D02*
X66860588Y-29822200D01*
X66860588Y-29822200D02*
X66717731Y-29869819D01*
X66717731Y-29869819D02*
X66622493Y-29869819D01*
X66622493Y-29869819D02*
X66479636Y-29822200D01*
X66479636Y-29822200D02*
X66384398Y-29726961D01*
X66384398Y-29726961D02*
X66336779Y-29631723D01*
X66336779Y-29631723D02*
X66289160Y-29441247D01*
X66289160Y-29441247D02*
X66289160Y-29298390D01*
X66289160Y-29298390D02*
X66336779Y-29107914D01*
X66336779Y-29107914D02*
X66384398Y-29012676D01*
X66384398Y-29012676D02*
X66479636Y-28917438D01*
X66479636Y-28917438D02*
X66622493Y-28869819D01*
X66622493Y-28869819D02*
X66717731Y-28869819D01*
X66717731Y-28869819D02*
X66860588Y-28917438D01*
X66860588Y-28917438D02*
X66908207Y-28965057D01*
X67336779Y-29488866D02*
X68098684Y-29488866D01*
X68908207Y-29346009D02*
X69051064Y-29393628D01*
X69051064Y-29393628D02*
X69098683Y-29441247D01*
X69098683Y-29441247D02*
X69146302Y-29536485D01*
X69146302Y-29536485D02*
X69146302Y-29679342D01*
X69146302Y-29679342D02*
X69098683Y-29774580D01*
X69098683Y-29774580D02*
X69051064Y-29822200D01*
X69051064Y-29822200D02*
X68955826Y-29869819D01*
X68955826Y-29869819D02*
X68574874Y-29869819D01*
X68574874Y-29869819D02*
X68574874Y-28869819D01*
X68574874Y-28869819D02*
X68908207Y-28869819D01*
X68908207Y-28869819D02*
X69003445Y-28917438D01*
X69003445Y-28917438D02*
X69051064Y-28965057D01*
X69051064Y-28965057D02*
X69098683Y-29060295D01*
X69098683Y-29060295D02*
X69098683Y-29155533D01*
X69098683Y-29155533D02*
X69051064Y-29250771D01*
X69051064Y-29250771D02*
X69003445Y-29298390D01*
X69003445Y-29298390D02*
X68908207Y-29346009D01*
X68908207Y-29346009D02*
X68574874Y-29346009D01*
X69765350Y-29393628D02*
X69765350Y-29869819D01*
X69432017Y-28869819D02*
X69765350Y-29393628D01*
X69765350Y-29393628D02*
X70098683Y-28869819D01*
X70432017Y-29488866D02*
X71193922Y-29488866D01*
X71622493Y-29822200D02*
X71765350Y-29869819D01*
X71765350Y-29869819D02*
X72003445Y-29869819D01*
X72003445Y-29869819D02*
X72098683Y-29822200D01*
X72098683Y-29822200D02*
X72146302Y-29774580D01*
X72146302Y-29774580D02*
X72193921Y-29679342D01*
X72193921Y-29679342D02*
X72193921Y-29584104D01*
X72193921Y-29584104D02*
X72146302Y-29488866D01*
X72146302Y-29488866D02*
X72098683Y-29441247D01*
X72098683Y-29441247D02*
X72003445Y-29393628D01*
X72003445Y-29393628D02*
X71812969Y-29346009D01*
X71812969Y-29346009D02*
X71717731Y-29298390D01*
X71717731Y-29298390D02*
X71670112Y-29250771D01*
X71670112Y-29250771D02*
X71622493Y-29155533D01*
X71622493Y-29155533D02*
X71622493Y-29060295D01*
X71622493Y-29060295D02*
X71670112Y-28965057D01*
X71670112Y-28965057D02*
X71717731Y-28917438D01*
X71717731Y-28917438D02*
X71812969Y-28869819D01*
X71812969Y-28869819D02*
X72051064Y-28869819D01*
X72051064Y-28869819D02*
X72193921Y-28917438D01*
X72574874Y-29584104D02*
X73051064Y-29584104D01*
X72479636Y-29869819D02*
X72812969Y-28869819D01*
X72812969Y-28869819D02*
X73146302Y-29869819D01*
X74670112Y-29203152D02*
X74670112Y-29869819D01*
X74432017Y-28822200D02*
X74193922Y-29536485D01*
X74193922Y-29536485D02*
X74812969Y-29536485D01*
X75193922Y-29774580D02*
X75241541Y-29822200D01*
X75241541Y-29822200D02*
X75193922Y-29869819D01*
X75193922Y-29869819D02*
X75146303Y-29822200D01*
X75146303Y-29822200D02*
X75193922Y-29774580D01*
X75193922Y-29774580D02*
X75193922Y-29869819D01*
X75860588Y-28869819D02*
X75955826Y-28869819D01*
X75955826Y-28869819D02*
X76051064Y-28917438D01*
X76051064Y-28917438D02*
X76098683Y-28965057D01*
X76098683Y-28965057D02*
X76146302Y-29060295D01*
X76146302Y-29060295D02*
X76193921Y-29250771D01*
X76193921Y-29250771D02*
X76193921Y-29488866D01*
X76193921Y-29488866D02*
X76146302Y-29679342D01*
X76146302Y-29679342D02*
X76098683Y-29774580D01*
X76098683Y-29774580D02*
X76051064Y-29822200D01*
X76051064Y-29822200D02*
X75955826Y-29869819D01*
X75955826Y-29869819D02*
X75860588Y-29869819D01*
X75860588Y-29869819D02*
X75765350Y-29822200D01*
X75765350Y-29822200D02*
X75717731Y-29774580D01*
X75717731Y-29774580D02*
X75670112Y-29679342D01*
X75670112Y-29679342D02*
X75622493Y-29488866D01*
X75622493Y-29488866D02*
X75622493Y-29250771D01*
X75622493Y-29250771D02*
X75670112Y-29060295D01*
X75670112Y-29060295D02*
X75717731Y-28965057D01*
X75717731Y-28965057D02*
X75765350Y-28917438D01*
X75765350Y-28917438D02*
X75860588Y-28869819D01*
X67153810Y-124677200D02*
X67296667Y-124724819D01*
X67296667Y-124724819D02*
X67534762Y-124724819D01*
X67534762Y-124724819D02*
X67630000Y-124677200D01*
X67630000Y-124677200D02*
X67677619Y-124629580D01*
X67677619Y-124629580D02*
X67725238Y-124534342D01*
X67725238Y-124534342D02*
X67725238Y-124439104D01*
X67725238Y-124439104D02*
X67677619Y-124343866D01*
X67677619Y-124343866D02*
X67630000Y-124296247D01*
X67630000Y-124296247D02*
X67534762Y-124248628D01*
X67534762Y-124248628D02*
X67344286Y-124201009D01*
X67344286Y-124201009D02*
X67249048Y-124153390D01*
X67249048Y-124153390D02*
X67201429Y-124105771D01*
X67201429Y-124105771D02*
X67153810Y-124010533D01*
X67153810Y-124010533D02*
X67153810Y-123915295D01*
X67153810Y-123915295D02*
X67201429Y-123820057D01*
X67201429Y-123820057D02*
X67249048Y-123772438D01*
X67249048Y-123772438D02*
X67344286Y-123724819D01*
X67344286Y-123724819D02*
X67582381Y-123724819D01*
X67582381Y-123724819D02*
X67725238Y-123772438D01*
X68058572Y-123724819D02*
X68296667Y-124724819D01*
X68296667Y-124724819D02*
X68487143Y-124010533D01*
X68487143Y-124010533D02*
X68677619Y-124724819D01*
X68677619Y-124724819D02*
X68915715Y-123724819D01*
X69296667Y-124343866D02*
X70058572Y-124343866D01*
X81588095Y-123832438D02*
X81492857Y-123784819D01*
X81492857Y-123784819D02*
X81350000Y-123784819D01*
X81350000Y-123784819D02*
X81207143Y-123832438D01*
X81207143Y-123832438D02*
X81111905Y-123927676D01*
X81111905Y-123927676D02*
X81064286Y-124022914D01*
X81064286Y-124022914D02*
X81016667Y-124213390D01*
X81016667Y-124213390D02*
X81016667Y-124356247D01*
X81016667Y-124356247D02*
X81064286Y-124546723D01*
X81064286Y-124546723D02*
X81111905Y-124641961D01*
X81111905Y-124641961D02*
X81207143Y-124737200D01*
X81207143Y-124737200D02*
X81350000Y-124784819D01*
X81350000Y-124784819D02*
X81445238Y-124784819D01*
X81445238Y-124784819D02*
X81588095Y-124737200D01*
X81588095Y-124737200D02*
X81635714Y-124689580D01*
X81635714Y-124689580D02*
X81635714Y-124356247D01*
X81635714Y-124356247D02*
X81445238Y-124356247D01*
X82064286Y-124784819D02*
X82064286Y-123784819D01*
X82064286Y-123784819D02*
X82635714Y-124784819D01*
X82635714Y-124784819D02*
X82635714Y-123784819D01*
X83111905Y-124784819D02*
X83111905Y-123784819D01*
X83111905Y-123784819D02*
X83350000Y-123784819D01*
X83350000Y-123784819D02*
X83492857Y-123832438D01*
X83492857Y-123832438D02*
X83588095Y-123927676D01*
X83588095Y-123927676D02*
X83635714Y-124022914D01*
X83635714Y-124022914D02*
X83683333Y-124213390D01*
X83683333Y-124213390D02*
X83683333Y-124356247D01*
X83683333Y-124356247D02*
X83635714Y-124546723D01*
X83635714Y-124546723D02*
X83588095Y-124641961D01*
X83588095Y-124641961D02*
X83492857Y-124737200D01*
X83492857Y-124737200D02*
X83350000Y-124784819D01*
X83350000Y-124784819D02*
X83111905Y-124784819D01*
X75121429Y-124777200D02*
X75264286Y-124824819D01*
X75264286Y-124824819D02*
X75502381Y-124824819D01*
X75502381Y-124824819D02*
X75597619Y-124777200D01*
X75597619Y-124777200D02*
X75645238Y-124729580D01*
X75645238Y-124729580D02*
X75692857Y-124634342D01*
X75692857Y-124634342D02*
X75692857Y-124539104D01*
X75692857Y-124539104D02*
X75645238Y-124443866D01*
X75645238Y-124443866D02*
X75597619Y-124396247D01*
X75597619Y-124396247D02*
X75502381Y-124348628D01*
X75502381Y-124348628D02*
X75311905Y-124301009D01*
X75311905Y-124301009D02*
X75216667Y-124253390D01*
X75216667Y-124253390D02*
X75169048Y-124205771D01*
X75169048Y-124205771D02*
X75121429Y-124110533D01*
X75121429Y-124110533D02*
X75121429Y-124015295D01*
X75121429Y-124015295D02*
X75169048Y-123920057D01*
X75169048Y-123920057D02*
X75216667Y-123872438D01*
X75216667Y-123872438D02*
X75311905Y-123824819D01*
X75311905Y-123824819D02*
X75550000Y-123824819D01*
X75550000Y-123824819D02*
X75692857Y-123872438D01*
X76026191Y-123824819D02*
X76264286Y-124824819D01*
X76264286Y-124824819D02*
X76454762Y-124110533D01*
X76454762Y-124110533D02*
X76645238Y-124824819D01*
X76645238Y-124824819D02*
X76883334Y-123824819D01*
X77264286Y-124824819D02*
X77264286Y-123824819D01*
X77264286Y-123824819D02*
X77645238Y-123824819D01*
X77645238Y-123824819D02*
X77740476Y-123872438D01*
X77740476Y-123872438D02*
X77788095Y-123920057D01*
X77788095Y-123920057D02*
X77835714Y-124015295D01*
X77835714Y-124015295D02*
X77835714Y-124158152D01*
X77835714Y-124158152D02*
X77788095Y-124253390D01*
X77788095Y-124253390D02*
X77740476Y-124301009D01*
X77740476Y-124301009D02*
X77645238Y-124348628D01*
X77645238Y-124348628D02*
X77264286Y-124348628D01*
X78169048Y-123824819D02*
X78407143Y-124824819D01*
X78407143Y-124824819D02*
X78597619Y-124110533D01*
X78597619Y-124110533D02*
X78788095Y-124824819D01*
X78788095Y-124824819D02*
X79026191Y-123824819D01*
X79978571Y-124824819D02*
X79645238Y-124348628D01*
X79407143Y-124824819D02*
X79407143Y-123824819D01*
X79407143Y-123824819D02*
X79788095Y-123824819D01*
X79788095Y-123824819D02*
X79883333Y-123872438D01*
X79883333Y-123872438D02*
X79930952Y-123920057D01*
X79930952Y-123920057D02*
X79978571Y-124015295D01*
X79978571Y-124015295D02*
X79978571Y-124158152D01*
X79978571Y-124158152D02*
X79930952Y-124253390D01*
X79930952Y-124253390D02*
X79883333Y-124301009D01*
X79883333Y-124301009D02*
X79788095Y-124348628D01*
X79788095Y-124348628D02*
X79407143Y-124348628D01*
X61333810Y-124697200D02*
X61476667Y-124744819D01*
X61476667Y-124744819D02*
X61714762Y-124744819D01*
X61714762Y-124744819D02*
X61810000Y-124697200D01*
X61810000Y-124697200D02*
X61857619Y-124649580D01*
X61857619Y-124649580D02*
X61905238Y-124554342D01*
X61905238Y-124554342D02*
X61905238Y-124459104D01*
X61905238Y-124459104D02*
X61857619Y-124363866D01*
X61857619Y-124363866D02*
X61810000Y-124316247D01*
X61810000Y-124316247D02*
X61714762Y-124268628D01*
X61714762Y-124268628D02*
X61524286Y-124221009D01*
X61524286Y-124221009D02*
X61429048Y-124173390D01*
X61429048Y-124173390D02*
X61381429Y-124125771D01*
X61381429Y-124125771D02*
X61333810Y-124030533D01*
X61333810Y-124030533D02*
X61333810Y-123935295D01*
X61333810Y-123935295D02*
X61381429Y-123840057D01*
X61381429Y-123840057D02*
X61429048Y-123792438D01*
X61429048Y-123792438D02*
X61524286Y-123744819D01*
X61524286Y-123744819D02*
X61762381Y-123744819D01*
X61762381Y-123744819D02*
X61905238Y-123792438D01*
X62238572Y-123744819D02*
X62476667Y-124744819D01*
X62476667Y-124744819D02*
X62667143Y-124030533D01*
X62667143Y-124030533D02*
X62857619Y-124744819D01*
X62857619Y-124744819D02*
X63095715Y-123744819D01*
X63476667Y-124363866D02*
X64238572Y-124363866D01*
X63857619Y-124744819D02*
X63857619Y-123982914D01*
X75763333Y-109174819D02*
X75430000Y-108698628D01*
X75191905Y-109174819D02*
X75191905Y-108174819D01*
X75191905Y-108174819D02*
X75572857Y-108174819D01*
X75572857Y-108174819D02*
X75668095Y-108222438D01*
X75668095Y-108222438D02*
X75715714Y-108270057D01*
X75715714Y-108270057D02*
X75763333Y-108365295D01*
X75763333Y-108365295D02*
X75763333Y-108508152D01*
X75763333Y-108508152D02*
X75715714Y-108603390D01*
X75715714Y-108603390D02*
X75668095Y-108651009D01*
X75668095Y-108651009D02*
X75572857Y-108698628D01*
X75572857Y-108698628D02*
X75191905Y-108698628D01*
X76239524Y-109174819D02*
X76430000Y-109174819D01*
X76430000Y-109174819D02*
X76525238Y-109127200D01*
X76525238Y-109127200D02*
X76572857Y-109079580D01*
X76572857Y-109079580D02*
X76668095Y-108936723D01*
X76668095Y-108936723D02*
X76715714Y-108746247D01*
X76715714Y-108746247D02*
X76715714Y-108365295D01*
X76715714Y-108365295D02*
X76668095Y-108270057D01*
X76668095Y-108270057D02*
X76620476Y-108222438D01*
X76620476Y-108222438D02*
X76525238Y-108174819D01*
X76525238Y-108174819D02*
X76334762Y-108174819D01*
X76334762Y-108174819D02*
X76239524Y-108222438D01*
X76239524Y-108222438D02*
X76191905Y-108270057D01*
X76191905Y-108270057D02*
X76144286Y-108365295D01*
X76144286Y-108365295D02*
X76144286Y-108603390D01*
X76144286Y-108603390D02*
X76191905Y-108698628D01*
X76191905Y-108698628D02*
X76239524Y-108746247D01*
X76239524Y-108746247D02*
X76334762Y-108793866D01*
X76334762Y-108793866D02*
X76525238Y-108793866D01*
X76525238Y-108793866D02*
X76620476Y-108746247D01*
X76620476Y-108746247D02*
X76668095Y-108698628D01*
X76668095Y-108698628D02*
X76715714Y-108603390D01*
X79804819Y-104456666D02*
X79328628Y-104789999D01*
X79804819Y-105028094D02*
X78804819Y-105028094D01*
X78804819Y-105028094D02*
X78804819Y-104647142D01*
X78804819Y-104647142D02*
X78852438Y-104551904D01*
X78852438Y-104551904D02*
X78900057Y-104504285D01*
X78900057Y-104504285D02*
X78995295Y-104456666D01*
X78995295Y-104456666D02*
X79138152Y-104456666D01*
X79138152Y-104456666D02*
X79233390Y-104504285D01*
X79233390Y-104504285D02*
X79281009Y-104551904D01*
X79281009Y-104551904D02*
X79328628Y-104647142D01*
X79328628Y-104647142D02*
X79328628Y-105028094D01*
X79233390Y-103885237D02*
X79185771Y-103980475D01*
X79185771Y-103980475D02*
X79138152Y-104028094D01*
X79138152Y-104028094D02*
X79042914Y-104075713D01*
X79042914Y-104075713D02*
X78995295Y-104075713D01*
X78995295Y-104075713D02*
X78900057Y-104028094D01*
X78900057Y-104028094D02*
X78852438Y-103980475D01*
X78852438Y-103980475D02*
X78804819Y-103885237D01*
X78804819Y-103885237D02*
X78804819Y-103694761D01*
X78804819Y-103694761D02*
X78852438Y-103599523D01*
X78852438Y-103599523D02*
X78900057Y-103551904D01*
X78900057Y-103551904D02*
X78995295Y-103504285D01*
X78995295Y-103504285D02*
X79042914Y-103504285D01*
X79042914Y-103504285D02*
X79138152Y-103551904D01*
X79138152Y-103551904D02*
X79185771Y-103599523D01*
X79185771Y-103599523D02*
X79233390Y-103694761D01*
X79233390Y-103694761D02*
X79233390Y-103885237D01*
X79233390Y-103885237D02*
X79281009Y-103980475D01*
X79281009Y-103980475D02*
X79328628Y-104028094D01*
X79328628Y-104028094D02*
X79423866Y-104075713D01*
X79423866Y-104075713D02*
X79614342Y-104075713D01*
X79614342Y-104075713D02*
X79709580Y-104028094D01*
X79709580Y-104028094D02*
X79757200Y-103980475D01*
X79757200Y-103980475D02*
X79804819Y-103885237D01*
X79804819Y-103885237D02*
X79804819Y-103694761D01*
X79804819Y-103694761D02*
X79757200Y-103599523D01*
X79757200Y-103599523D02*
X79709580Y-103551904D01*
X79709580Y-103551904D02*
X79614342Y-103504285D01*
X79614342Y-103504285D02*
X79423866Y-103504285D01*
X79423866Y-103504285D02*
X79328628Y-103551904D01*
X79328628Y-103551904D02*
X79281009Y-103599523D01*
X79281009Y-103599523D02*
X79233390Y-103694761D01*
X89534819Y-116718094D02*
X88534819Y-116718094D01*
X88534819Y-116718094D02*
X88534819Y-116479999D01*
X88534819Y-116479999D02*
X88582438Y-116337142D01*
X88582438Y-116337142D02*
X88677676Y-116241904D01*
X88677676Y-116241904D02*
X88772914Y-116194285D01*
X88772914Y-116194285D02*
X88963390Y-116146666D01*
X88963390Y-116146666D02*
X89106247Y-116146666D01*
X89106247Y-116146666D02*
X89296723Y-116194285D01*
X89296723Y-116194285D02*
X89391961Y-116241904D01*
X89391961Y-116241904D02*
X89487200Y-116337142D01*
X89487200Y-116337142D02*
X89534819Y-116479999D01*
X89534819Y-116479999D02*
X89534819Y-116718094D01*
X88630057Y-115765713D02*
X88582438Y-115718094D01*
X88582438Y-115718094D02*
X88534819Y-115622856D01*
X88534819Y-115622856D02*
X88534819Y-115384761D01*
X88534819Y-115384761D02*
X88582438Y-115289523D01*
X88582438Y-115289523D02*
X88630057Y-115241904D01*
X88630057Y-115241904D02*
X88725295Y-115194285D01*
X88725295Y-115194285D02*
X88820533Y-115194285D01*
X88820533Y-115194285D02*
X88963390Y-115241904D01*
X88963390Y-115241904D02*
X89534819Y-115813332D01*
X89534819Y-115813332D02*
X89534819Y-115194285D01*
X89344819Y-121116666D02*
X88868628Y-121449999D01*
X89344819Y-121688094D02*
X88344819Y-121688094D01*
X88344819Y-121688094D02*
X88344819Y-121307142D01*
X88344819Y-121307142D02*
X88392438Y-121211904D01*
X88392438Y-121211904D02*
X88440057Y-121164285D01*
X88440057Y-121164285D02*
X88535295Y-121116666D01*
X88535295Y-121116666D02*
X88678152Y-121116666D01*
X88678152Y-121116666D02*
X88773390Y-121164285D01*
X88773390Y-121164285D02*
X88821009Y-121211904D01*
X88821009Y-121211904D02*
X88868628Y-121307142D01*
X88868628Y-121307142D02*
X88868628Y-121688094D01*
X88344819Y-120211904D02*
X88344819Y-120688094D01*
X88344819Y-120688094D02*
X88821009Y-120735713D01*
X88821009Y-120735713D02*
X88773390Y-120688094D01*
X88773390Y-120688094D02*
X88725771Y-120592856D01*
X88725771Y-120592856D02*
X88725771Y-120354761D01*
X88725771Y-120354761D02*
X88773390Y-120259523D01*
X88773390Y-120259523D02*
X88821009Y-120211904D01*
X88821009Y-120211904D02*
X88916247Y-120164285D01*
X88916247Y-120164285D02*
X89154342Y-120164285D01*
X89154342Y-120164285D02*
X89249580Y-120211904D01*
X89249580Y-120211904D02*
X89297200Y-120259523D01*
X89297200Y-120259523D02*
X89344819Y-120354761D01*
X89344819Y-120354761D02*
X89344819Y-120592856D01*
X89344819Y-120592856D02*
X89297200Y-120688094D01*
X89297200Y-120688094D02*
X89249580Y-120735713D01*
X45734819Y-104966666D02*
X45258628Y-105299999D01*
X45734819Y-105538094D02*
X44734819Y-105538094D01*
X44734819Y-105538094D02*
X44734819Y-105157142D01*
X44734819Y-105157142D02*
X44782438Y-105061904D01*
X44782438Y-105061904D02*
X44830057Y-105014285D01*
X44830057Y-105014285D02*
X44925295Y-104966666D01*
X44925295Y-104966666D02*
X45068152Y-104966666D01*
X45068152Y-104966666D02*
X45163390Y-105014285D01*
X45163390Y-105014285D02*
X45211009Y-105061904D01*
X45211009Y-105061904D02*
X45258628Y-105157142D01*
X45258628Y-105157142D02*
X45258628Y-105538094D01*
X44734819Y-104633332D02*
X44734819Y-104014285D01*
X44734819Y-104014285D02*
X45115771Y-104347618D01*
X45115771Y-104347618D02*
X45115771Y-104204761D01*
X45115771Y-104204761D02*
X45163390Y-104109523D01*
X45163390Y-104109523D02*
X45211009Y-104061904D01*
X45211009Y-104061904D02*
X45306247Y-104014285D01*
X45306247Y-104014285D02*
X45544342Y-104014285D01*
X45544342Y-104014285D02*
X45639580Y-104061904D01*
X45639580Y-104061904D02*
X45687200Y-104109523D01*
X45687200Y-104109523D02*
X45734819Y-104204761D01*
X45734819Y-104204761D02*
X45734819Y-104490475D01*
X45734819Y-104490475D02*
X45687200Y-104585713D01*
X45687200Y-104585713D02*
X45639580Y-104633332D01*
X41753333Y-101104819D02*
X41420000Y-100628628D01*
X41181905Y-101104819D02*
X41181905Y-100104819D01*
X41181905Y-100104819D02*
X41562857Y-100104819D01*
X41562857Y-100104819D02*
X41658095Y-100152438D01*
X41658095Y-100152438D02*
X41705714Y-100200057D01*
X41705714Y-100200057D02*
X41753333Y-100295295D01*
X41753333Y-100295295D02*
X41753333Y-100438152D01*
X41753333Y-100438152D02*
X41705714Y-100533390D01*
X41705714Y-100533390D02*
X41658095Y-100581009D01*
X41658095Y-100581009D02*
X41562857Y-100628628D01*
X41562857Y-100628628D02*
X41181905Y-100628628D01*
X42610476Y-100438152D02*
X42610476Y-101104819D01*
X42372381Y-100057200D02*
X42134286Y-100771485D01*
X42134286Y-100771485D02*
X42753333Y-100771485D01*
X104228095Y-109784819D02*
X104228095Y-110594342D01*
X104228095Y-110594342D02*
X104275714Y-110689580D01*
X104275714Y-110689580D02*
X104323333Y-110737200D01*
X104323333Y-110737200D02*
X104418571Y-110784819D01*
X104418571Y-110784819D02*
X104609047Y-110784819D01*
X104609047Y-110784819D02*
X104704285Y-110737200D01*
X104704285Y-110737200D02*
X104751904Y-110689580D01*
X104751904Y-110689580D02*
X104799523Y-110594342D01*
X104799523Y-110594342D02*
X104799523Y-109784819D01*
X105228095Y-109880057D02*
X105275714Y-109832438D01*
X105275714Y-109832438D02*
X105370952Y-109784819D01*
X105370952Y-109784819D02*
X105609047Y-109784819D01*
X105609047Y-109784819D02*
X105704285Y-109832438D01*
X105704285Y-109832438D02*
X105751904Y-109880057D01*
X105751904Y-109880057D02*
X105799523Y-109975295D01*
X105799523Y-109975295D02*
X105799523Y-110070533D01*
X105799523Y-110070533D02*
X105751904Y-110213390D01*
X105751904Y-110213390D02*
X105180476Y-110784819D01*
X105180476Y-110784819D02*
X105799523Y-110784819D01*
X70967142Y-114644819D02*
X70633809Y-114168628D01*
X70395714Y-114644819D02*
X70395714Y-113644819D01*
X70395714Y-113644819D02*
X70776666Y-113644819D01*
X70776666Y-113644819D02*
X70871904Y-113692438D01*
X70871904Y-113692438D02*
X70919523Y-113740057D01*
X70919523Y-113740057D02*
X70967142Y-113835295D01*
X70967142Y-113835295D02*
X70967142Y-113978152D01*
X70967142Y-113978152D02*
X70919523Y-114073390D01*
X70919523Y-114073390D02*
X70871904Y-114121009D01*
X70871904Y-114121009D02*
X70776666Y-114168628D01*
X70776666Y-114168628D02*
X70395714Y-114168628D01*
X71919523Y-114644819D02*
X71348095Y-114644819D01*
X71633809Y-114644819D02*
X71633809Y-113644819D01*
X71633809Y-113644819D02*
X71538571Y-113787676D01*
X71538571Y-113787676D02*
X71443333Y-113882914D01*
X71443333Y-113882914D02*
X71348095Y-113930533D01*
X72490952Y-114073390D02*
X72395714Y-114025771D01*
X72395714Y-114025771D02*
X72348095Y-113978152D01*
X72348095Y-113978152D02*
X72300476Y-113882914D01*
X72300476Y-113882914D02*
X72300476Y-113835295D01*
X72300476Y-113835295D02*
X72348095Y-113740057D01*
X72348095Y-113740057D02*
X72395714Y-113692438D01*
X72395714Y-113692438D02*
X72490952Y-113644819D01*
X72490952Y-113644819D02*
X72681428Y-113644819D01*
X72681428Y-113644819D02*
X72776666Y-113692438D01*
X72776666Y-113692438D02*
X72824285Y-113740057D01*
X72824285Y-113740057D02*
X72871904Y-113835295D01*
X72871904Y-113835295D02*
X72871904Y-113882914D01*
X72871904Y-113882914D02*
X72824285Y-113978152D01*
X72824285Y-113978152D02*
X72776666Y-114025771D01*
X72776666Y-114025771D02*
X72681428Y-114073390D01*
X72681428Y-114073390D02*
X72490952Y-114073390D01*
X72490952Y-114073390D02*
X72395714Y-114121009D01*
X72395714Y-114121009D02*
X72348095Y-114168628D01*
X72348095Y-114168628D02*
X72300476Y-114263866D01*
X72300476Y-114263866D02*
X72300476Y-114454342D01*
X72300476Y-114454342D02*
X72348095Y-114549580D01*
X72348095Y-114549580D02*
X72395714Y-114597200D01*
X72395714Y-114597200D02*
X72490952Y-114644819D01*
X72490952Y-114644819D02*
X72681428Y-114644819D01*
X72681428Y-114644819D02*
X72776666Y-114597200D01*
X72776666Y-114597200D02*
X72824285Y-114549580D01*
X72824285Y-114549580D02*
X72871904Y-114454342D01*
X72871904Y-114454342D02*
X72871904Y-114263866D01*
X72871904Y-114263866D02*
X72824285Y-114168628D01*
X72824285Y-114168628D02*
X72776666Y-114121009D01*
X72776666Y-114121009D02*
X72681428Y-114073390D01*
X93464819Y-123985238D02*
X92988628Y-124318571D01*
X93464819Y-124556666D02*
X92464819Y-124556666D01*
X92464819Y-124556666D02*
X92464819Y-124175714D01*
X92464819Y-124175714D02*
X92512438Y-124080476D01*
X92512438Y-124080476D02*
X92560057Y-124032857D01*
X92560057Y-124032857D02*
X92655295Y-123985238D01*
X92655295Y-123985238D02*
X92798152Y-123985238D01*
X92798152Y-123985238D02*
X92893390Y-124032857D01*
X92893390Y-124032857D02*
X92941009Y-124080476D01*
X92941009Y-124080476D02*
X92988628Y-124175714D01*
X92988628Y-124175714D02*
X92988628Y-124556666D01*
X92464819Y-123699523D02*
X93464819Y-123366190D01*
X93464819Y-123366190D02*
X92464819Y-123032857D01*
X93464819Y-122175714D02*
X93464819Y-122747142D01*
X93464819Y-122461428D02*
X92464819Y-122461428D01*
X92464819Y-122461428D02*
X92607676Y-122556666D01*
X92607676Y-122556666D02*
X92702914Y-122651904D01*
X92702914Y-122651904D02*
X92750533Y-122747142D01*
X115407142Y-115774819D02*
X115073809Y-115298628D01*
X114835714Y-115774819D02*
X114835714Y-114774819D01*
X114835714Y-114774819D02*
X115216666Y-114774819D01*
X115216666Y-114774819D02*
X115311904Y-114822438D01*
X115311904Y-114822438D02*
X115359523Y-114870057D01*
X115359523Y-114870057D02*
X115407142Y-114965295D01*
X115407142Y-114965295D02*
X115407142Y-115108152D01*
X115407142Y-115108152D02*
X115359523Y-115203390D01*
X115359523Y-115203390D02*
X115311904Y-115251009D01*
X115311904Y-115251009D02*
X115216666Y-115298628D01*
X115216666Y-115298628D02*
X114835714Y-115298628D01*
X116359523Y-115774819D02*
X115788095Y-115774819D01*
X116073809Y-115774819D02*
X116073809Y-114774819D01*
X116073809Y-114774819D02*
X115978571Y-114917676D01*
X115978571Y-114917676D02*
X115883333Y-115012914D01*
X115883333Y-115012914D02*
X115788095Y-115060533D01*
X116740476Y-114870057D02*
X116788095Y-114822438D01*
X116788095Y-114822438D02*
X116883333Y-114774819D01*
X116883333Y-114774819D02*
X117121428Y-114774819D01*
X117121428Y-114774819D02*
X117216666Y-114822438D01*
X117216666Y-114822438D02*
X117264285Y-114870057D01*
X117264285Y-114870057D02*
X117311904Y-114965295D01*
X117311904Y-114965295D02*
X117311904Y-115060533D01*
X117311904Y-115060533D02*
X117264285Y-115203390D01*
X117264285Y-115203390D02*
X116692857Y-115774819D01*
X116692857Y-115774819D02*
X117311904Y-115774819D01*
X96147142Y-113904819D02*
X95813809Y-113428628D01*
X95575714Y-113904819D02*
X95575714Y-112904819D01*
X95575714Y-112904819D02*
X95956666Y-112904819D01*
X95956666Y-112904819D02*
X96051904Y-112952438D01*
X96051904Y-112952438D02*
X96099523Y-113000057D01*
X96099523Y-113000057D02*
X96147142Y-113095295D01*
X96147142Y-113095295D02*
X96147142Y-113238152D01*
X96147142Y-113238152D02*
X96099523Y-113333390D01*
X96099523Y-113333390D02*
X96051904Y-113381009D01*
X96051904Y-113381009D02*
X95956666Y-113428628D01*
X95956666Y-113428628D02*
X95575714Y-113428628D01*
X96528095Y-113000057D02*
X96575714Y-112952438D01*
X96575714Y-112952438D02*
X96670952Y-112904819D01*
X96670952Y-112904819D02*
X96909047Y-112904819D01*
X96909047Y-112904819D02*
X97004285Y-112952438D01*
X97004285Y-112952438D02*
X97051904Y-113000057D01*
X97051904Y-113000057D02*
X97099523Y-113095295D01*
X97099523Y-113095295D02*
X97099523Y-113190533D01*
X97099523Y-113190533D02*
X97051904Y-113333390D01*
X97051904Y-113333390D02*
X96480476Y-113904819D01*
X96480476Y-113904819D02*
X97099523Y-113904819D01*
X98051904Y-113904819D02*
X97480476Y-113904819D01*
X97766190Y-113904819D02*
X97766190Y-112904819D01*
X97766190Y-112904819D02*
X97670952Y-113047676D01*
X97670952Y-113047676D02*
X97575714Y-113142914D01*
X97575714Y-113142914D02*
X97480476Y-113190533D01*
X81857142Y-112014819D02*
X81523809Y-111538628D01*
X81285714Y-112014819D02*
X81285714Y-111014819D01*
X81285714Y-111014819D02*
X81666666Y-111014819D01*
X81666666Y-111014819D02*
X81761904Y-111062438D01*
X81761904Y-111062438D02*
X81809523Y-111110057D01*
X81809523Y-111110057D02*
X81857142Y-111205295D01*
X81857142Y-111205295D02*
X81857142Y-111348152D01*
X81857142Y-111348152D02*
X81809523Y-111443390D01*
X81809523Y-111443390D02*
X81761904Y-111491009D01*
X81761904Y-111491009D02*
X81666666Y-111538628D01*
X81666666Y-111538628D02*
X81285714Y-111538628D01*
X82238095Y-111110057D02*
X82285714Y-111062438D01*
X82285714Y-111062438D02*
X82380952Y-111014819D01*
X82380952Y-111014819D02*
X82619047Y-111014819D01*
X82619047Y-111014819D02*
X82714285Y-111062438D01*
X82714285Y-111062438D02*
X82761904Y-111110057D01*
X82761904Y-111110057D02*
X82809523Y-111205295D01*
X82809523Y-111205295D02*
X82809523Y-111300533D01*
X82809523Y-111300533D02*
X82761904Y-111443390D01*
X82761904Y-111443390D02*
X82190476Y-112014819D01*
X82190476Y-112014819D02*
X82809523Y-112014819D01*
X83190476Y-111110057D02*
X83238095Y-111062438D01*
X83238095Y-111062438D02*
X83333333Y-111014819D01*
X83333333Y-111014819D02*
X83571428Y-111014819D01*
X83571428Y-111014819D02*
X83666666Y-111062438D01*
X83666666Y-111062438D02*
X83714285Y-111110057D01*
X83714285Y-111110057D02*
X83761904Y-111205295D01*
X83761904Y-111205295D02*
X83761904Y-111300533D01*
X83761904Y-111300533D02*
X83714285Y-111443390D01*
X83714285Y-111443390D02*
X83142857Y-112014819D01*
X83142857Y-112014819D02*
X83761904Y-112014819D01*
X105216666Y-116954819D02*
X105216666Y-117669104D01*
X105216666Y-117669104D02*
X105169047Y-117811961D01*
X105169047Y-117811961D02*
X105073809Y-117907200D01*
X105073809Y-117907200D02*
X104930952Y-117954819D01*
X104930952Y-117954819D02*
X104835714Y-117954819D01*
X105692857Y-117954819D02*
X105692857Y-116954819D01*
X105692857Y-116954819D02*
X106073809Y-116954819D01*
X106073809Y-116954819D02*
X106169047Y-117002438D01*
X106169047Y-117002438D02*
X106216666Y-117050057D01*
X106216666Y-117050057D02*
X106264285Y-117145295D01*
X106264285Y-117145295D02*
X106264285Y-117288152D01*
X106264285Y-117288152D02*
X106216666Y-117383390D01*
X106216666Y-117383390D02*
X106169047Y-117431009D01*
X106169047Y-117431009D02*
X106073809Y-117478628D01*
X106073809Y-117478628D02*
X105692857Y-117478628D01*
X107216666Y-117954819D02*
X106645238Y-117954819D01*
X106930952Y-117954819D02*
X106930952Y-116954819D01*
X106930952Y-116954819D02*
X106835714Y-117097676D01*
X106835714Y-117097676D02*
X106740476Y-117192914D01*
X106740476Y-117192914D02*
X106645238Y-117240533D01*
X36038095Y-107194819D02*
X36038095Y-108004342D01*
X36038095Y-108004342D02*
X36085714Y-108099580D01*
X36085714Y-108099580D02*
X36133333Y-108147200D01*
X36133333Y-108147200D02*
X36228571Y-108194819D01*
X36228571Y-108194819D02*
X36419047Y-108194819D01*
X36419047Y-108194819D02*
X36514285Y-108147200D01*
X36514285Y-108147200D02*
X36561904Y-108099580D01*
X36561904Y-108099580D02*
X36609523Y-108004342D01*
X36609523Y-108004342D02*
X36609523Y-107194819D01*
X37609523Y-108194819D02*
X37038095Y-108194819D01*
X37323809Y-108194819D02*
X37323809Y-107194819D01*
X37323809Y-107194819D02*
X37228571Y-107337676D01*
X37228571Y-107337676D02*
X37133333Y-107432914D01*
X37133333Y-107432914D02*
X37038095Y-107480533D01*
X31133333Y-100769580D02*
X31085714Y-100817200D01*
X31085714Y-100817200D02*
X30942857Y-100864819D01*
X30942857Y-100864819D02*
X30847619Y-100864819D01*
X30847619Y-100864819D02*
X30704762Y-100817200D01*
X30704762Y-100817200D02*
X30609524Y-100721961D01*
X30609524Y-100721961D02*
X30561905Y-100626723D01*
X30561905Y-100626723D02*
X30514286Y-100436247D01*
X30514286Y-100436247D02*
X30514286Y-100293390D01*
X30514286Y-100293390D02*
X30561905Y-100102914D01*
X30561905Y-100102914D02*
X30609524Y-100007676D01*
X30609524Y-100007676D02*
X30704762Y-99912438D01*
X30704762Y-99912438D02*
X30847619Y-99864819D01*
X30847619Y-99864819D02*
X30942857Y-99864819D01*
X30942857Y-99864819D02*
X31085714Y-99912438D01*
X31085714Y-99912438D02*
X31133333Y-99960057D01*
X31990476Y-100198152D02*
X31990476Y-100864819D01*
X31752381Y-99817200D02*
X31514286Y-100531485D01*
X31514286Y-100531485D02*
X32133333Y-100531485D01*
X72904933Y-120439680D02*
X72857314Y-120487300D01*
X72857314Y-120487300D02*
X72714457Y-120534919D01*
X72714457Y-120534919D02*
X72619219Y-120534919D01*
X72619219Y-120534919D02*
X72476362Y-120487300D01*
X72476362Y-120487300D02*
X72381124Y-120392061D01*
X72381124Y-120392061D02*
X72333505Y-120296823D01*
X72333505Y-120296823D02*
X72285886Y-120106347D01*
X72285886Y-120106347D02*
X72285886Y-119963490D01*
X72285886Y-119963490D02*
X72333505Y-119773014D01*
X72333505Y-119773014D02*
X72381124Y-119677776D01*
X72381124Y-119677776D02*
X72476362Y-119582538D01*
X72476362Y-119582538D02*
X72619219Y-119534919D01*
X72619219Y-119534919D02*
X72714457Y-119534919D01*
X72714457Y-119534919D02*
X72857314Y-119582538D01*
X72857314Y-119582538D02*
X72904933Y-119630157D01*
X73857314Y-120534919D02*
X73285886Y-120534919D01*
X73571600Y-120534919D02*
X73571600Y-119534919D01*
X73571600Y-119534919D02*
X73476362Y-119677776D01*
X73476362Y-119677776D02*
X73381124Y-119773014D01*
X73381124Y-119773014D02*
X73285886Y-119820633D01*
X39181905Y-61644819D02*
X39181905Y-60644819D01*
X39181905Y-60644819D02*
X39420000Y-60644819D01*
X39420000Y-60644819D02*
X39562857Y-60692438D01*
X39562857Y-60692438D02*
X39658095Y-60787676D01*
X39658095Y-60787676D02*
X39705714Y-60882914D01*
X39705714Y-60882914D02*
X39753333Y-61073390D01*
X39753333Y-61073390D02*
X39753333Y-61216247D01*
X39753333Y-61216247D02*
X39705714Y-61406723D01*
X39705714Y-61406723D02*
X39658095Y-61501961D01*
X39658095Y-61501961D02*
X39562857Y-61597200D01*
X39562857Y-61597200D02*
X39420000Y-61644819D01*
X39420000Y-61644819D02*
X39181905Y-61644819D01*
X40658095Y-60644819D02*
X40181905Y-60644819D01*
X40181905Y-60644819D02*
X40134286Y-61121009D01*
X40134286Y-61121009D02*
X40181905Y-61073390D01*
X40181905Y-61073390D02*
X40277143Y-61025771D01*
X40277143Y-61025771D02*
X40515238Y-61025771D01*
X40515238Y-61025771D02*
X40610476Y-61073390D01*
X40610476Y-61073390D02*
X40658095Y-61121009D01*
X40658095Y-61121009D02*
X40705714Y-61216247D01*
X40705714Y-61216247D02*
X40705714Y-61454342D01*
X40705714Y-61454342D02*
X40658095Y-61549580D01*
X40658095Y-61549580D02*
X40610476Y-61597200D01*
X40610476Y-61597200D02*
X40515238Y-61644819D01*
X40515238Y-61644819D02*
X40277143Y-61644819D01*
X40277143Y-61644819D02*
X40181905Y-61597200D01*
X40181905Y-61597200D02*
X40134286Y-61549580D01*
X75973333Y-100404819D02*
X75640000Y-99928628D01*
X75401905Y-100404819D02*
X75401905Y-99404819D01*
X75401905Y-99404819D02*
X75782857Y-99404819D01*
X75782857Y-99404819D02*
X75878095Y-99452438D01*
X75878095Y-99452438D02*
X75925714Y-99500057D01*
X75925714Y-99500057D02*
X75973333Y-99595295D01*
X75973333Y-99595295D02*
X75973333Y-99738152D01*
X75973333Y-99738152D02*
X75925714Y-99833390D01*
X75925714Y-99833390D02*
X75878095Y-99881009D01*
X75878095Y-99881009D02*
X75782857Y-99928628D01*
X75782857Y-99928628D02*
X75401905Y-99928628D01*
X76306667Y-99404819D02*
X76973333Y-99404819D01*
X76973333Y-99404819D02*
X76544762Y-100404819D01*
X100643333Y-116274819D02*
X100310000Y-115798628D01*
X100071905Y-116274819D02*
X100071905Y-115274819D01*
X100071905Y-115274819D02*
X100452857Y-115274819D01*
X100452857Y-115274819D02*
X100548095Y-115322438D01*
X100548095Y-115322438D02*
X100595714Y-115370057D01*
X100595714Y-115370057D02*
X100643333Y-115465295D01*
X100643333Y-115465295D02*
X100643333Y-115608152D01*
X100643333Y-115608152D02*
X100595714Y-115703390D01*
X100595714Y-115703390D02*
X100548095Y-115751009D01*
X100548095Y-115751009D02*
X100452857Y-115798628D01*
X100452857Y-115798628D02*
X100071905Y-115798628D01*
X101500476Y-115274819D02*
X101310000Y-115274819D01*
X101310000Y-115274819D02*
X101214762Y-115322438D01*
X101214762Y-115322438D02*
X101167143Y-115370057D01*
X101167143Y-115370057D02*
X101071905Y-115512914D01*
X101071905Y-115512914D02*
X101024286Y-115703390D01*
X101024286Y-115703390D02*
X101024286Y-116084342D01*
X101024286Y-116084342D02*
X101071905Y-116179580D01*
X101071905Y-116179580D02*
X101119524Y-116227200D01*
X101119524Y-116227200D02*
X101214762Y-116274819D01*
X101214762Y-116274819D02*
X101405238Y-116274819D01*
X101405238Y-116274819D02*
X101500476Y-116227200D01*
X101500476Y-116227200D02*
X101548095Y-116179580D01*
X101548095Y-116179580D02*
X101595714Y-116084342D01*
X101595714Y-116084342D02*
X101595714Y-115846247D01*
X101595714Y-115846247D02*
X101548095Y-115751009D01*
X101548095Y-115751009D02*
X101500476Y-115703390D01*
X101500476Y-115703390D02*
X101405238Y-115655771D01*
X101405238Y-115655771D02*
X101214762Y-115655771D01*
X101214762Y-115655771D02*
X101119524Y-115703390D01*
X101119524Y-115703390D02*
X101071905Y-115751009D01*
X101071905Y-115751009D02*
X101024286Y-115846247D01*
X56644761Y-100750057D02*
X56549523Y-100702438D01*
X56549523Y-100702438D02*
X56454285Y-100607200D01*
X56454285Y-100607200D02*
X56311428Y-100464342D01*
X56311428Y-100464342D02*
X56216190Y-100416723D01*
X56216190Y-100416723D02*
X56120952Y-100416723D01*
X56168571Y-100654819D02*
X56073333Y-100607200D01*
X56073333Y-100607200D02*
X55978095Y-100511961D01*
X55978095Y-100511961D02*
X55930476Y-100321485D01*
X55930476Y-100321485D02*
X55930476Y-99988152D01*
X55930476Y-99988152D02*
X55978095Y-99797676D01*
X55978095Y-99797676D02*
X56073333Y-99702438D01*
X56073333Y-99702438D02*
X56168571Y-99654819D01*
X56168571Y-99654819D02*
X56359047Y-99654819D01*
X56359047Y-99654819D02*
X56454285Y-99702438D01*
X56454285Y-99702438D02*
X56549523Y-99797676D01*
X56549523Y-99797676D02*
X56597142Y-99988152D01*
X56597142Y-99988152D02*
X56597142Y-100321485D01*
X56597142Y-100321485D02*
X56549523Y-100511961D01*
X56549523Y-100511961D02*
X56454285Y-100607200D01*
X56454285Y-100607200D02*
X56359047Y-100654819D01*
X56359047Y-100654819D02*
X56168571Y-100654819D01*
X57549523Y-100654819D02*
X56978095Y-100654819D01*
X57263809Y-100654819D02*
X57263809Y-99654819D01*
X57263809Y-99654819D02*
X57168571Y-99797676D01*
X57168571Y-99797676D02*
X57073333Y-99892914D01*
X57073333Y-99892914D02*
X56978095Y-99940533D01*
X39181905Y-31644819D02*
X39181905Y-30644819D01*
X39181905Y-30644819D02*
X39420000Y-30644819D01*
X39420000Y-30644819D02*
X39562857Y-30692438D01*
X39562857Y-30692438D02*
X39658095Y-30787676D01*
X39658095Y-30787676D02*
X39705714Y-30882914D01*
X39705714Y-30882914D02*
X39753333Y-31073390D01*
X39753333Y-31073390D02*
X39753333Y-31216247D01*
X39753333Y-31216247D02*
X39705714Y-31406723D01*
X39705714Y-31406723D02*
X39658095Y-31501961D01*
X39658095Y-31501961D02*
X39562857Y-31597200D01*
X39562857Y-31597200D02*
X39420000Y-31644819D01*
X39420000Y-31644819D02*
X39181905Y-31644819D01*
X40610476Y-30644819D02*
X40420000Y-30644819D01*
X40420000Y-30644819D02*
X40324762Y-30692438D01*
X40324762Y-30692438D02*
X40277143Y-30740057D01*
X40277143Y-30740057D02*
X40181905Y-30882914D01*
X40181905Y-30882914D02*
X40134286Y-31073390D01*
X40134286Y-31073390D02*
X40134286Y-31454342D01*
X40134286Y-31454342D02*
X40181905Y-31549580D01*
X40181905Y-31549580D02*
X40229524Y-31597200D01*
X40229524Y-31597200D02*
X40324762Y-31644819D01*
X40324762Y-31644819D02*
X40515238Y-31644819D01*
X40515238Y-31644819D02*
X40610476Y-31597200D01*
X40610476Y-31597200D02*
X40658095Y-31549580D01*
X40658095Y-31549580D02*
X40705714Y-31454342D01*
X40705714Y-31454342D02*
X40705714Y-31216247D01*
X40705714Y-31216247D02*
X40658095Y-31121009D01*
X40658095Y-31121009D02*
X40610476Y-31073390D01*
X40610476Y-31073390D02*
X40515238Y-31025771D01*
X40515238Y-31025771D02*
X40324762Y-31025771D01*
X40324762Y-31025771D02*
X40229524Y-31073390D01*
X40229524Y-31073390D02*
X40181905Y-31121009D01*
X40181905Y-31121009D02*
X40134286Y-31216247D01*
X100187142Y-113954819D02*
X99853809Y-113478628D01*
X99615714Y-113954819D02*
X99615714Y-112954819D01*
X99615714Y-112954819D02*
X99996666Y-112954819D01*
X99996666Y-112954819D02*
X100091904Y-113002438D01*
X100091904Y-113002438D02*
X100139523Y-113050057D01*
X100139523Y-113050057D02*
X100187142Y-113145295D01*
X100187142Y-113145295D02*
X100187142Y-113288152D01*
X100187142Y-113288152D02*
X100139523Y-113383390D01*
X100139523Y-113383390D02*
X100091904Y-113431009D01*
X100091904Y-113431009D02*
X99996666Y-113478628D01*
X99996666Y-113478628D02*
X99615714Y-113478628D01*
X101139523Y-113954819D02*
X100568095Y-113954819D01*
X100853809Y-113954819D02*
X100853809Y-112954819D01*
X100853809Y-112954819D02*
X100758571Y-113097676D01*
X100758571Y-113097676D02*
X100663333Y-113192914D01*
X100663333Y-113192914D02*
X100568095Y-113240533D01*
X101472857Y-112954819D02*
X102139523Y-112954819D01*
X102139523Y-112954819D02*
X101710952Y-113954819D01*
X33224819Y-110882857D02*
X32748628Y-111216190D01*
X33224819Y-111454285D02*
X32224819Y-111454285D01*
X32224819Y-111454285D02*
X32224819Y-111073333D01*
X32224819Y-111073333D02*
X32272438Y-110978095D01*
X32272438Y-110978095D02*
X32320057Y-110930476D01*
X32320057Y-110930476D02*
X32415295Y-110882857D01*
X32415295Y-110882857D02*
X32558152Y-110882857D01*
X32558152Y-110882857D02*
X32653390Y-110930476D01*
X32653390Y-110930476D02*
X32701009Y-110978095D01*
X32701009Y-110978095D02*
X32748628Y-111073333D01*
X32748628Y-111073333D02*
X32748628Y-111454285D01*
X33224819Y-109930476D02*
X33224819Y-110501904D01*
X33224819Y-110216190D02*
X32224819Y-110216190D01*
X32224819Y-110216190D02*
X32367676Y-110311428D01*
X32367676Y-110311428D02*
X32462914Y-110406666D01*
X32462914Y-110406666D02*
X32510533Y-110501904D01*
X32224819Y-109025714D02*
X32224819Y-109501904D01*
X32224819Y-109501904D02*
X32701009Y-109549523D01*
X32701009Y-109549523D02*
X32653390Y-109501904D01*
X32653390Y-109501904D02*
X32605771Y-109406666D01*
X32605771Y-109406666D02*
X32605771Y-109168571D01*
X32605771Y-109168571D02*
X32653390Y-109073333D01*
X32653390Y-109073333D02*
X32701009Y-109025714D01*
X32701009Y-109025714D02*
X32796247Y-108978095D01*
X32796247Y-108978095D02*
X33034342Y-108978095D01*
X33034342Y-108978095D02*
X33129580Y-109025714D01*
X33129580Y-109025714D02*
X33177200Y-109073333D01*
X33177200Y-109073333D02*
X33224819Y-109168571D01*
X33224819Y-109168571D02*
X33224819Y-109406666D01*
X33224819Y-109406666D02*
X33177200Y-109501904D01*
X33177200Y-109501904D02*
X33129580Y-109549523D01*
X39181905Y-87644819D02*
X39181905Y-86644819D01*
X39181905Y-86644819D02*
X39420000Y-86644819D01*
X39420000Y-86644819D02*
X39562857Y-86692438D01*
X39562857Y-86692438D02*
X39658095Y-86787676D01*
X39658095Y-86787676D02*
X39705714Y-86882914D01*
X39705714Y-86882914D02*
X39753333Y-87073390D01*
X39753333Y-87073390D02*
X39753333Y-87216247D01*
X39753333Y-87216247D02*
X39705714Y-87406723D01*
X39705714Y-87406723D02*
X39658095Y-87501961D01*
X39658095Y-87501961D02*
X39562857Y-87597200D01*
X39562857Y-87597200D02*
X39420000Y-87644819D01*
X39420000Y-87644819D02*
X39181905Y-87644819D01*
X40705714Y-87644819D02*
X40134286Y-87644819D01*
X40420000Y-87644819D02*
X40420000Y-86644819D01*
X40420000Y-86644819D02*
X40324762Y-86787676D01*
X40324762Y-86787676D02*
X40229524Y-86882914D01*
X40229524Y-86882914D02*
X40134286Y-86930533D01*
X90394761Y-100880057D02*
X90299523Y-100832438D01*
X90299523Y-100832438D02*
X90204285Y-100737200D01*
X90204285Y-100737200D02*
X90061428Y-100594342D01*
X90061428Y-100594342D02*
X89966190Y-100546723D01*
X89966190Y-100546723D02*
X89870952Y-100546723D01*
X89918571Y-100784819D02*
X89823333Y-100737200D01*
X89823333Y-100737200D02*
X89728095Y-100641961D01*
X89728095Y-100641961D02*
X89680476Y-100451485D01*
X89680476Y-100451485D02*
X89680476Y-100118152D01*
X89680476Y-100118152D02*
X89728095Y-99927676D01*
X89728095Y-99927676D02*
X89823333Y-99832438D01*
X89823333Y-99832438D02*
X89918571Y-99784819D01*
X89918571Y-99784819D02*
X90109047Y-99784819D01*
X90109047Y-99784819D02*
X90204285Y-99832438D01*
X90204285Y-99832438D02*
X90299523Y-99927676D01*
X90299523Y-99927676D02*
X90347142Y-100118152D01*
X90347142Y-100118152D02*
X90347142Y-100451485D01*
X90347142Y-100451485D02*
X90299523Y-100641961D01*
X90299523Y-100641961D02*
X90204285Y-100737200D01*
X90204285Y-100737200D02*
X90109047Y-100784819D01*
X90109047Y-100784819D02*
X89918571Y-100784819D01*
X90728095Y-99880057D02*
X90775714Y-99832438D01*
X90775714Y-99832438D02*
X90870952Y-99784819D01*
X90870952Y-99784819D02*
X91109047Y-99784819D01*
X91109047Y-99784819D02*
X91204285Y-99832438D01*
X91204285Y-99832438D02*
X91251904Y-99880057D01*
X91251904Y-99880057D02*
X91299523Y-99975295D01*
X91299523Y-99975295D02*
X91299523Y-100070533D01*
X91299523Y-100070533D02*
X91251904Y-100213390D01*
X91251904Y-100213390D02*
X90680476Y-100784819D01*
X90680476Y-100784819D02*
X91299523Y-100784819D01*
X57587142Y-114584819D02*
X57253809Y-114108628D01*
X57015714Y-114584819D02*
X57015714Y-113584819D01*
X57015714Y-113584819D02*
X57396666Y-113584819D01*
X57396666Y-113584819D02*
X57491904Y-113632438D01*
X57491904Y-113632438D02*
X57539523Y-113680057D01*
X57539523Y-113680057D02*
X57587142Y-113775295D01*
X57587142Y-113775295D02*
X57587142Y-113918152D01*
X57587142Y-113918152D02*
X57539523Y-114013390D01*
X57539523Y-114013390D02*
X57491904Y-114061009D01*
X57491904Y-114061009D02*
X57396666Y-114108628D01*
X57396666Y-114108628D02*
X57015714Y-114108628D01*
X57968095Y-113680057D02*
X58015714Y-113632438D01*
X58015714Y-113632438D02*
X58110952Y-113584819D01*
X58110952Y-113584819D02*
X58349047Y-113584819D01*
X58349047Y-113584819D02*
X58444285Y-113632438D01*
X58444285Y-113632438D02*
X58491904Y-113680057D01*
X58491904Y-113680057D02*
X58539523Y-113775295D01*
X58539523Y-113775295D02*
X58539523Y-113870533D01*
X58539523Y-113870533D02*
X58491904Y-114013390D01*
X58491904Y-114013390D02*
X57920476Y-114584819D01*
X57920476Y-114584819D02*
X58539523Y-114584819D01*
X58872857Y-113584819D02*
X59491904Y-113584819D01*
X59491904Y-113584819D02*
X59158571Y-113965771D01*
X59158571Y-113965771D02*
X59301428Y-113965771D01*
X59301428Y-113965771D02*
X59396666Y-114013390D01*
X59396666Y-114013390D02*
X59444285Y-114061009D01*
X59444285Y-114061009D02*
X59491904Y-114156247D01*
X59491904Y-114156247D02*
X59491904Y-114394342D01*
X59491904Y-114394342D02*
X59444285Y-114489580D01*
X59444285Y-114489580D02*
X59396666Y-114537200D01*
X59396666Y-114537200D02*
X59301428Y-114584819D01*
X59301428Y-114584819D02*
X59015714Y-114584819D01*
X59015714Y-114584819D02*
X58920476Y-114537200D01*
X58920476Y-114537200D02*
X58872857Y-114489580D01*
X97555714Y-87644819D02*
X97555714Y-86644819D01*
X97555714Y-86644819D02*
X97793809Y-86644819D01*
X97793809Y-86644819D02*
X97936666Y-86692438D01*
X97936666Y-86692438D02*
X98031904Y-86787676D01*
X98031904Y-86787676D02*
X98079523Y-86882914D01*
X98079523Y-86882914D02*
X98127142Y-87073390D01*
X98127142Y-87073390D02*
X98127142Y-87216247D01*
X98127142Y-87216247D02*
X98079523Y-87406723D01*
X98079523Y-87406723D02*
X98031904Y-87501961D01*
X98031904Y-87501961D02*
X97936666Y-87597200D01*
X97936666Y-87597200D02*
X97793809Y-87644819D01*
X97793809Y-87644819D02*
X97555714Y-87644819D01*
X99079523Y-87644819D02*
X98508095Y-87644819D01*
X98793809Y-87644819D02*
X98793809Y-86644819D01*
X98793809Y-86644819D02*
X98698571Y-86787676D01*
X98698571Y-86787676D02*
X98603333Y-86882914D01*
X98603333Y-86882914D02*
X98508095Y-86930533D01*
X99460476Y-86740057D02*
X99508095Y-86692438D01*
X99508095Y-86692438D02*
X99603333Y-86644819D01*
X99603333Y-86644819D02*
X99841428Y-86644819D01*
X99841428Y-86644819D02*
X99936666Y-86692438D01*
X99936666Y-86692438D02*
X99984285Y-86740057D01*
X99984285Y-86740057D02*
X100031904Y-86835295D01*
X100031904Y-86835295D02*
X100031904Y-86930533D01*
X100031904Y-86930533D02*
X99984285Y-87073390D01*
X99984285Y-87073390D02*
X99412857Y-87644819D01*
X99412857Y-87644819D02*
X100031904Y-87644819D01*
X97555714Y-60294819D02*
X97555714Y-59294819D01*
X97555714Y-59294819D02*
X97793809Y-59294819D01*
X97793809Y-59294819D02*
X97936666Y-59342438D01*
X97936666Y-59342438D02*
X98031904Y-59437676D01*
X98031904Y-59437676D02*
X98079523Y-59532914D01*
X98079523Y-59532914D02*
X98127142Y-59723390D01*
X98127142Y-59723390D02*
X98127142Y-59866247D01*
X98127142Y-59866247D02*
X98079523Y-60056723D01*
X98079523Y-60056723D02*
X98031904Y-60151961D01*
X98031904Y-60151961D02*
X97936666Y-60247200D01*
X97936666Y-60247200D02*
X97793809Y-60294819D01*
X97793809Y-60294819D02*
X97555714Y-60294819D01*
X99079523Y-60294819D02*
X98508095Y-60294819D01*
X98793809Y-60294819D02*
X98793809Y-59294819D01*
X98793809Y-59294819D02*
X98698571Y-59437676D01*
X98698571Y-59437676D02*
X98603333Y-59532914D01*
X98603333Y-59532914D02*
X98508095Y-59580533D01*
X100031904Y-60294819D02*
X99460476Y-60294819D01*
X99746190Y-60294819D02*
X99746190Y-59294819D01*
X99746190Y-59294819D02*
X99650952Y-59437676D01*
X99650952Y-59437676D02*
X99555714Y-59532914D01*
X99555714Y-59532914D02*
X99460476Y-59580533D01*
X59647142Y-112184819D02*
X59313809Y-111708628D01*
X59075714Y-112184819D02*
X59075714Y-111184819D01*
X59075714Y-111184819D02*
X59456666Y-111184819D01*
X59456666Y-111184819D02*
X59551904Y-111232438D01*
X59551904Y-111232438D02*
X59599523Y-111280057D01*
X59599523Y-111280057D02*
X59647142Y-111375295D01*
X59647142Y-111375295D02*
X59647142Y-111518152D01*
X59647142Y-111518152D02*
X59599523Y-111613390D01*
X59599523Y-111613390D02*
X59551904Y-111661009D01*
X59551904Y-111661009D02*
X59456666Y-111708628D01*
X59456666Y-111708628D02*
X59075714Y-111708628D01*
X60028095Y-111280057D02*
X60075714Y-111232438D01*
X60075714Y-111232438D02*
X60170952Y-111184819D01*
X60170952Y-111184819D02*
X60409047Y-111184819D01*
X60409047Y-111184819D02*
X60504285Y-111232438D01*
X60504285Y-111232438D02*
X60551904Y-111280057D01*
X60551904Y-111280057D02*
X60599523Y-111375295D01*
X60599523Y-111375295D02*
X60599523Y-111470533D01*
X60599523Y-111470533D02*
X60551904Y-111613390D01*
X60551904Y-111613390D02*
X59980476Y-112184819D01*
X59980476Y-112184819D02*
X60599523Y-112184819D01*
X61218571Y-111184819D02*
X61313809Y-111184819D01*
X61313809Y-111184819D02*
X61409047Y-111232438D01*
X61409047Y-111232438D02*
X61456666Y-111280057D01*
X61456666Y-111280057D02*
X61504285Y-111375295D01*
X61504285Y-111375295D02*
X61551904Y-111565771D01*
X61551904Y-111565771D02*
X61551904Y-111803866D01*
X61551904Y-111803866D02*
X61504285Y-111994342D01*
X61504285Y-111994342D02*
X61456666Y-112089580D01*
X61456666Y-112089580D02*
X61409047Y-112137200D01*
X61409047Y-112137200D02*
X61313809Y-112184819D01*
X61313809Y-112184819D02*
X61218571Y-112184819D01*
X61218571Y-112184819D02*
X61123333Y-112137200D01*
X61123333Y-112137200D02*
X61075714Y-112089580D01*
X61075714Y-112089580D02*
X61028095Y-111994342D01*
X61028095Y-111994342D02*
X60980476Y-111803866D01*
X60980476Y-111803866D02*
X60980476Y-111565771D01*
X60980476Y-111565771D02*
X61028095Y-111375295D01*
X61028095Y-111375295D02*
X61075714Y-111280057D01*
X61075714Y-111280057D02*
X61123333Y-111232438D01*
X61123333Y-111232438D02*
X61218571Y-111184819D01*
X98705714Y-31644819D02*
X98705714Y-30644819D01*
X98705714Y-30644819D02*
X98943809Y-30644819D01*
X98943809Y-30644819D02*
X99086666Y-30692438D01*
X99086666Y-30692438D02*
X99181904Y-30787676D01*
X99181904Y-30787676D02*
X99229523Y-30882914D01*
X99229523Y-30882914D02*
X99277142Y-31073390D01*
X99277142Y-31073390D02*
X99277142Y-31216247D01*
X99277142Y-31216247D02*
X99229523Y-31406723D01*
X99229523Y-31406723D02*
X99181904Y-31501961D01*
X99181904Y-31501961D02*
X99086666Y-31597200D01*
X99086666Y-31597200D02*
X98943809Y-31644819D01*
X98943809Y-31644819D02*
X98705714Y-31644819D01*
X100229523Y-31644819D02*
X99658095Y-31644819D01*
X99943809Y-31644819D02*
X99943809Y-30644819D01*
X99943809Y-30644819D02*
X99848571Y-30787676D01*
X99848571Y-30787676D02*
X99753333Y-30882914D01*
X99753333Y-30882914D02*
X99658095Y-30930533D01*
X100848571Y-30644819D02*
X100943809Y-30644819D01*
X100943809Y-30644819D02*
X101039047Y-30692438D01*
X101039047Y-30692438D02*
X101086666Y-30740057D01*
X101086666Y-30740057D02*
X101134285Y-30835295D01*
X101134285Y-30835295D02*
X101181904Y-31025771D01*
X101181904Y-31025771D02*
X101181904Y-31263866D01*
X101181904Y-31263866D02*
X101134285Y-31454342D01*
X101134285Y-31454342D02*
X101086666Y-31549580D01*
X101086666Y-31549580D02*
X101039047Y-31597200D01*
X101039047Y-31597200D02*
X100943809Y-31644819D01*
X100943809Y-31644819D02*
X100848571Y-31644819D01*
X100848571Y-31644819D02*
X100753333Y-31597200D01*
X100753333Y-31597200D02*
X100705714Y-31549580D01*
X100705714Y-31549580D02*
X100658095Y-31454342D01*
X100658095Y-31454342D02*
X100610476Y-31263866D01*
X100610476Y-31263866D02*
X100610476Y-31025771D01*
X100610476Y-31025771D02*
X100658095Y-30835295D01*
X100658095Y-30835295D02*
X100705714Y-30740057D01*
X100705714Y-30740057D02*
X100753333Y-30692438D01*
X100753333Y-30692438D02*
X100848571Y-30644819D01*
X101316666Y-116964819D02*
X101316666Y-117679104D01*
X101316666Y-117679104D02*
X101269047Y-117821961D01*
X101269047Y-117821961D02*
X101173809Y-117917200D01*
X101173809Y-117917200D02*
X101030952Y-117964819D01*
X101030952Y-117964819D02*
X100935714Y-117964819D01*
X102221428Y-117298152D02*
X102221428Y-117964819D01*
X101983333Y-116917200D02*
X101745238Y-117631485D01*
X101745238Y-117631485D02*
X102364285Y-117631485D01*
X69648095Y-98254819D02*
X69648095Y-99064342D01*
X69648095Y-99064342D02*
X69695714Y-99159580D01*
X69695714Y-99159580D02*
X69743333Y-99207200D01*
X69743333Y-99207200D02*
X69838571Y-99254819D01*
X69838571Y-99254819D02*
X70029047Y-99254819D01*
X70029047Y-99254819D02*
X70124285Y-99207200D01*
X70124285Y-99207200D02*
X70171904Y-99159580D01*
X70171904Y-99159580D02*
X70219523Y-99064342D01*
X70219523Y-99064342D02*
X70219523Y-98254819D01*
X70600476Y-98254819D02*
X71219523Y-98254819D01*
X71219523Y-98254819D02*
X70886190Y-98635771D01*
X70886190Y-98635771D02*
X71029047Y-98635771D01*
X71029047Y-98635771D02*
X71124285Y-98683390D01*
X71124285Y-98683390D02*
X71171904Y-98731009D01*
X71171904Y-98731009D02*
X71219523Y-98826247D01*
X71219523Y-98826247D02*
X71219523Y-99064342D01*
X71219523Y-99064342D02*
X71171904Y-99159580D01*
X71171904Y-99159580D02*
X71124285Y-99207200D01*
X71124285Y-99207200D02*
X71029047Y-99254819D01*
X71029047Y-99254819D02*
X70743333Y-99254819D01*
X70743333Y-99254819D02*
X70648095Y-99207200D01*
X70648095Y-99207200D02*
X70600476Y-99159580D01*
X69181905Y-32794819D02*
X69181905Y-31794819D01*
X69181905Y-31794819D02*
X69420000Y-31794819D01*
X69420000Y-31794819D02*
X69562857Y-31842438D01*
X69562857Y-31842438D02*
X69658095Y-31937676D01*
X69658095Y-31937676D02*
X69705714Y-32032914D01*
X69705714Y-32032914D02*
X69753333Y-32223390D01*
X69753333Y-32223390D02*
X69753333Y-32366247D01*
X69753333Y-32366247D02*
X69705714Y-32556723D01*
X69705714Y-32556723D02*
X69658095Y-32651961D01*
X69658095Y-32651961D02*
X69562857Y-32747200D01*
X69562857Y-32747200D02*
X69420000Y-32794819D01*
X69420000Y-32794819D02*
X69181905Y-32794819D01*
X70086667Y-31794819D02*
X70753333Y-31794819D01*
X70753333Y-31794819D02*
X70324762Y-32794819D01*
X93164819Y-116518094D02*
X92164819Y-116518094D01*
X92164819Y-116518094D02*
X92164819Y-116279999D01*
X92164819Y-116279999D02*
X92212438Y-116137142D01*
X92212438Y-116137142D02*
X92307676Y-116041904D01*
X92307676Y-116041904D02*
X92402914Y-115994285D01*
X92402914Y-115994285D02*
X92593390Y-115946666D01*
X92593390Y-115946666D02*
X92736247Y-115946666D01*
X92736247Y-115946666D02*
X92926723Y-115994285D01*
X92926723Y-115994285D02*
X93021961Y-116041904D01*
X93021961Y-116041904D02*
X93117200Y-116137142D01*
X93117200Y-116137142D02*
X93164819Y-116279999D01*
X93164819Y-116279999D02*
X93164819Y-116518094D01*
X92164819Y-115613332D02*
X92164819Y-114994285D01*
X92164819Y-114994285D02*
X92545771Y-115327618D01*
X92545771Y-115327618D02*
X92545771Y-115184761D01*
X92545771Y-115184761D02*
X92593390Y-115089523D01*
X92593390Y-115089523D02*
X92641009Y-115041904D01*
X92641009Y-115041904D02*
X92736247Y-114994285D01*
X92736247Y-114994285D02*
X92974342Y-114994285D01*
X92974342Y-114994285D02*
X93069580Y-115041904D01*
X93069580Y-115041904D02*
X93117200Y-115089523D01*
X93117200Y-115089523D02*
X93164819Y-115184761D01*
X93164819Y-115184761D02*
X93164819Y-115470475D01*
X93164819Y-115470475D02*
X93117200Y-115565713D01*
X93117200Y-115565713D02*
X93069580Y-115613332D01*
X93264819Y-121658094D02*
X92264819Y-121658094D01*
X92264819Y-121658094D02*
X92264819Y-121419999D01*
X92264819Y-121419999D02*
X92312438Y-121277142D01*
X92312438Y-121277142D02*
X92407676Y-121181904D01*
X92407676Y-121181904D02*
X92502914Y-121134285D01*
X92502914Y-121134285D02*
X92693390Y-121086666D01*
X92693390Y-121086666D02*
X92836247Y-121086666D01*
X92836247Y-121086666D02*
X93026723Y-121134285D01*
X93026723Y-121134285D02*
X93121961Y-121181904D01*
X93121961Y-121181904D02*
X93217200Y-121277142D01*
X93217200Y-121277142D02*
X93264819Y-121419999D01*
X93264819Y-121419999D02*
X93264819Y-121658094D01*
X92598152Y-120229523D02*
X93264819Y-120229523D01*
X92217200Y-120467618D02*
X92931485Y-120705713D01*
X92931485Y-120705713D02*
X92931485Y-120086666D01*
X69181905Y-60494819D02*
X69181905Y-59494819D01*
X69181905Y-59494819D02*
X69420000Y-59494819D01*
X69420000Y-59494819D02*
X69562857Y-59542438D01*
X69562857Y-59542438D02*
X69658095Y-59637676D01*
X69658095Y-59637676D02*
X69705714Y-59732914D01*
X69705714Y-59732914D02*
X69753333Y-59923390D01*
X69753333Y-59923390D02*
X69753333Y-60066247D01*
X69753333Y-60066247D02*
X69705714Y-60256723D01*
X69705714Y-60256723D02*
X69658095Y-60351961D01*
X69658095Y-60351961D02*
X69562857Y-60447200D01*
X69562857Y-60447200D02*
X69420000Y-60494819D01*
X69420000Y-60494819D02*
X69181905Y-60494819D01*
X70324762Y-59923390D02*
X70229524Y-59875771D01*
X70229524Y-59875771D02*
X70181905Y-59828152D01*
X70181905Y-59828152D02*
X70134286Y-59732914D01*
X70134286Y-59732914D02*
X70134286Y-59685295D01*
X70134286Y-59685295D02*
X70181905Y-59590057D01*
X70181905Y-59590057D02*
X70229524Y-59542438D01*
X70229524Y-59542438D02*
X70324762Y-59494819D01*
X70324762Y-59494819D02*
X70515238Y-59494819D01*
X70515238Y-59494819D02*
X70610476Y-59542438D01*
X70610476Y-59542438D02*
X70658095Y-59590057D01*
X70658095Y-59590057D02*
X70705714Y-59685295D01*
X70705714Y-59685295D02*
X70705714Y-59732914D01*
X70705714Y-59732914D02*
X70658095Y-59828152D01*
X70658095Y-59828152D02*
X70610476Y-59875771D01*
X70610476Y-59875771D02*
X70515238Y-59923390D01*
X70515238Y-59923390D02*
X70324762Y-59923390D01*
X70324762Y-59923390D02*
X70229524Y-59971009D01*
X70229524Y-59971009D02*
X70181905Y-60018628D01*
X70181905Y-60018628D02*
X70134286Y-60113866D01*
X70134286Y-60113866D02*
X70134286Y-60304342D01*
X70134286Y-60304342D02*
X70181905Y-60399580D01*
X70181905Y-60399580D02*
X70229524Y-60447200D01*
X70229524Y-60447200D02*
X70324762Y-60494819D01*
X70324762Y-60494819D02*
X70515238Y-60494819D01*
X70515238Y-60494819D02*
X70610476Y-60447200D01*
X70610476Y-60447200D02*
X70658095Y-60399580D01*
X70658095Y-60399580D02*
X70705714Y-60304342D01*
X70705714Y-60304342D02*
X70705714Y-60113866D01*
X70705714Y-60113866D02*
X70658095Y-60018628D01*
X70658095Y-60018628D02*
X70610476Y-59971009D01*
X70610476Y-59971009D02*
X70515238Y-59923390D01*
X115437142Y-118324819D02*
X115103809Y-117848628D01*
X114865714Y-118324819D02*
X114865714Y-117324819D01*
X114865714Y-117324819D02*
X115246666Y-117324819D01*
X115246666Y-117324819D02*
X115341904Y-117372438D01*
X115341904Y-117372438D02*
X115389523Y-117420057D01*
X115389523Y-117420057D02*
X115437142Y-117515295D01*
X115437142Y-117515295D02*
X115437142Y-117658152D01*
X115437142Y-117658152D02*
X115389523Y-117753390D01*
X115389523Y-117753390D02*
X115341904Y-117801009D01*
X115341904Y-117801009D02*
X115246666Y-117848628D01*
X115246666Y-117848628D02*
X114865714Y-117848628D01*
X116389523Y-118324819D02*
X115818095Y-118324819D01*
X116103809Y-118324819D02*
X116103809Y-117324819D01*
X116103809Y-117324819D02*
X116008571Y-117467676D01*
X116008571Y-117467676D02*
X115913333Y-117562914D01*
X115913333Y-117562914D02*
X115818095Y-117610533D01*
X116722857Y-117324819D02*
X117341904Y-117324819D01*
X117341904Y-117324819D02*
X117008571Y-117705771D01*
X117008571Y-117705771D02*
X117151428Y-117705771D01*
X117151428Y-117705771D02*
X117246666Y-117753390D01*
X117246666Y-117753390D02*
X117294285Y-117801009D01*
X117294285Y-117801009D02*
X117341904Y-117896247D01*
X117341904Y-117896247D02*
X117341904Y-118134342D01*
X117341904Y-118134342D02*
X117294285Y-118229580D01*
X117294285Y-118229580D02*
X117246666Y-118277200D01*
X117246666Y-118277200D02*
X117151428Y-118324819D01*
X117151428Y-118324819D02*
X116865714Y-118324819D01*
X116865714Y-118324819D02*
X116770476Y-118277200D01*
X116770476Y-118277200D02*
X116722857Y-118229580D01*
X71457142Y-112194819D02*
X71123809Y-111718628D01*
X70885714Y-112194819D02*
X70885714Y-111194819D01*
X70885714Y-111194819D02*
X71266666Y-111194819D01*
X71266666Y-111194819D02*
X71361904Y-111242438D01*
X71361904Y-111242438D02*
X71409523Y-111290057D01*
X71409523Y-111290057D02*
X71457142Y-111385295D01*
X71457142Y-111385295D02*
X71457142Y-111528152D01*
X71457142Y-111528152D02*
X71409523Y-111623390D01*
X71409523Y-111623390D02*
X71361904Y-111671009D01*
X71361904Y-111671009D02*
X71266666Y-111718628D01*
X71266666Y-111718628D02*
X70885714Y-111718628D01*
X72409523Y-112194819D02*
X71838095Y-112194819D01*
X72123809Y-112194819D02*
X72123809Y-111194819D01*
X72123809Y-111194819D02*
X72028571Y-111337676D01*
X72028571Y-111337676D02*
X71933333Y-111432914D01*
X71933333Y-111432914D02*
X71838095Y-111480533D01*
X73266666Y-111194819D02*
X73076190Y-111194819D01*
X73076190Y-111194819D02*
X72980952Y-111242438D01*
X72980952Y-111242438D02*
X72933333Y-111290057D01*
X72933333Y-111290057D02*
X72838095Y-111432914D01*
X72838095Y-111432914D02*
X72790476Y-111623390D01*
X72790476Y-111623390D02*
X72790476Y-112004342D01*
X72790476Y-112004342D02*
X72838095Y-112099580D01*
X72838095Y-112099580D02*
X72885714Y-112147200D01*
X72885714Y-112147200D02*
X72980952Y-112194819D01*
X72980952Y-112194819D02*
X73171428Y-112194819D01*
X73171428Y-112194819D02*
X73266666Y-112147200D01*
X73266666Y-112147200D02*
X73314285Y-112099580D01*
X73314285Y-112099580D02*
X73361904Y-112004342D01*
X73361904Y-112004342D02*
X73361904Y-111766247D01*
X73361904Y-111766247D02*
X73314285Y-111671009D01*
X73314285Y-111671009D02*
X73266666Y-111623390D01*
X73266666Y-111623390D02*
X73171428Y-111575771D01*
X73171428Y-111575771D02*
X72980952Y-111575771D01*
X72980952Y-111575771D02*
X72885714Y-111623390D01*
X72885714Y-111623390D02*
X72838095Y-111671009D01*
X72838095Y-111671009D02*
X72790476Y-111766247D01*
X41603333Y-109814819D02*
X41270000Y-109338628D01*
X41031905Y-109814819D02*
X41031905Y-108814819D01*
X41031905Y-108814819D02*
X41412857Y-108814819D01*
X41412857Y-108814819D02*
X41508095Y-108862438D01*
X41508095Y-108862438D02*
X41555714Y-108910057D01*
X41555714Y-108910057D02*
X41603333Y-109005295D01*
X41603333Y-109005295D02*
X41603333Y-109148152D01*
X41603333Y-109148152D02*
X41555714Y-109243390D01*
X41555714Y-109243390D02*
X41508095Y-109291009D01*
X41508095Y-109291009D02*
X41412857Y-109338628D01*
X41412857Y-109338628D02*
X41031905Y-109338628D01*
X41984286Y-108910057D02*
X42031905Y-108862438D01*
X42031905Y-108862438D02*
X42127143Y-108814819D01*
X42127143Y-108814819D02*
X42365238Y-108814819D01*
X42365238Y-108814819D02*
X42460476Y-108862438D01*
X42460476Y-108862438D02*
X42508095Y-108910057D01*
X42508095Y-108910057D02*
X42555714Y-109005295D01*
X42555714Y-109005295D02*
X42555714Y-109100533D01*
X42555714Y-109100533D02*
X42508095Y-109243390D01*
X42508095Y-109243390D02*
X41936667Y-109814819D01*
X41936667Y-109814819D02*
X42555714Y-109814819D01*
X81457142Y-110044819D02*
X81123809Y-109568628D01*
X80885714Y-110044819D02*
X80885714Y-109044819D01*
X80885714Y-109044819D02*
X81266666Y-109044819D01*
X81266666Y-109044819D02*
X81361904Y-109092438D01*
X81361904Y-109092438D02*
X81409523Y-109140057D01*
X81409523Y-109140057D02*
X81457142Y-109235295D01*
X81457142Y-109235295D02*
X81457142Y-109378152D01*
X81457142Y-109378152D02*
X81409523Y-109473390D01*
X81409523Y-109473390D02*
X81361904Y-109521009D01*
X81361904Y-109521009D02*
X81266666Y-109568628D01*
X81266666Y-109568628D02*
X80885714Y-109568628D01*
X82409523Y-110044819D02*
X81838095Y-110044819D01*
X82123809Y-110044819D02*
X82123809Y-109044819D01*
X82123809Y-109044819D02*
X82028571Y-109187676D01*
X82028571Y-109187676D02*
X81933333Y-109282914D01*
X81933333Y-109282914D02*
X81838095Y-109330533D01*
X83028571Y-109044819D02*
X83123809Y-109044819D01*
X83123809Y-109044819D02*
X83219047Y-109092438D01*
X83219047Y-109092438D02*
X83266666Y-109140057D01*
X83266666Y-109140057D02*
X83314285Y-109235295D01*
X83314285Y-109235295D02*
X83361904Y-109425771D01*
X83361904Y-109425771D02*
X83361904Y-109663866D01*
X83361904Y-109663866D02*
X83314285Y-109854342D01*
X83314285Y-109854342D02*
X83266666Y-109949580D01*
X83266666Y-109949580D02*
X83219047Y-109997200D01*
X83219047Y-109997200D02*
X83123809Y-110044819D01*
X83123809Y-110044819D02*
X83028571Y-110044819D01*
X83028571Y-110044819D02*
X82933333Y-109997200D01*
X82933333Y-109997200D02*
X82885714Y-109949580D01*
X82885714Y-109949580D02*
X82838095Y-109854342D01*
X82838095Y-109854342D02*
X82790476Y-109663866D01*
X82790476Y-109663866D02*
X82790476Y-109425771D01*
X82790476Y-109425771D02*
X82838095Y-109235295D01*
X82838095Y-109235295D02*
X82885714Y-109140057D01*
X82885714Y-109140057D02*
X82933333Y-109092438D01*
X82933333Y-109092438D02*
X83028571Y-109044819D01*
X69181905Y-87644819D02*
X69181905Y-86644819D01*
X69181905Y-86644819D02*
X69420000Y-86644819D01*
X69420000Y-86644819D02*
X69562857Y-86692438D01*
X69562857Y-86692438D02*
X69658095Y-86787676D01*
X69658095Y-86787676D02*
X69705714Y-86882914D01*
X69705714Y-86882914D02*
X69753333Y-87073390D01*
X69753333Y-87073390D02*
X69753333Y-87216247D01*
X69753333Y-87216247D02*
X69705714Y-87406723D01*
X69705714Y-87406723D02*
X69658095Y-87501961D01*
X69658095Y-87501961D02*
X69562857Y-87597200D01*
X69562857Y-87597200D02*
X69420000Y-87644819D01*
X69420000Y-87644819D02*
X69181905Y-87644819D01*
X70229524Y-87644819D02*
X70420000Y-87644819D01*
X70420000Y-87644819D02*
X70515238Y-87597200D01*
X70515238Y-87597200D02*
X70562857Y-87549580D01*
X70562857Y-87549580D02*
X70658095Y-87406723D01*
X70658095Y-87406723D02*
X70705714Y-87216247D01*
X70705714Y-87216247D02*
X70705714Y-86835295D01*
X70705714Y-86835295D02*
X70658095Y-86740057D01*
X70658095Y-86740057D02*
X70610476Y-86692438D01*
X70610476Y-86692438D02*
X70515238Y-86644819D01*
X70515238Y-86644819D02*
X70324762Y-86644819D01*
X70324762Y-86644819D02*
X70229524Y-86692438D01*
X70229524Y-86692438D02*
X70181905Y-86740057D01*
X70181905Y-86740057D02*
X70134286Y-86835295D01*
X70134286Y-86835295D02*
X70134286Y-87073390D01*
X70134286Y-87073390D02*
X70181905Y-87168628D01*
X70181905Y-87168628D02*
X70229524Y-87216247D01*
X70229524Y-87216247D02*
X70324762Y-87263866D01*
X70324762Y-87263866D02*
X70515238Y-87263866D01*
X70515238Y-87263866D02*
X70610476Y-87216247D01*
X70610476Y-87216247D02*
X70658095Y-87168628D01*
X70658095Y-87168628D02*
X70705714Y-87073390D01*
X27927142Y-106964819D02*
X27593809Y-106488628D01*
X27355714Y-106964819D02*
X27355714Y-105964819D01*
X27355714Y-105964819D02*
X27736666Y-105964819D01*
X27736666Y-105964819D02*
X27831904Y-106012438D01*
X27831904Y-106012438D02*
X27879523Y-106060057D01*
X27879523Y-106060057D02*
X27927142Y-106155295D01*
X27927142Y-106155295D02*
X27927142Y-106298152D01*
X27927142Y-106298152D02*
X27879523Y-106393390D01*
X27879523Y-106393390D02*
X27831904Y-106441009D01*
X27831904Y-106441009D02*
X27736666Y-106488628D01*
X27736666Y-106488628D02*
X27355714Y-106488628D01*
X28879523Y-106964819D02*
X28308095Y-106964819D01*
X28593809Y-106964819D02*
X28593809Y-105964819D01*
X28593809Y-105964819D02*
X28498571Y-106107676D01*
X28498571Y-106107676D02*
X28403333Y-106202914D01*
X28403333Y-106202914D02*
X28308095Y-106250533D01*
X29355714Y-106964819D02*
X29546190Y-106964819D01*
X29546190Y-106964819D02*
X29641428Y-106917200D01*
X29641428Y-106917200D02*
X29689047Y-106869580D01*
X29689047Y-106869580D02*
X29784285Y-106726723D01*
X29784285Y-106726723D02*
X29831904Y-106536247D01*
X29831904Y-106536247D02*
X29831904Y-106155295D01*
X29831904Y-106155295D02*
X29784285Y-106060057D01*
X29784285Y-106060057D02*
X29736666Y-106012438D01*
X29736666Y-106012438D02*
X29641428Y-105964819D01*
X29641428Y-105964819D02*
X29450952Y-105964819D01*
X29450952Y-105964819D02*
X29355714Y-106012438D01*
X29355714Y-106012438D02*
X29308095Y-106060057D01*
X29308095Y-106060057D02*
X29260476Y-106155295D01*
X29260476Y-106155295D02*
X29260476Y-106393390D01*
X29260476Y-106393390D02*
X29308095Y-106488628D01*
X29308095Y-106488628D02*
X29355714Y-106536247D01*
X29355714Y-106536247D02*
X29450952Y-106583866D01*
X29450952Y-106583866D02*
X29641428Y-106583866D01*
X29641428Y-106583866D02*
X29736666Y-106536247D01*
X29736666Y-106536247D02*
X29784285Y-106488628D01*
X29784285Y-106488628D02*
X29831904Y-106393390D01*
X47653333Y-108954819D02*
X47320000Y-108478628D01*
X47081905Y-108954819D02*
X47081905Y-107954819D01*
X47081905Y-107954819D02*
X47462857Y-107954819D01*
X47462857Y-107954819D02*
X47558095Y-108002438D01*
X47558095Y-108002438D02*
X47605714Y-108050057D01*
X47605714Y-108050057D02*
X47653333Y-108145295D01*
X47653333Y-108145295D02*
X47653333Y-108288152D01*
X47653333Y-108288152D02*
X47605714Y-108383390D01*
X47605714Y-108383390D02*
X47558095Y-108431009D01*
X47558095Y-108431009D02*
X47462857Y-108478628D01*
X47462857Y-108478628D02*
X47081905Y-108478628D01*
X48605714Y-108954819D02*
X48034286Y-108954819D01*
X48320000Y-108954819D02*
X48320000Y-107954819D01*
X48320000Y-107954819D02*
X48224762Y-108097676D01*
X48224762Y-108097676D02*
X48129524Y-108192914D01*
X48129524Y-108192914D02*
X48034286Y-108240533D01*
X99730833Y-106169580D02*
X99683214Y-106217200D01*
X99683214Y-106217200D02*
X99540357Y-106264819D01*
X99540357Y-106264819D02*
X99445119Y-106264819D01*
X99445119Y-106264819D02*
X99302262Y-106217200D01*
X99302262Y-106217200D02*
X99207024Y-106121961D01*
X99207024Y-106121961D02*
X99159405Y-106026723D01*
X99159405Y-106026723D02*
X99111786Y-105836247D01*
X99111786Y-105836247D02*
X99111786Y-105693390D01*
X99111786Y-105693390D02*
X99159405Y-105502914D01*
X99159405Y-105502914D02*
X99207024Y-105407676D01*
X99207024Y-105407676D02*
X99302262Y-105312438D01*
X99302262Y-105312438D02*
X99445119Y-105264819D01*
X99445119Y-105264819D02*
X99540357Y-105264819D01*
X99540357Y-105264819D02*
X99683214Y-105312438D01*
X99683214Y-105312438D02*
X99730833Y-105360057D01*
X100064167Y-105264819D02*
X100683214Y-105264819D01*
X100683214Y-105264819D02*
X100349881Y-105645771D01*
X100349881Y-105645771D02*
X100492738Y-105645771D01*
X100492738Y-105645771D02*
X100587976Y-105693390D01*
X100587976Y-105693390D02*
X100635595Y-105741009D01*
X100635595Y-105741009D02*
X100683214Y-105836247D01*
X100683214Y-105836247D02*
X100683214Y-106074342D01*
X100683214Y-106074342D02*
X100635595Y-106169580D01*
X100635595Y-106169580D02*
X100587976Y-106217200D01*
X100587976Y-106217200D02*
X100492738Y-106264819D01*
X100492738Y-106264819D02*
X100207024Y-106264819D01*
X100207024Y-106264819D02*
X100111786Y-106217200D01*
X100111786Y-106217200D02*
X100064167Y-106169580D01*
X115467142Y-113134819D02*
X115133809Y-112658628D01*
X114895714Y-113134819D02*
X114895714Y-112134819D01*
X114895714Y-112134819D02*
X115276666Y-112134819D01*
X115276666Y-112134819D02*
X115371904Y-112182438D01*
X115371904Y-112182438D02*
X115419523Y-112230057D01*
X115419523Y-112230057D02*
X115467142Y-112325295D01*
X115467142Y-112325295D02*
X115467142Y-112468152D01*
X115467142Y-112468152D02*
X115419523Y-112563390D01*
X115419523Y-112563390D02*
X115371904Y-112611009D01*
X115371904Y-112611009D02*
X115276666Y-112658628D01*
X115276666Y-112658628D02*
X114895714Y-112658628D01*
X116419523Y-113134819D02*
X115848095Y-113134819D01*
X116133809Y-113134819D02*
X116133809Y-112134819D01*
X116133809Y-112134819D02*
X116038571Y-112277676D01*
X116038571Y-112277676D02*
X115943333Y-112372914D01*
X115943333Y-112372914D02*
X115848095Y-112420533D01*
X117371904Y-113134819D02*
X116800476Y-113134819D01*
X117086190Y-113134819D02*
X117086190Y-112134819D01*
X117086190Y-112134819D02*
X116990952Y-112277676D01*
X116990952Y-112277676D02*
X116895714Y-112372914D01*
X116895714Y-112372914D02*
X116800476Y-112420533D01*
X62582080Y-106586666D02*
X62629700Y-106634285D01*
X62629700Y-106634285D02*
X62677319Y-106777142D01*
X62677319Y-106777142D02*
X62677319Y-106872380D01*
X62677319Y-106872380D02*
X62629700Y-107015237D01*
X62629700Y-107015237D02*
X62534461Y-107110475D01*
X62534461Y-107110475D02*
X62439223Y-107158094D01*
X62439223Y-107158094D02*
X62248747Y-107205713D01*
X62248747Y-107205713D02*
X62105890Y-107205713D01*
X62105890Y-107205713D02*
X61915414Y-107158094D01*
X61915414Y-107158094D02*
X61820176Y-107110475D01*
X61820176Y-107110475D02*
X61724938Y-107015237D01*
X61724938Y-107015237D02*
X61677319Y-106872380D01*
X61677319Y-106872380D02*
X61677319Y-106777142D01*
X61677319Y-106777142D02*
X61724938Y-106634285D01*
X61724938Y-106634285D02*
X61772557Y-106586666D01*
X61772557Y-106205713D02*
X61724938Y-106158094D01*
X61724938Y-106158094D02*
X61677319Y-106062856D01*
X61677319Y-106062856D02*
X61677319Y-105824761D01*
X61677319Y-105824761D02*
X61724938Y-105729523D01*
X61724938Y-105729523D02*
X61772557Y-105681904D01*
X61772557Y-105681904D02*
X61867795Y-105634285D01*
X61867795Y-105634285D02*
X61963033Y-105634285D01*
X61963033Y-105634285D02*
X62105890Y-105681904D01*
X62105890Y-105681904D02*
X62677319Y-106253332D01*
X62677319Y-106253332D02*
X62677319Y-105634285D01*
X109847142Y-110944819D02*
X109513809Y-110468628D01*
X109275714Y-110944819D02*
X109275714Y-109944819D01*
X109275714Y-109944819D02*
X109656666Y-109944819D01*
X109656666Y-109944819D02*
X109751904Y-109992438D01*
X109751904Y-109992438D02*
X109799523Y-110040057D01*
X109799523Y-110040057D02*
X109847142Y-110135295D01*
X109847142Y-110135295D02*
X109847142Y-110278152D01*
X109847142Y-110278152D02*
X109799523Y-110373390D01*
X109799523Y-110373390D02*
X109751904Y-110421009D01*
X109751904Y-110421009D02*
X109656666Y-110468628D01*
X109656666Y-110468628D02*
X109275714Y-110468628D01*
X110799523Y-110944819D02*
X110228095Y-110944819D01*
X110513809Y-110944819D02*
X110513809Y-109944819D01*
X110513809Y-109944819D02*
X110418571Y-110087676D01*
X110418571Y-110087676D02*
X110323333Y-110182914D01*
X110323333Y-110182914D02*
X110228095Y-110230533D01*
X111656666Y-110278152D02*
X111656666Y-110944819D01*
X111418571Y-109897200D02*
X111180476Y-110611485D01*
X111180476Y-110611485D02*
X111799523Y-110611485D01*
X119704761Y-102130057D02*
X119609523Y-102082438D01*
X119609523Y-102082438D02*
X119514285Y-101987200D01*
X119514285Y-101987200D02*
X119371428Y-101844342D01*
X119371428Y-101844342D02*
X119276190Y-101796723D01*
X119276190Y-101796723D02*
X119180952Y-101796723D01*
X119228571Y-102034819D02*
X119133333Y-101987200D01*
X119133333Y-101987200D02*
X119038095Y-101891961D01*
X119038095Y-101891961D02*
X118990476Y-101701485D01*
X118990476Y-101701485D02*
X118990476Y-101368152D01*
X118990476Y-101368152D02*
X119038095Y-101177676D01*
X119038095Y-101177676D02*
X119133333Y-101082438D01*
X119133333Y-101082438D02*
X119228571Y-101034819D01*
X119228571Y-101034819D02*
X119419047Y-101034819D01*
X119419047Y-101034819D02*
X119514285Y-101082438D01*
X119514285Y-101082438D02*
X119609523Y-101177676D01*
X119609523Y-101177676D02*
X119657142Y-101368152D01*
X119657142Y-101368152D02*
X119657142Y-101701485D01*
X119657142Y-101701485D02*
X119609523Y-101891961D01*
X119609523Y-101891961D02*
X119514285Y-101987200D01*
X119514285Y-101987200D02*
X119419047Y-102034819D01*
X119419047Y-102034819D02*
X119228571Y-102034819D01*
X119990476Y-101034819D02*
X120609523Y-101034819D01*
X120609523Y-101034819D02*
X120276190Y-101415771D01*
X120276190Y-101415771D02*
X120419047Y-101415771D01*
X120419047Y-101415771D02*
X120514285Y-101463390D01*
X120514285Y-101463390D02*
X120561904Y-101511009D01*
X120561904Y-101511009D02*
X120609523Y-101606247D01*
X120609523Y-101606247D02*
X120609523Y-101844342D01*
X120609523Y-101844342D02*
X120561904Y-101939580D01*
X120561904Y-101939580D02*
X120514285Y-101987200D01*
X120514285Y-101987200D02*
X120419047Y-102034819D01*
X120419047Y-102034819D02*
X120133333Y-102034819D01*
X120133333Y-102034819D02*
X120038095Y-101987200D01*
X120038095Y-101987200D02*
X119990476Y-101939580D01*
D11*
%TO.C,J1*%
X35750000Y-130700000D02*
X35750000Y-116000000D01*
X44950000Y-130700000D02*
X35750000Y-130700000D01*
X44950000Y-121900000D02*
X44950000Y-130700000D01*
X35550000Y-116850000D02*
X35550000Y-115800000D01*
X35750000Y-116000000D02*
X38350000Y-116000000D01*
X42250000Y-116000000D02*
X44950000Y-116000000D01*
X44950000Y-116000000D02*
X44950000Y-117900000D01*
X36600000Y-115800000D02*
X35550000Y-115800000D01*
%TO.C,R9*%
X75392936Y-105930000D02*
X76847064Y-105930000D01*
X75392936Y-107750000D02*
X76847064Y-107750000D01*
%TO.C,R8*%
X75392936Y-103370000D02*
X76847064Y-103370000D01*
X75392936Y-105190000D02*
X76847064Y-105190000D01*
%TO.C,D2*%
X88080000Y-113620000D02*
X86080000Y-113620000D01*
X88080000Y-113620000D02*
X88080000Y-117630000D01*
X86080000Y-113620000D02*
X86080000Y-117630000D01*
%TO.C,R5*%
X87980000Y-120222936D02*
X87980000Y-121677064D01*
X86160000Y-120222936D02*
X86160000Y-121677064D01*
%TO.C,R3*%
X41292936Y-103980000D02*
X42747064Y-103980000D01*
X41292936Y-105800000D02*
X42747064Y-105800000D01*
%TO.C,R4*%
X41262936Y-101550000D02*
X42717064Y-101550000D01*
X41262936Y-103370000D02*
X42717064Y-103370000D01*
%TO.C,U2*%
X107725000Y-105685000D02*
X107725000Y-103735000D01*
X107725000Y-105685000D02*
X107725000Y-107635000D01*
X102605000Y-105685000D02*
X102605000Y-103735000D01*
X102605000Y-105685000D02*
X102605000Y-107635000D01*
X107960000Y-103225000D02*
X107630000Y-102985000D01*
X107960000Y-102745000D01*
X107960000Y-103225000D01*
G36*
X107960000Y-103225000D02*
G01*
X107630000Y-102985000D01*
X107960000Y-102745000D01*
X107960000Y-103225000D01*
G37*
%TO.C,R18*%
X66822936Y-113220000D02*
X68277064Y-113220000D01*
X66822936Y-115040000D02*
X68277064Y-115040000D01*
%TO.C,RV1*%
X98780000Y-114675000D02*
X93710000Y-114675000D01*
X98780000Y-114675000D02*
X98780000Y-124445000D01*
X93710000Y-114675000D02*
X93710000Y-124445000D01*
X98780000Y-124445000D02*
X93710000Y-124445000D01*
%TO.C,R12*%
X111162936Y-114440000D02*
X112617064Y-114440000D01*
X111162936Y-116260000D02*
X112617064Y-116260000D01*
%TO.C,J3*%
X74500000Y-125300000D02*
X74500000Y-126040000D01*
X74500000Y-126040000D02*
X75000000Y-126040000D01*
X74740000Y-115879000D02*
X74740000Y-125800000D01*
X74740000Y-115879000D02*
X85020000Y-115879000D01*
X74740000Y-118839000D02*
X85020000Y-118839000D01*
X74740000Y-123740000D02*
X85020000Y-123740000D01*
X74740000Y-125240000D02*
X85020000Y-125240000D01*
X74740000Y-125800000D02*
X85020000Y-125800000D01*
X81193000Y-122163000D02*
X81146000Y-122209000D01*
X81386000Y-122379000D02*
X81351000Y-122414000D01*
X83490000Y-119865000D02*
X83455000Y-119901000D01*
X83695000Y-120071000D02*
X83648000Y-120117000D01*
X85020000Y-115879000D02*
X85020000Y-125800000D01*
X75805001Y-120456001D02*
G75*
G03*
X75804574Y-121823042I1534992J-684000D01*
G01*
X78023999Y-119605001D02*
G75*
G03*
X76656958Y-119604574I-684000J-1534992D01*
G01*
X76656000Y-122674999D02*
G75*
G03*
X77368805Y-122820252I683999J1535000D01*
G01*
X77340000Y-122819999D02*
G75*
G03*
X78023318Y-122674755I0J1679999D01*
G01*
X78875000Y-121824000D02*
G75*
G03*
X78875426Y-120456958I-1535000J684000D01*
G01*
X84100000Y-121140000D02*
G75*
G03*
X80740000Y-121140000I-1680000J0D01*
G01*
X80740000Y-121140000D02*
G75*
G03*
X84100000Y-121140000I1680000J0D01*
G01*
%TO.C,R21*%
X95800000Y-110957064D02*
X95800000Y-109502936D01*
X97620000Y-110957064D02*
X97620000Y-109502936D01*
%TO.C,R22*%
X81772936Y-112470000D02*
X83227064Y-112470000D01*
X81772936Y-114290000D02*
X83227064Y-114290000D01*
%TO.C,JP1*%
X107530000Y-124130000D02*
X106200000Y-124130000D01*
X107530000Y-122800000D02*
X107530000Y-124130000D01*
X107530000Y-121530000D02*
X107530000Y-118930000D01*
X107530000Y-121530000D02*
X104870000Y-121530000D01*
X107530000Y-118930000D02*
X104870000Y-118930000D01*
X104870000Y-121530000D02*
X104870000Y-118930000D01*
%TO.C,U1*%
X39140000Y-103010000D02*
X39140000Y-101060000D01*
X39140000Y-103010000D02*
X39140000Y-104960000D01*
X34020000Y-103010000D02*
X34020000Y-101060000D01*
X34020000Y-103010000D02*
X34020000Y-104960000D01*
X39375000Y-100550000D02*
X39045000Y-100310000D01*
X39375000Y-100070000D01*
X39375000Y-100550000D01*
G36*
X39375000Y-100550000D02*
G01*
X39045000Y-100310000D01*
X39375000Y-100070000D01*
X39375000Y-100550000D01*
G37*
%TO.C,C4*%
X31713752Y-102755000D02*
X31191248Y-102755000D01*
X31713752Y-101285000D02*
X31191248Y-101285000D01*
%TO.C,C1*%
X73705000Y-117198748D02*
X73705000Y-117721252D01*
X72235000Y-117198748D02*
X72235000Y-117721252D01*
%TO.C,D5*%
X36745000Y-64873000D02*
X36745000Y-67794000D01*
X36745000Y-67794000D02*
X41571000Y-67794000D01*
X40555000Y-64873000D02*
X36745000Y-64873000D01*
X49300000Y-65000000D02*
G75*
G03*
X40700000Y-65000000I-4300000J0D01*
G01*
X40700000Y-65000000D02*
G75*
G03*
X49300000Y-65000000I4300000J0D01*
G01*
%TO.C,R7*%
X75412936Y-100860000D02*
X76867064Y-100860000D01*
X75412936Y-102680000D02*
X76867064Y-102680000D01*
%TO.C,R6*%
X103622936Y-114935000D02*
X104077064Y-114935000D01*
X103622936Y-116405000D02*
X104077064Y-116405000D01*
%TO.C,Q1*%
X53430000Y-101250000D02*
X53430000Y-101520000D01*
X53430000Y-108150000D02*
X53430000Y-107880000D01*
X59850000Y-101250000D02*
X53430000Y-101250000D01*
X59850000Y-108150000D02*
X53430000Y-108150000D01*
X52015000Y-101540000D02*
X51775000Y-101210000D01*
X52255000Y-101210000D01*
X52015000Y-101540000D01*
G36*
X52015000Y-101540000D02*
G01*
X51775000Y-101210000D01*
X52255000Y-101210000D01*
X52015000Y-101540000D01*
G37*
%TO.C,D6*%
X36745000Y-34873000D02*
X36745000Y-37794000D01*
X36745000Y-37794000D02*
X41571000Y-37794000D01*
X40555000Y-34873000D02*
X36745000Y-34873000D01*
X49300000Y-35000000D02*
G75*
G03*
X40700000Y-35000000I-4300000J0D01*
G01*
X40700000Y-35000000D02*
G75*
G03*
X49300000Y-35000000I4300000J0D01*
G01*
%TO.C,R17*%
X99910000Y-111007064D02*
X99910000Y-109552936D01*
X101730000Y-111007064D02*
X101730000Y-109552936D01*
%TO.C,R15*%
X33680000Y-110967064D02*
X33680000Y-109512936D01*
X35500000Y-110967064D02*
X35500000Y-109512936D01*
%TO.C,D1*%
X36745000Y-90873000D02*
X36745000Y-93794000D01*
X36745000Y-93794000D02*
X41571000Y-93794000D01*
X40555000Y-90873000D02*
X36745000Y-90873000D01*
X49300000Y-91000000D02*
G75*
G03*
X40700000Y-91000000I-4300000J0D01*
G01*
X40700000Y-91000000D02*
G75*
G03*
X49300000Y-91000000I4300000J0D01*
G01*
%TO.C,Q2*%
X87180000Y-101380000D02*
X87180000Y-101650000D01*
X87180000Y-108280000D02*
X87180000Y-108010000D01*
X93600000Y-101380000D02*
X87180000Y-101380000D01*
X93600000Y-108280000D02*
X87180000Y-108280000D01*
X85765000Y-101670000D02*
X85525000Y-101340000D01*
X86005000Y-101340000D01*
X85765000Y-101670000D01*
G36*
X85765000Y-101670000D02*
G01*
X85525000Y-101340000D01*
X86005000Y-101340000D01*
X85765000Y-101670000D01*
G37*
%TO.C,R23*%
X61702936Y-113240000D02*
X63157064Y-113240000D01*
X61702936Y-115060000D02*
X63157064Y-115060000D01*
%TO.C,D12*%
X95595000Y-90873000D02*
X95595000Y-93794000D01*
X95595000Y-93794000D02*
X100421000Y-93794000D01*
X99405000Y-90873000D02*
X95595000Y-90873000D01*
X108150000Y-91000000D02*
G75*
G03*
X99550000Y-91000000I-4300000J0D01*
G01*
X99550000Y-91000000D02*
G75*
G03*
X108150000Y-91000000I4300000J0D01*
G01*
%TO.C,D11*%
X95595000Y-63523000D02*
X95595000Y-66444000D01*
X95595000Y-66444000D02*
X100421000Y-66444000D01*
X99405000Y-63523000D02*
X95595000Y-63523000D01*
X108150000Y-63650000D02*
G75*
G03*
X99550000Y-63650000I-4300000J0D01*
G01*
X99550000Y-63650000D02*
G75*
G03*
X108150000Y-63650000I4300000J0D01*
G01*
%TO.C,R20*%
X61960000Y-110957064D02*
X61960000Y-109502936D01*
X63780000Y-110957064D02*
X63780000Y-109502936D01*
%TO.C,D10*%
X96745000Y-34873000D02*
X96745000Y-37794000D01*
X96745000Y-37794000D02*
X101571000Y-37794000D01*
X100555000Y-34873000D02*
X96745000Y-34873000D01*
X109300000Y-35000000D02*
G75*
G03*
X100700000Y-35000000I-4300000J0D01*
G01*
X100700000Y-35000000D02*
G75*
G03*
X109300000Y-35000000I4300000J0D01*
G01*
%TO.C,J4*%
X102980000Y-124180000D02*
X101650000Y-124180000D01*
X102980000Y-122850000D02*
X102980000Y-124180000D01*
X102980000Y-121580000D02*
X102980000Y-118980000D01*
X102980000Y-121580000D02*
X100320000Y-121580000D01*
X102980000Y-118980000D02*
X100320000Y-118980000D01*
X100320000Y-121580000D02*
X100320000Y-118980000D01*
%TO.C,U3*%
X72980000Y-103280000D02*
X72980000Y-101330000D01*
X72980000Y-103280000D02*
X72980000Y-105230000D01*
X67860000Y-103280000D02*
X67860000Y-101330000D01*
X67860000Y-103280000D02*
X67860000Y-105230000D01*
X73215000Y-100820000D02*
X72885000Y-100580000D01*
X73215000Y-100340000D01*
X73215000Y-100820000D01*
G36*
X73215000Y-100820000D02*
G01*
X72885000Y-100580000D01*
X73215000Y-100340000D01*
X73215000Y-100820000D01*
G37*
%TO.C,D7*%
X66745000Y-36023000D02*
X66745000Y-38944000D01*
X66745000Y-38944000D02*
X71571000Y-38944000D01*
X70555000Y-36023000D02*
X66745000Y-36023000D01*
X79300000Y-36150000D02*
G75*
G03*
X70700000Y-36150000I-4300000J0D01*
G01*
X70700000Y-36150000D02*
G75*
G03*
X79300000Y-36150000I4300000J0D01*
G01*
%TO.C,D3*%
X89760000Y-118340000D02*
X91760000Y-118340000D01*
X89760000Y-118340000D02*
X89760000Y-114330000D01*
X91760000Y-118340000D02*
X91760000Y-114330000D01*
%TO.C,D4*%
X89810000Y-123280000D02*
X91810000Y-123280000D01*
X89810000Y-123280000D02*
X89810000Y-119270000D01*
X91810000Y-123280000D02*
X91810000Y-119270000D01*
%TO.C,D8*%
X66745000Y-63723000D02*
X66745000Y-66644000D01*
X66745000Y-66644000D02*
X71571000Y-66644000D01*
X70555000Y-63723000D02*
X66745000Y-63723000D01*
X79300000Y-63850000D02*
G75*
G03*
X70700000Y-63850000I-4300000J0D01*
G01*
X70700000Y-63850000D02*
G75*
G03*
X79300000Y-63850000I4300000J0D01*
G01*
%TO.C,R13*%
X111212936Y-117110000D02*
X112667064Y-117110000D01*
X111212936Y-118930000D02*
X112667064Y-118930000D01*
%TO.C,R16*%
X68620000Y-110787064D02*
X68620000Y-109332936D01*
X70440000Y-110787064D02*
X70440000Y-109332936D01*
%TO.C,R2*%
X41292936Y-106440000D02*
X42747064Y-106440000D01*
X41292936Y-108260000D02*
X42747064Y-108260000D01*
%TO.C,R10*%
X80320000Y-106777064D02*
X80320000Y-102422936D01*
X83740000Y-106777064D02*
X83740000Y-102422936D01*
%TO.C,D9*%
X66745000Y-90873000D02*
X66745000Y-93794000D01*
X66745000Y-93794000D02*
X71571000Y-93794000D01*
X70555000Y-90873000D02*
X66745000Y-90873000D01*
X79300000Y-91000000D02*
G75*
G03*
X70700000Y-91000000I-4300000J0D01*
G01*
X70700000Y-91000000D02*
G75*
G03*
X79300000Y-91000000I4300000J0D01*
G01*
%TO.C,R19*%
X27952936Y-103580000D02*
X29407064Y-103580000D01*
X27952936Y-105400000D02*
X29407064Y-105400000D01*
%TO.C,SW1*%
X60120000Y-125390000D02*
X60120000Y-126130000D01*
X60120000Y-126130000D02*
X60620000Y-126130000D01*
X60360000Y-115969000D02*
X60360000Y-125890000D01*
X60360000Y-115969000D02*
X70640000Y-115969000D01*
X60360000Y-118929000D02*
X70640000Y-118929000D01*
X60360000Y-123830000D02*
X70640000Y-123830000D01*
X60360000Y-125330000D02*
X70640000Y-125330000D01*
X60360000Y-125890000D02*
X70640000Y-125890000D01*
X66813000Y-122253000D02*
X66766000Y-122299000D01*
X67006000Y-122469000D02*
X66971000Y-122504000D01*
X69110000Y-119955000D02*
X69075000Y-119991000D01*
X69315000Y-120161000D02*
X69268000Y-120207000D01*
X70640000Y-115969000D02*
X70640000Y-125890000D01*
X61425001Y-120546001D02*
G75*
G03*
X61424574Y-121913042I1534992J-684000D01*
G01*
X63643999Y-119695001D02*
G75*
G03*
X62276958Y-119694574I-684000J-1534992D01*
G01*
X62276000Y-122764999D02*
G75*
G03*
X62988805Y-122910252I683999J1535000D01*
G01*
X62960000Y-122909999D02*
G75*
G03*
X63643318Y-122764755I0J1679999D01*
G01*
X64495000Y-121914000D02*
G75*
G03*
X64495426Y-120546958I-1535000J684000D01*
G01*
X69720000Y-121230000D02*
G75*
G03*
X66360000Y-121230000I-1680000J0D01*
G01*
X66360000Y-121230000D02*
G75*
G03*
X69720000Y-121230000I1680000J0D01*
G01*
%TO.C,R1*%
X46080000Y-105907064D02*
X46080000Y-101552936D01*
X49500000Y-105907064D02*
X49500000Y-101552936D01*
%TO.C,C3*%
X100158752Y-104865000D02*
X99636248Y-104865000D01*
X100158752Y-103395000D02*
X99636248Y-103395000D01*
%TO.C,R11*%
X111312936Y-111900000D02*
X112767064Y-111900000D01*
X111312936Y-113720000D02*
X112767064Y-113720000D01*
%TO.C,C2*%
X65131252Y-107155000D02*
X64608748Y-107155000D01*
X65131252Y-105685000D02*
X64608748Y-105685000D01*
%TO.C,R14*%
X108980000Y-107827064D02*
X108980000Y-103472936D01*
X112400000Y-107827064D02*
X112400000Y-103472936D01*
%TO.C,Q3*%
X116490000Y-102630000D02*
X116490000Y-102900000D01*
X116490000Y-109530000D02*
X116490000Y-109260000D01*
X122910000Y-102630000D02*
X116490000Y-102630000D01*
X122910000Y-109530000D02*
X116490000Y-109530000D01*
X115075000Y-102920000D02*
X114835000Y-102590000D01*
X115315000Y-102590000D01*
X115075000Y-102920000D01*
G36*
X115075000Y-102920000D02*
G01*
X114835000Y-102590000D01*
X115315000Y-102590000D01*
X115075000Y-102920000D01*
G37*
%TD*%
M02*
